{
.appVersion = "3259";
.formatVersion = 3;
DisplayStrings = (
"ABCDEFGHIJKLMNOPQRSTUVWXYZ
0123456789
-:;,.?!"
);
axes = (
{
name = Aerodynamic;
tag = AERO;
}
);
date = "2024-10-22 12:07:12 +0000";
familyName = Aero;
fontMaster = (
{
axesValues = (
-500
);
customParameters = (
{
name = "Master Icon Glyph Name";
value = R;
}
);
id = m006;
metricValues = (
{
over = 16;
pos = 800;
},
{
over = 16;
pos = 650;
},
{
over = 16;
pos = 500;
},
{
over = -16;
},
{
over = -16;
pos = -200;
},
{
}
);
name = "Aero -500";
userData = {
GSCornerRadius = 50;
};
},
{
axesValues = (
-250
);
customParameters = (
{
name = "Master Icon Glyph Name";
value = R;
}
);
id = m005;
metricValues = (
{
over = 16;
pos = 800;
},
{
over = 16;
pos = 650;
},
{
over = 16;
pos = 500;
},
{
over = -16;
},
{
over = -16;
pos = -200;
},
{
}
);
name = "Aero -250";
userData = {
GSCornerRadius = 50;
};
},
{
axesValues = (
0
);
customParameters = (
{
name = "Master Icon Glyph Name";
value = R;
}
);
id = m003;
metricValues = (
{
over = 16;
pos = 800;
},
{
over = 16;
pos = 650;
},
{
over = 16;
pos = 500;
},
{
over = -16;
},
{
over = -16;
pos = -200;
},
{
}
);
name = "Aero 0";
userData = {
GSCornerRadius = 50;
};
},
{
axesValues = (
250
);
customParameters = (
{
name = "Master Icon Glyph Name";
value = R;
}
);
id = m002;
metricValues = (
{
over = 16;
pos = 800;
},
{
over = 16;
pos = 650;
},
{
over = 16;
pos = 500;
},
{
over = -16;
},
{
over = -16;
pos = -200;
},
{
}
);
name = "Aero 250";
userData = {
GSCornerRadius = 50;
};
},
{
axesValues = (
500
);
customParameters = (
{
name = "Master Icon Glyph Name";
value = R;
}
);
id = m004;
metricValues = (
{
over = 16;
pos = 800;
},
{
over = 16;
pos = 650;
},
{
over = 16;
pos = 500;
},
{
over = -16;
},
{
over = -16;
pos = -200;
},
{
}
);
name = "Aero 500";
userData = {
GSCornerRadius = 50;
};
}
);
glyphs = (
{
glyphname = A;
lastChange = "2024-11-10 23:48:51 +0000";
layers = (
{
hints = (
{
horizontal = 1;
place = (559.68,25.08);
type = Stem;
},
{
horizontal = 1;
place = (183.48,25.08);
type = Stem;
},
{
horizontal = 1;
place = (-1.32,21);
target = up;
type = BottomGhost;
},
{
place = (349.8,25.08);
type = Stem;
}
);
layerId = m003;
shapes = (
{
closed = 1;
nodes = (
(593,34,l),
(504,34,o),
(369,120,o),
(300,552,c),
(278,552,l),
(323,0,l),
(593,-2,l)
);
},
{
closed = 1;
nodes = (
(18,-3,o),
(48,16,o),
(56,40,cs),
(269,650,l),
(247,652,o),
(220,633,o),
(211,608,cs),
(0,0,l)
);
},
{
attr = {
lineCapEnd = 4;
lineCapStart = 4;
strokeWidth = 30;
};
closed = 0;
nodes = (
(180,287,l),
(203,313,o),
(256,360,o),
(338,376,c),
(424,397,o),
(503,366,o),
(550,344,c)
);
},
{
closed = 1;
nodes = (
(543,397,l),
(538,350,l),
(500,323,l),
(609,309,l)
);
}
);
width = 669;
},
{
hints = (
{
horizontal = 1;
place = (559.68,25.08);
type = Stem;
},
{
horizontal = 1;
place = (183.48,25.08);
type = Stem;
},
{
horizontal = 1;
place = (-1.32,21);
target = up;
type = BottomGhost;
},
{
place = (349.8,25.08);
type = Stem;
}
);
layerId = m002;
shapes = (
{
closed = 1;
nodes = (
(593,34,l),
(504,34,o),
(369,120,o),
(300,552,c),
(278,552,l),
(323,0,l),
(593,-2,l)
);
},
{
closed = 1;
nodes = (
(18,-3,o),
(48,16,o),
(56,40,cs),
(269,650,l),
(247,652,o),
(220,633,o),
(211,608,cs),
(0,0,l)
);
},
{
attr = {
lineCapEnd = 4;
lineCapStart = 4;
strokeWidth = 30;
};
closed = 0;
nodes = (
(206,306,l),
(231,330,o),
(288,372,o),
(371,381,c),
(459,394,o),
(535,356,o),
(580,330,c)
);
},
{
closed = 1;
nodes = (
(577,384,l),
(568,337,l),
(528,314,l),
(635,290,l)
);
}
);
width = 669;
},
{
hints = (
{
horizontal = 1;
place = (559.68,25.08);
type = Stem;
},
{
horizontal = 1;
place = (183.48,25.08);
type = Stem;
},
{
horizontal = 1;
place = (-1.32,21);
target = up;
type = BottomGhost;
},
{
place = (349.8,25.08);
type = Stem;
}
);
layerId = m004;
shapes = (
{
closed = 1;
nodes = (
(593,34,l),
(504,34,o),
(369,120,o),
(300,552,c),
(278,552,l),
(323,0,l),
(593,-2,l)
);
},
{
closed = 1;
nodes = (
(18,-3,o),
(48,16,o),
(56,40,cs),
(269,650,l),
(247,652,o),
(220,633,o),
(211,608,cs),
(0,0,l)
);
},
{
attr = {
lineCapEnd = 4;
lineCapStart = 4;
strokeWidth = 30;
};
closed = 0;
nodes = (
(234,325,l),
(261,347,o),
(321,383,o),
(405,385,c),
(493,390,o),
(566,346,o),
(608,316,c)
);
},
{
closed = 1;
nodes = (
(610,370,l),
(597,324,l),
(555,305,l),
(660,272,l)
);
}
);
width = 669;
},
{
hints = (
{
horizontal = 1;
place = (559.68,25.08);
type = Stem;
},
{
horizontal = 1;
place = (183.48,25.08);
type = Stem;
},
{
horizontal = 1;
place = (-1.32,21);
target = up;
type = BottomGhost;
},
{
place = (349.8,25.08);
type = Stem;
}
);
layerId = m005;
shapes = (
{
closed = 1;
nodes = (
(593,34,l),
(504,34,o),
(369,120,o),
(300,552,c),
(278,552,l),
(323,0,l),
(593,-2,l)
);
},
{
closed = 1;
nodes = (
(18,-3,o),
(48,16,o),
(56,40,cs),
(269,650,l),
(247,652,o),
(220,633,o),
(211,608,cs),
(0,0,l)
);
},
{
attr = {
lineCapEnd = 4;
lineCapStart = 4;
strokeWidth = 30;
};
closed = 0;
nodes = (
(156,269,l),
(176,296,o),
(225,348,o),
(305,371,c),
(389,399,o),
(470,375,o),
(519,358,c)
);
},
{
closed = 1;
nodes = (
(508,410,l),
(507,362,l),
(471,332,l),
(581,328,l)
);
}
);
width = 669;
},
{
hints = (
{
horizontal = 1;
place = (559.68,25.08);
type = Stem;
},
{
horizontal = 1;
place = (183.48,25.08);
type = Stem;
},
{
horizontal = 1;
place = (-1.32,21);
target = up;
type = BottomGhost;
},
{
place = (349.8,25.08);
type = Stem;
}
);
layerId = m006;
shapes = (
{
closed = 1;
nodes = (
(593,34,l),
(504,34,o),
(369,120,o),
(300,552,c),
(278,552,l),
(323,0,l),
(593,-2,l)
);
},
{
closed = 1;
nodes = (
(18,-3,o),
(48,16,o),
(56,40,cs),
(269,650,l),
(247,652,o),
(220,633,o),
(211,608,cs),
(0,0,l)
);
},
{
attr = {
lineCapEnd = 4;
lineCapStart = 4;
strokeWidth = 30;
};
closed = 0;
nodes = (
(133,251,l),
(151,279,o),
(195,335,o),
(272,365,c),
(354,401,o),
(437,384,o),
(487,371,c)
);
},
{
closed = 1;
nodes = (
(471,422,l),
(475,374,l),
(441,341,l),
(551,347,l)
);
}
);
width = 669;
}
);
note = A;
unicode = 65;
},
{
glyphname = B;
lastChange = "2024-11-10 23:48:29 +0000";
layers = (
{
background = {
shapes = (
{
closed = 1;
nodes = (
(366,479,o),
(300,558,o),
(212,579,c),
(227,626,l),
(204,635,l),
(185,585,l),
(179,586,o),
(172,585,o),
(165,585,cs),
(124,585,o),
(85,572,o),
(53,550,c),
(68,529,l),
(95,548,o),
(130,560,o),
(165,560,cs),
(177,560,l),
(116,391,l),
(93,385,o),
(70,375,o),
(50,362,c),
(65,341,l),
(77,348,o),
(91,355,o),
(106,360,c),
(12,100,l),
(36,91,l),
(77,205,l),
(103,191,o),
(134,185,o),
(165,185,cs),
(230,185,o),
(288,215,o),
(325,263,c),
(334,242,o),
(338,219,o),
(338,195,cs),
(338,99,o),
(259,20,o),
(163,20,cs),
(127,20,o),
(94,30,o),
(66,49,c),
(52,28,l),
(83,7,o),
(122,-5,o),
(163,-5,cs),
(274,-5,o),
(363,84,o),
(363,195,cs),
(363,228,o),
(355,259,o),
(341,286,c),
(357,315,o),
(366,348,o),
(366,384,cs)
);
},
{
closed = 1;
nodes = (
(202,556,l),
(281,539,o),
(341,470,o),
(341,385,cs),
(341,360,o),
(336,335,o),
(325,313,c),
(288,363,o),
(230,396,o),
(163,396,cs),
(156,396,o),
(149,395,o),
(144,395,c)
);
},
{
closed = 1;
nodes = (
(280,240,o),
(226,210,o),
(165,210,cs),
(136,210,o),
(110,218,o),
(86,230,c),
(135,368,l),
(144,370,o),
(153,370,o),
(163,370,cs),
(226,370,o),
(281,338,o),
(312,288,c)
);
}
);
};
hints = (
{
horizontal = 1;
place = (559.68,25.08);
type = Stem;
},
{
horizontal = 1;
place = (369.6,26.4);
type = Stem;
},
{
horizontal = 1;
place = (184.8,25.08);
type = Stem;
},
{
horizontal = 1;
place = (-5.28,25.08);
type = Stem;
},
{
place = (339.24,25.08);
type = Stem;
}
);
layerId = m003;
shapes = (
{
closed = 1;
nodes = (
(269,650,l),
(247,652,o),
(220,633,o),
(211,608,cs),
(0,0,l),
(18,-3,o),
(48,16,o),
(56,40,cs)
);
},
{
attr = {
lineCapEnd = 4;
lineCapStart = 4;
strokeWidth = 30;
};
closed = 0;
nodes = (
(187,378,l),
(290,316,o),
(375,354,o),
(409,416,c),
(441,471,o),
(429,540,o),
(380,594,c)
);
},
{
closed = 1;
nodes = (
(376,539,l),
(390,584,l),
(432,604,l),
(326,638,l)
);
},
{
attr = {
lineCapEnd = 4;
lineCapStart = 4;
strokeWidth = 30;
};
closed = 0;
nodes = (
(215,5,l),
(333,-18,o),
(400,46,o),
(411,116,c),
(422,179,o),
(387,239,o),
(322,273,c)
);
},
{
closed = 1;
nodes = (
(338,220,l),
(335,268,l),
(368,301,l),
(257,296,l)
);
}
);
width = 489;
},
{
background = {
shapes = (
{
closed = 1;
nodes = (
(366,479,o),
(300,558,o),
(212,579,c),
(227,626,l),
(204,635,l),
(185,585,l),
(179,586,o),
(172,585,o),
(165,585,cs),
(124,585,o),
(85,572,o),
(53,550,c),
(68,529,l),
(95,548,o),
(130,560,o),
(165,560,cs),
(177,560,l),
(116,391,l),
(93,385,o),
(70,375,o),
(50,362,c),
(65,341,l),
(77,348,o),
(91,355,o),
(106,360,c),
(12,100,l),
(36,91,l),
(77,205,l),
(103,191,o),
(134,185,o),
(165,185,cs),
(230,185,o),
(288,215,o),
(325,263,c),
(334,242,o),
(338,219,o),
(338,195,cs),
(338,99,o),
(259,20,o),
(163,20,cs),
(127,20,o),
(94,30,o),
(66,49,c),
(52,28,l),
(83,7,o),
(122,-5,o),
(163,-5,cs),
(274,-5,o),
(363,84,o),
(363,195,cs),
(363,228,o),
(355,259,o),
(341,286,c),
(357,315,o),
(366,348,o),
(366,384,cs)
);
},
{
closed = 1;
nodes = (
(202,556,l),
(281,539,o),
(341,470,o),
(341,385,cs),
(341,360,o),
(336,335,o),
(325,313,c),
(288,363,o),
(230,396,o),
(163,396,cs),
(156,396,o),
(149,395,o),
(144,395,c)
);
},
{
closed = 1;
nodes = (
(280,240,o),
(226,210,o),
(165,210,cs),
(136,210,o),
(110,218,o),
(86,230,c),
(135,368,l),
(144,370,o),
(153,370,o),
(163,370,cs),
(226,370,o),
(281,338,o),
(312,288,c)
);
}
);
};
hints = (
{
horizontal = 1;
place = (559.68,25.08);
type = Stem;
},
{
horizontal = 1;
place = (369.6,26.4);
type = Stem;
},
{
horizontal = 1;
place = (184.8,25.08);
type = Stem;
},
{
horizontal = 1;
place = (-5.28,25.08);
type = Stem;
},
{
place = (339.24,25.08);
type = Stem;
}
);
layerId = m002;
shapes = (
{
closed = 1;
nodes = (
(269,650,l),
(247,652,o),
(220,633,o),
(211,608,cs),
(0,0,l),
(18,-3,o),
(48,16,o),
(56,40,cs)
);
},
{
attr = {
lineCapEnd = 4;
lineCapStart = 4;
strokeWidth = 30;
};
closed = 0;
nodes = (
(218,359,l),
(336,336,o),
(403,401,o),
(414,471,c),
(425,533,o),
(390,594,o),
(326,628,c)
);
},
{
closed = 1;
nodes = (
(341,575,l),
(339,622,l),
(371,655,l),
(260,651,l)
);
},
{
attr = {
lineCapEnd = 4;
lineCapStart = 4;
strokeWidth = 30;
};
closed = 0;
nodes = (
(258,-2,l),
(377,17,o),
(418,100,o),
(404,169,c),
(393,232,o),
(340,277,o),
(267,286,c)
);
},
{
closed = 1;
nodes = (
(300,242,l),
(281,286,l),
(300,328,l),
(198,286,l)
);
}
);
width = 489;
},
{
background = {
shapes = (
{
closed = 1;
nodes = (
(366,479,o),
(300,558,o),
(212,579,c),
(227,626,l),
(204,635,l),
(185,585,l),
(179,586,o),
(172,585,o),
(165,585,cs),
(124,585,o),
(85,572,o),
(53,550,c),
(68,529,l),
(95,548,o),
(130,560,o),
(165,560,cs),
(177,560,l),
(116,391,l),
(93,385,o),
(70,375,o),
(50,362,c),
(65,341,l),
(77,348,o),
(91,355,o),
(106,360,c),
(12,100,l),
(36,91,l),
(77,205,l),
(103,191,o),
(134,185,o),
(165,185,cs),
(230,185,o),
(288,215,o),
(325,263,c),
(334,242,o),
(338,219,o),
(338,195,cs),
(338,99,o),
(259,20,o),
(163,20,cs),
(127,20,o),
(94,30,o),
(66,49,c),
(52,28,l),
(83,7,o),
(122,-5,o),
(163,-5,cs),
(274,-5,o),
(363,84,o),
(363,195,cs),
(363,228,o),
(355,259,o),
(341,286,c),
(357,315,o),
(366,348,o),
(366,384,cs)
);
},
{
closed = 1;
nodes = (
(202,556,l),
(281,539,o),
(341,470,o),
(341,385,cs),
(341,360,o),
(336,335,o),
(325,313,c),
(288,363,o),
(230,396,o),
(163,396,cs),
(156,396,o),
(149,395,o),
(144,395,c)
);
},
{
closed = 1;
nodes = (
(280,240,o),
(226,210,o),
(165,210,cs),
(136,210,o),
(110,218,o),
(86,230,c),
(135,368,l),
(144,370,o),
(153,370,o),
(163,370,cs),
(226,370,o),
(281,338,o),
(312,288,c)
);
}
);
};
hints = (
{
horizontal = 1;
place = (559.68,25.08);
type = Stem;
},
{
horizontal = 1;
place = (369.6,26.4);
type = Stem;
},
{
horizontal = 1;
place = (184.8,25.08);
type = Stem;
},
{
horizontal = 1;
place = (-5.28,25.08);
type = Stem;
},
{
place = (339.24,25.08);
type = Stem;
}
);
layerId = m004;
shapes = (
{
closed = 1;
nodes = (
(269,650,l),
(247,652,o),
(220,633,o),
(211,608,cs),
(0,0,l),
(18,-3,o),
(48,16,o),
(56,40,cs)
);
},
{
attr = {
lineCapEnd = 4;
lineCapStart = 4;
strokeWidth = 30;
};
closed = 0;
nodes = (
(261,352,l),
(380,371,o),
(420,455,o),
(407,524,c),
(396,586,o),
(342,631,o),
(270,642,c)
);
},
{
closed = 1;
nodes = (
(303,597,l),
(285,640,l),
(303,682,l),
(201,641,l)
);
},
{
attr = {
lineCapEnd = 4;
lineCapStart = 4;
strokeWidth = 30;
};
closed = 0;
nodes = (
(307,11,l),
(413,69,o),
(423,161,o),
(386,221,c),
(354,277,o),
(289,301,o),
(217,285,c)
);
},
{
closed = 1;
nodes = (
(263,254,l),
(231,289,l),
(234,335,l),
(153,261,l)
);
}
);
width = 489;
},
{
background = {
shapes = (
{
closed = 1;
nodes = (
(366,479,o),
(300,558,o),
(212,579,c),
(227,626,l),
(204,635,l),
(185,585,l),
(179,586,o),
(172,585,o),
(165,585,cs),
(124,585,o),
(85,572,o),
(53,550,c),
(68,529,l),
(95,548,o),
(130,560,o),
(165,560,cs),
(177,560,l),
(116,391,l),
(93,385,o),
(70,375,o),
(50,362,c),
(65,341,l),
(77,348,o),
(91,355,o),
(106,360,c),
(12,100,l),
(36,91,l),
(77,205,l),
(103,191,o),
(134,185,o),
(165,185,cs),
(230,185,o),
(288,215,o),
(325,263,c),
(334,242,o),
(338,219,o),
(338,195,cs),
(338,99,o),
(259,20,o),
(163,20,cs),
(127,20,o),
(94,30,o),
(66,49,c),
(52,28,l),
(83,7,o),
(122,-5,o),
(163,-5,cs),
(274,-5,o),
(363,84,o),
(363,195,cs),
(363,228,o),
(355,259,o),
(341,286,c),
(357,315,o),
(366,348,o),
(366,384,cs)
);
},
{
closed = 1;
nodes = (
(202,556,l),
(281,539,o),
(341,470,o),
(341,385,cs),
(341,360,o),
(336,335,o),
(325,313,c),
(288,363,o),
(230,396,o),
(163,396,cs),
(156,396,o),
(149,395,o),
(144,395,c)
);
},
{
closed = 1;
nodes = (
(280,240,o),
(226,210,o),
(165,210,cs),
(136,210,o),
(110,218,o),
(86,230,c),
(135,368,l),
(144,370,o),
(153,370,o),
(163,370,cs),
(226,370,o),
(281,338,o),
(312,288,c)
);
}
);
};
hints = (
{
horizontal = 1;
place = (559.68,25.08);
type = Stem;
},
{
horizontal = 1;
place = (369.6,26.4);
type = Stem;
},
{
horizontal = 1;
place = (184.8,25.08);
type = Stem;
},
{
horizontal = 1;
place = (-5.28,25.08);
type = Stem;
},
{
place = (339.24,25.08);
type = Stem;
}
);
layerId = m005;
shapes = (
{
closed = 1;
nodes = (
(269,650,l),
(247,652,o),
(220,633,o),
(211,608,cs),
(0,0,l),
(18,-3,o),
(48,16,o),
(56,40,cs)
);
},
{
attr = {
lineCapEnd = 4;
lineCapStart = 4;
strokeWidth = 30;
};
closed = 0;
nodes = (
(151,407,l),
(226,314,o),
(319,321,o),
(372,367,c),
(421,408,o),
(434,477,o),
(406,544,c)
);
},
{
closed = 1;
nodes = (
(383,494,l),
(412,532,l),
(458,536,l),
(370,604,l)
);
},
{
attr = {
lineCapEnd = 4;
lineCapStart = 4;
strokeWidth = 30;
};
closed = 0;
nodes = (
(165,29,l),
(268,-33,o),
(352,4,o),
(387,66,c),
(419,121,o),
(406,190,o),
(357,244,c)
);
},
{
closed = 1;
nodes = (
(354,189,l),
(367,235,l),
(410,254,l),
(304,288,l)
);
}
);
width = 489;
},
{
background = {
shapes = (
{
closed = 1;
nodes = (
(366,479,o),
(300,558,o),
(212,579,c),
(227,626,l),
(204,635,l),
(185,585,l),
(179,586,o),
(172,585,o),
(165,585,cs),
(124,585,o),
(85,572,o),
(53,550,c),
(68,529,l),
(95,548,o),
(130,560,o),
(165,560,cs),
(177,560,l),
(116,391,l),
(93,385,o),
(70,375,o),
(50,362,c),
(65,341,l),
(77,348,o),
(91,355,o),
(106,360,c),
(12,100,l),
(36,91,l),
(77,205,l),
(103,191,o),
(134,185,o),
(165,185,cs),
(230,185,o),
(288,215,o),
(325,263,c),
(334,242,o),
(338,219,o),
(338,195,cs),
(338,99,o),
(259,20,o),
(163,20,cs),
(127,20,o),
(94,30,o),
(66,49,c),
(52,28,l),
(83,7,o),
(122,-5,o),
(163,-5,cs),
(274,-5,o),
(363,84,o),
(363,195,cs),
(363,228,o),
(355,259,o),
(341,286,c),
(357,315,o),
(366,348,o),
(366,384,cs)
);
},
{
closed = 1;
nodes = (
(202,556,l),
(281,539,o),
(341,470,o),
(341,385,cs),
(341,360,o),
(336,335,o),
(325,313,c),
(288,363,o),
(230,396,o),
(163,396,cs),
(156,396,o),
(149,395,o),
(144,395,c)
);
},
{
closed = 1;
nodes = (
(280,240,o),
(226,210,o),
(165,210,cs),
(136,210,o),
(110,218,o),
(86,230,c),
(135,368,l),
(144,370,o),
(153,370,o),
(163,370,cs),
(226,370,o),
(281,338,o),
(312,288,c)
);
}
);
};
hints = (
{
horizontal = 1;
place = (559.68,25.08);
type = Stem;
},
{
horizontal = 1;
place = (369.6,26.4);
type = Stem;
},
{
horizontal = 1;
place = (184.8,25.08);
type = Stem;
},
{
horizontal = 1;
place = (-5.28,25.08);
type = Stem;
},
{
place = (339.24,25.08);
type = Stem;
}
);
layerId = m006;
shapes = (
{
closed = 1;
nodes = (
(269,650,l),
(247,652,o),
(220,633,o),
(211,608,cs),
(0,0,l),
(18,-3,o),
(48,16,o),
(56,40,cs)
);
},
{
attr = {
lineCapEnd = 4;
lineCapStart = 4;
strokeWidth = 30;
};
closed = 0;
nodes = (
(132,443,l),
(171,330,o),
(261,304,o),
(326,329,c),
(387,351,o),
(422,412,o),
(419,484,c)
);
},
{
closed = 1;
nodes = (
(380,445,l),
(420,471,l),
(465,459,l),
(406,553,l)
);
},
{
attr = {
lineCapEnd = 4;
lineCapStart = 4;
strokeWidth = 30;
};
closed = 0;
nodes = (
(129,58,l),
(205,-35,o),
(296,-29,o),
(350,17,c),
(399,58,o),
(411,127,o),
(383,195,c)
);
},
{
closed = 1;
nodes = (
(361,144,l),
(389,183,l),
(436,186,l),
(348,254,l)
);
}
);
width = 489;
}
);
note = B;
unicode = 66;
},
{
glyphname = C;
lastChange = "2024-11-10 23:47:49 +0000";
layers = (
{
background = {
shapes = (
{
closed = 1;
nodes = (
(87,309,o),
(127,378,o),
(187,414,c),
(174,436,l),
(106,393,o),
(61,319,o),
(61,234,cs),
(61,102,o),
(166,-5,o),
(298,-5,cs),
(345,-5,o),
(387,8,o),
(424,30,c),
(411,51,l),
(378,32,o),
(341,21,o),
(300,21,cs),
(186,21,o),
(87,108,o),
(87,232,cs)
);
},
{
closed = 1;
nodes = (
(100,524,o),
(25,457,o),
(-20,368,c),
(3,356,l),
(63,477,o),
(189,560,o),
(333,560,cs),
(381,560,o),
(429,549,o),
(471,532,c),
(482,556,l),
(436,574,o),
(385,585,o),
(333,585,cs),
(284,585,o),
(236,574,o),
(193,558,cs)
);
}
);
};
hints = (
{
horizontal = 1;
place = (558,25.08);
type = Stem;
},
{
horizontal = 1;
place = (-5,26.4);
type = Stem;
},
{
place = (94,26.4);
type = Stem;
}
);
layerId = m003;
shapes = (
{
attr = {
lineCapEnd = 4;
lineCapStart = 4;
strokeWidth = 30;
};
closed = 0;
nodes = (
(57,473,l),
(80,499,o),
(133,546,o),
(215,562,c),
(301,583,o),
(380,552,o),
(427,530,c)
);
},
{
closed = 1;
nodes = (
(420,583,l),
(415,536,l),
(377,509,l),
(486,495,l)
);
},
{
attr = {
lineCapEnd = 4;
lineCapStart = 4;
strokeWidth = 30;
};
closed = 0;
nodes = (
(168,441,l),
(0,348,o),
(-11,203,o),
(46,108,c),
(96,20,o),
(197,-18,o),
(310,10,c)
);
},
{
closed = 1;
nodes = (
(269,47,l),
(303,12,l),
(299,-34,l),
(380,40,l)
);
}
);
width = 510;
},
{
background = {
shapes = (
{
closed = 1;
nodes = (
(85,309,o),
(125,378,o),
(185,414,c),
(172,436,l),
(104,393,o),
(59,319,o),
(59,234,cs),
(59,102,o),
(164,-5,o),
(296,-5,cs),
(343,-5,o),
(385,8,o),
(422,30,c),
(409,51,l),
(376,32,o),
(339,21,o),
(298,21,cs),
(184,21,o),
(85,108,o),
(85,232,cs)
);
},
{
closed = 1;
nodes = (
(98,524,o),
(23,457,o),
(-22,368,c),
(1,356,l),
(61,477,o),
(187,560,o),
(331,560,cs),
(379,560,o),
(427,549,o),
(469,532,c),
(480,556,l),
(434,574,o),
(383,585,o),
(331,585,cs),
(282,585,o),
(234,574,o),
(191,558,cs)
);
}
);
};
hints = (
{
horizontal = 1;
place = (558,25.08);
type = Stem;
},
{
horizontal = 1;
place = (-5,26.4);
type = Stem;
},
{
place = (94,26.4);
type = Stem;
}
);
layerId = m002;
shapes = (
{
attr = {
lineCapEnd = 4;
lineCapStart = 4;
strokeWidth = 30;
};
closed = 0;
nodes = (
(81,492,l),
(106,516,o),
(163,558,o),
(246,567,c),
(334,580,o),
(410,542,o),
(455,516,c)
);
},
{
closed = 1;
nodes = (
(452,570,l),
(443,523,l),
(403,500,l),
(510,476,l)
);
},
{
attr = {
lineCapEnd = 4;
lineCapStart = 4;
strokeWidth = 30;
};
closed = 0;
nodes = (
(96,401,l),
(-30,256,o),
(9,116,o),
(95,46,c),
(172,-19,o),
(280,-20,o),
(377,45,c)
);
},
{
closed = 1;
nodes = (
(325,65,l),
(369,44,l),
(381,-1,l),
(432,97,l)
);
}
);
width = 510;
},
{
background = {
shapes = (
{
closed = 1;
nodes = (
(45,309,o),
(85,378,o),
(145,414,c),
(132,436,l),
(64,393,o),
(19,319,o),
(19,234,cs),
(19,102,o),
(124,-5,o),
(256,-5,cs),
(303,-5,o),
(345,8,o),
(382,30,c),
(369,51,l),
(336,32,o),
(299,21,o),
(258,21,cs),
(144,21,o),
(45,108,o),
(45,232,cs)
);
},
{
closed = 1;
nodes = (
(58,524,o),
(-17,457,o),
(-62,368,c),
(-39,356,l),
(21,477,o),
(147,560,o),
(291,560,cs),
(339,560,o),
(387,549,o),
(429,532,c),
(440,556,l),
(394,574,o),
(343,585,o),
(291,585,cs),
(242,585,o),
(194,574,o),
(151,558,cs)
);
}
);
};
hints = (
{
horizontal = 1;
place = (558,25.08);
type = Stem;
},
{
horizontal = 1;
place = (-5,26.4);
type = Stem;
},
{
place = (94,26.4);
type = Stem;
}
);
layerId = m004;
shapes = (
{
attr = {
lineCapEnd = 4;
lineCapStart = 4;
strokeWidth = 30;
};
closed = 0;
nodes = (
(69,501,l),
(96,523,o),
(156,559,o),
(240,561,c),
(328,566,o),
(401,522,o),
(443,492,c)
);
},
{
closed = 1;
nodes = (
(445,546,l),
(432,500,l),
(390,481,l),
(495,448,l)
);
},
{
attr = {
lineCapEnd = 4;
lineCapStart = 4;
strokeWidth = 30;
};
closed = 0;
nodes = (
(40,352,l),
(-28,173,o),
(56,55,o),
(161,18,c),
(255,-16,o),
(357,20,o),
(426,114,c)
);
},
{
closed = 1;
nodes = (
(370,115,l),
(419,110,l),
(446,72,l),
(460,182,l)
);
}
);
width = 510;
},
{
background = {
shapes = (
{
closed = 1;
nodes = (
(104,309,o),
(144,378,o),
(204,414,c),
(191,436,l),
(123,393,o),
(78,319,o),
(78,234,cs),
(78,102,o),
(183,-5,o),
(315,-5,cs),
(362,-5,o),
(404,8,o),
(441,30,c),
(428,51,l),
(395,32,o),
(358,21,o),
(317,21,cs),
(203,21,o),
(104,108,o),
(104,232,cs)
);
},
{
closed = 1;
nodes = (
(117,524,o),
(42,457,o),
(-3,368,c),
(20,356,l),
(80,477,o),
(206,560,o),
(350,560,cs),
(398,560,o),
(446,549,o),
(488,532,c),
(499,556,l),
(453,574,o),
(402,585,o),
(350,585,cs),
(301,585,o),
(253,574,o),
(210,558,cs)
);
}
);
};
hints = (
{
horizontal = 1;
place = (558,25.08);
type = Stem;
},
{
horizontal = 1;
place = (-5,26.4);
type = Stem;
},
{
place = (94,26.4);
type = Stem;
}
);
layerId = m005;
shapes = (
{
attr = {
lineCapEnd = 4;
lineCapStart = 4;
strokeWidth = 30;
};
closed = 0;
nodes = (
(50,455,l),
(70,482,o),
(119,534,o),
(199,557,c),
(283,585,o),
(364,561,o),
(413,544,c)
);
},
{
closed = 1;
nodes = (
(402,596,l),
(401,548,l),
(365,518,l),
(475,514,l)
);
},
{
attr = {
lineCapEnd = 4;
lineCapStart = 4;
strokeWidth = 30;
};
closed = 0;
nodes = (
(247,442,l),
(58,412,o),
(-2,280,o),
(19,171,c),
(36,71,o),
(117,1,o),
(233,-11,c)
);
},
{
closed = 1;
nodes = (
(207,38,l),
(227,-7,l),
(208,-49,l),
(309,-7,l)
);
}
);
width = 510;
},
{
background = {
shapes = (
{
closed = 1;
nodes = (
(95,309,o),
(135,378,o),
(195,414,c),
(182,436,l),
(114,393,o),
(69,319,o),
(69,234,cs),
(69,102,o),
(174,-5,o),
(306,-5,cs),
(353,-5,o),
(395,8,o),
(432,30,c),
(419,51,l),
(386,32,o),
(349,21,o),
(308,21,cs),
(194,21,o),
(95,108,o),
(95,232,cs)
);
},
{
closed = 1;
nodes = (
(108,524,o),
(33,457,o),
(-12,368,c),
(11,356,l),
(71,477,o),
(197,560,o),
(341,560,cs),
(389,560,o),
(437,549,o),
(479,532,c),
(490,556,l),
(444,574,o),
(393,585,o),
(341,585,cs),
(292,585,o),
(244,574,o),
(201,558,cs)
);
}
);
};
hints = (
{
horizontal = 1;
place = (558,25.08);
type = Stem;
},
{
horizontal = 1;
place = (-5,26.4);
type = Stem;
},
{
place = (94,26.4);
type = Stem;
}
);
layerId = m006;
shapes = (
{
attr = {
lineCapEnd = 4;
lineCapStart = 4;
strokeWidth = 30;
};
closed = 0;
nodes = (
(18,437,l),
(36,465,o),
(80,521,o),
(157,551,c),
(239,587,o),
(322,570,o),
(372,557,c)
);
},
{
closed = 1;
nodes = (
(356,608,l),
(360,560,l),
(326,527,l),
(436,533,l)
);
},
{
attr = {
lineCapEnd = 4;
lineCapStart = 4;
strokeWidth = 30;
};
closed = 0;
nodes = (
(326,425,l),
(138,462,o),
(37,358,o),
(19,249,c),
(1,149,o),
(53,55,o),
(158,4,c)
);
},
{
closed = 1;
nodes = (
(151,59,l),
(154,10,l),
(122,-23,l),
(231,-18,l)
);
}
);
width = 510;
}
);
note = C;
unicode = 67;
},
{
glyphname = D;
lastChange = "2024-11-10 23:46:31 +0000";
layers = (
{
background = {
shapes = (
{
closed = 1;
nodes = (
(508,223,l),
(447,103,o),
(322,20,o),
(178,20,cs),
(135,20,o),
(92,28,o),
(53,42,c),
(238,560,l),
(352,556,o),
(444,462,o),
(444,347,cs),
(444,308,o),
(433,271,o),
(414,239,c),
(437,226,l),
(458,261,o),
(469,304,o),
(469,347,cs),
(469,474,o),
(371,577,o),
(247,585,c),
(265,634,l),
(240,643,l),
(220,585,l),
(137,581,o),
(66,536,o),
(26,469,c),
(48,455,l),
(82,512,o),
(140,552,o),
(210,558,c),
(13,9,l),
(37,1,l),
(44,18,l),
(86,3,o),
(131,-5,o),
(178,-5,cs),
(333,-5,o),
(466,83,o),
(531,211,c)
);
}
);
};
hints = (
{
horizontal = 1;
place = (559.68,25.08);
type = Stem;
},
{
horizontal = 1;
place = (-5.28,25.08);
type = Stem;
},
{
horizontal = 1;
place = (1.32,21);
target = up;
type = BottomGhost;
},
{
place = (443.52,25.08);
type = Stem;
}
);
layerId = m003;
shapes = (
{
closed = 1;
nodes = (
(312,650,l),
(290,652,o),
(263,633,o),
(254,608,cs),
(43,0,l),
(61,-3,o),
(91,16,o),
(99,40,cs)
);
},
{
attr = {
lineCapEnd = 4;
lineCapStart = 4;
strokeWidth = 30;
};
closed = 0;
nodes = (
(409,211,l),
(508,375,o),
(445,506,o),
(348,560,c),
(261,611,o),
(155,594,o),
(70,513,c)
);
},
{
closed = 1;
nodes = (
(132,513,l),
(86,526,l),
(66,568,l),
(33,463,l)
);
},
{
attr = {
lineCapEnd = 4;
lineCapStart = 4;
strokeWidth = 30;
};
closed = 0;
nodes = (
(511,262,l),
(504,228,o),
(482,161,o),
(419,106,c),
(355,45,o),
(271,33,o),
(219,28,c)
);
},
{
closed = 1;
nodes = (
(252,-14,l),
(232,29,l),
(252,71,l),
(150,29,l)
);
}
);
width = 566;
},
{
background = {
shapes = (
{
closed = 1;
nodes = (
(536,223,l),
(475,103,o),
(350,20,o),
(206,20,cs),
(163,20,o),
(120,28,o),
(81,42,c),
(266,560,l),
(380,556,o),
(472,462,o),
(472,347,cs),
(472,308,o),
(461,271,o),
(442,239,c),
(465,226,l),
(486,261,o),
(497,304,o),
(497,347,cs),
(497,474,o),
(399,577,o),
(275,585,c),
(293,634,l),
(268,643,l),
(248,585,l),
(165,581,o),
(94,536,o),
(54,469,c),
(76,455,l),
(110,512,o),
(168,552,o),
(238,558,c),
(41,9,l),
(65,1,l),
(72,18,l),
(114,3,o),
(159,-5,o),
(206,-5,cs),
(361,-5,o),
(494,83,o),
(559,211,c)
);
}
);
};
hints = (
{
horizontal = 1;
place = (559.68,25.08);
type = Stem;
},
{
horizontal = 1;
place = (-5.28,25.08);
type = Stem;
},
{
horizontal = 1;
place = (1.32,21);
target = up;
type = BottomGhost;
},
{
place = (443.52,25.08);
type = Stem;
}
);
layerId = m002;
shapes = (
{
closed = 1;
nodes = (
(320,650,l),
(298,652,o),
(271,633,o),
(262,608,cs),
(51,0,l),
(69,-3,o),
(99,16,o),
(107,40,cs)
);
},
{
attr = {
lineCapEnd = 4;
lineCapStart = 4;
strokeWidth = 30;
};
closed = 0;
nodes = (
(457,270,l),
(494,458,o),
(390,560,o),
(280,578,c),
(181,596,o),
(87,543,o),
(35,438,c)
);
},
{
closed = 1;
nodes = (
(93,459,l),
(46,456,l),
(13,489,l),
(18,379,l)
);
},
{
attr = {
lineCapEnd = 4;
lineCapStart = 4;
strokeWidth = 30;
};
closed = 0;
nodes = (
(500,216,l),
(490,182,o),
(463,118,o),
(395,68,c),
(326,13,o),
(241,9,o),
(189,8,c)
);
},
{
closed = 1;
nodes = (
(218,-37,l),
(202,8,l),
(226,48,l),
(120,15,l)
);
}
);
width = 566;
},
{
background = {
shapes = (
{
closed = 1;
nodes = (
(591,223,l),
(530,103,o),
(405,20,o),
(261,20,cs),
(218,20,o),
(175,28,o),
(136,42,c),
(321,560,l),
(435,556,o),
(527,462,o),
(527,347,cs),
(527,308,o),
(516,271,o),
(497,239,c),
(520,226,l),
(541,261,o),
(552,304,o),
(552,347,cs),
(552,474,o),
(454,577,o),
(330,585,c),
(348,634,l),
(323,643,l),
(303,585,l),
(220,581,o),
(149,536,o),
(109,469,c),
(131,455,l),
(165,512,o),
(223,552,o),
(293,558,c),
(96,9,l),
(120,1,l),
(127,18,l),
(169,3,o),
(214,-5,o),
(261,-5,cs),
(416,-5,o),
(549,83,o),
(614,211,c)
);
}
);
};
hints = (
{
horizontal = 1;
place = (559.68,25.08);
type = Stem;
},
{
horizontal = 1;
place = (-5.28,25.08);
type = Stem;
},
{
horizontal = 1;
place = (1.32,21);
target = up;
type = BottomGhost;
},
{
place = (443.52,25.08);
type = Stem;
}
);
layerId = m004;
shapes = (
{
closed = 1;
nodes = (
(335,650,l),
(313,652,o),
(286,633,o),
(277,608,cs),
(66,0,l),
(84,-3,o),
(114,16,o),
(122,40,cs)
);
},
{
attr = {
lineCapEnd = 4;
lineCapStart = 4;
strokeWidth = 30;
};
closed = 0;
nodes = (
(495,339,l),
(466,529,o),
(333,589,o),
(224,568,c),
(125,551,o),
(54,469,o),
(41,353,c)
);
},
{
closed = 1;
nodes = (
(89,393,l),
(46,374,l),
(3,393,l),
(46,292,l)
);
},
{
attr = {
lineCapEnd = 4;
lineCapStart = 4;
strokeWidth = 30;
};
closed = 0;
nodes = (
(495,189,l),
(482,156,o),
(450,94,o),
(377,51,c),
(304,2,o),
(219,5,o),
(167,9,c)
);
},
{
closed = 1;
nodes = (
(192,-39,l),
(180,8,l),
(207,45,l),
(99,22,l)
);
}
);
width = 566;
},
{
background = {
shapes = (
{
closed = 1;
nodes = (
(498,223,l),
(437,103,o),
(312,20,o),
(168,20,cs),
(125,20,o),
(82,28,o),
(43,42,c),
(228,560,l),
(342,556,o),
(434,462,o),
(434,347,cs),
(434,308,o),
(423,271,o),
(404,239,c),
(427,226,l),
(448,261,o),
(459,304,o),
(459,347,cs),
(459,474,o),
(361,577,o),
(237,585,c),
(255,634,l),
(230,643,l),
(210,585,l),
(127,581,o),
(56,536,o),
(16,469,c),
(38,455,l),
(72,512,o),
(130,552,o),
(200,558,c),
(3,9,l),
(27,1,l),
(34,18,l),
(76,3,o),
(121,-5,o),
(168,-5,cs),
(323,-5,o),
(456,83,o),
(521,211,c)
);
}
);
};
hints = (
{
horizontal = 1;
place = (559.68,25.08);
type = Stem;
},
{
horizontal = 1;
place = (-5.28,25.08);
type = Stem;
},
{
horizontal = 1;
place = (1.32,21);
target = up;
type = BottomGhost;
},
{
place = (443.52,25.08);
type = Stem;
}
);
layerId = m005;
shapes = (
{
closed = 1;
nodes = (
(302,650,l),
(280,652,o),
(253,633,o),
(244,608,cs),
(33,0,l),
(51,-3,o),
(81,16,o),
(89,40,cs)
);
},
{
attr = {
lineCapEnd = 4;
lineCapStart = 4;
strokeWidth = 30;
};
closed = 0;
nodes = (
(342,166,l),
(491,286,o),
(477,431,o),
(404,515,c),
(340,592,o),
(235,612,o),
(127,565,c)
);
},
{
closed = 1;
nodes = (
(185,544,l),
(146,572,l),
(142,618,l),
(75,531,l)
);
},
{
attr = {
lineCapEnd = 4;
lineCapStart = 4;
strokeWidth = 30;
};
closed = 0;
nodes = (
(488,307,l),
(484,273,o),
(468,204,o),
(410,144,c),
(352,77,o),
(269,58,o),
(218,49,c)
);
},
{
closed = 1;
nodes = (
(254,10,l),
(231,51,l),
(247,94,l),
(149,44,l)
);
}
);
width = 566;
},
{
background = {
shapes = (
{
closed = 1;
nodes = (
(498,223,l),
(437,103,o),
(312,20,o),
(168,20,cs),
(125,20,o),
(82,28,o),
(43,42,c),
(228,560,l),
(342,556,o),
(434,462,o),
(434,347,cs),
(434,308,o),
(423,271,o),
(404,239,c),
(427,226,l),
(448,261,o),
(459,304,o),
(459,347,cs),
(459,474,o),
(361,577,o),
(237,585,c),
(255,634,l),
(230,643,l),
(210,585,l),
(127,581,o),
(56,536,o),
(16,469,c),
(38,455,l),
(72,512,o),
(130,552,o),
(200,558,c),
(3,9,l),
(27,1,l),
(34,18,l),
(76,3,o),
(121,-5,o),
(168,-5,cs),
(323,-5,o),
(456,83,o),
(521,211,c)
);
}
);
};
hints = (
{
horizontal = 1;
place = (559.68,25.08);
type = Stem;
},
{
horizontal = 1;
place = (-5.28,25.08);
type = Stem;
},
{
horizontal = 1;
place = (1.32,21);
target = up;
type = BottomGhost;
},
{
place = (443.52,25.08);
type = Stem;
}
);
layerId = m006;
shapes = (
{
closed = 1;
nodes = (
(302,650,l),
(280,652,o),
(253,633,o),
(244,608,cs),
(33,0,l),
(51,-3,o),
(81,16,o),
(89,40,cs)
);
},
{
attr = {
lineCapEnd = 4;
lineCapStart = 4;
strokeWidth = 30;
};
closed = 0;
nodes = (
(251,139,l),
(432,201,o),
(469,342,o),
(429,446,c),
(395,540,o),
(303,595,o),
(186,588,c)
);
},
{
closed = 1;
nodes = (
(233,548,l),
(206,588,l),
(218,633,l),
(125,574,l)
);
},
{
attr = {
lineCapEnd = 4;
lineCapStart = 4;
strokeWidth = 30;
};
closed = 0;
nodes = (
(490,374,l),
(492,340,o),
(488,270,o),
(442,200,c),
(396,124,o),
(318,91,o),
(269,74,c)
);
},
{
closed = 1;
nodes = (
(311,41,l),
(282,78,l),
(290,123,l),
(202,57,l)
);
}
);
width = 566;
}
);
note = D;
unicode = 68;
},
{
glyphname = E;
lastChange = "2024-11-10 23:59:23 +0000";
layers = (
{
background = {
shapes = (
{
closed = 1;
nodes = (
(551,556,l),
(551,581,l),
(249,581,l),
(266,628,l),
(241,638,l),
(221,581,l),
(89,581,l),
(89,556,l),
(212,556,l),
(130,329,l),
(110,329,l),
(110,304,l),
(120,304,l),
(54,119,l),
(36,136,o),
(19,153,o),
(3,173,c),
(-17,158,l),
(2,135,o),
(21,112,o),
(45,92,c),
(14,4,l),
(37,-4,l),
(66,77,l),
(131,29,o),
(212,1,o),
(299,1,cs),
(375,1,o),
(449,22,o),
(510,61,c),
(495,83,l),
(439,48,o),
(371,26,o),
(299,26,cs),
(216,26,o),
(138,54,o),
(76,102,c),
(148,304,l),
(432,304,l),
(432,329,l),
(157,329,l),
(239,556,l)
);
}
);
};
hints = (
{
horizontal = 1;
place = (556,25);
type = Stem;
},
{
horizontal = 1;
place = (304,25);
type = Stem;
},
{
horizontal = 1;
place = (1,25);
type = Stem;
},
{
horizontal = 1;
place = (611,21);
target = up;
type = BottomGhost;
}
);
layerId = m003;
shapes = (
{
attr = {
lineCapEnd = 4;
lineCapStart = 4;
strokeWidth = 30;
};
closed = 0;
nodes = (
(205,314,l),
(449,314,l)
);
},
{
attr = {
lineCapEnd = 4;
lineCapStart = 4;
strokeWidth = 30;
};
closed = 0;
nodes = (
(291,574,l),
(535,574,l)
);
},
{
closed = 1;
nodes = (
(273,650,l),
(251,652,o),
(224,633,o),
(215,608,cs),
(4,0,l),
(22,-3,o),
(52,16,o),
(60,40,cs)
);
},
{
attr = {
lineCapEnd = 4;
lineCapStart = 4;
strokeWidth = 30;
};
closed = 0;
nodes = (
(18,150,l),
(36,123,o),
(79,66,o),
(158,35,c),
(239,1,o),
(321,17,o),
(373,32,c)
);
},
{
closed = 1;
nodes = (
(326,61,l),
(360,27,l),
(356,-19,l),
(435,55,l)
);
},
{
closed = 1;
nodes = (
(479,617,l),
(498,573,l),
(479,531,l),
(581,573,l)
);
},
{
closed = 1;
nodes = (
(400,357,l),
(419,313,l),
(400,271,l),
(502,313,l)
);
}
);
width = 601;
},
{
background = {
shapes = (
{
closed = 1;
nodes = (
(547,556,l),
(547,581,l),
(245,581,l),
(262,628,l),
(237,638,l),
(217,581,l),
(85,581,l),
(85,556,l),
(208,556,l),
(126,329,l),
(106,329,l),
(106,304,l),
(116,304,l),
(50,119,l),
(32,136,o),
(15,153,o),
(-1,173,c),
(-21,158,l),
(-2,135,o),
(17,112,o),
(41,92,c),
(10,4,l),
(33,-4,l),
(62,77,l),
(127,29,o),
(208,1,o),
(295,1,cs),
(371,1,o),
(445,22,o),
(506,61,c),
(491,83,l),
(435,48,o),
(367,26,o),
(295,26,cs),
(212,26,o),
(134,54,o),
(72,102,c),
(144,304,l),
(428,304,l),
(428,329,l),
(153,329,l),
(235,556,l)
);
}
);
};
hints = (
{
horizontal = 1;
place = (556,25);
type = Stem;
},
{
horizontal = 1;
place = (304,25);
type = Stem;
},
{
horizontal = 1;
place = (1,25);
type = Stem;
},
{
horizontal = 1;
place = (611,21);
target = up;
type = BottomGhost;
}
);
layerId = m002;
shapes = (
{
attr = {
lineCapEnd = 4;
lineCapStart = 4;
strokeWidth = 30;
};
closed = 0;
nodes = (
(231,314,l),
(475,314,l)
);
},
{
attr = {
lineCapEnd = 4;
lineCapStart = 4;
strokeWidth = 30;
};
closed = 0;
nodes = (
(317,574,l),
(561,574,l)
);
},
{
closed = 1;
nodes = (
(269,650,l),
(247,652,o),
(220,633,o),
(211,608,cs),
(0,0,l),
(18,-3,o),
(48,16,o),
(56,40,cs)
);
},
{
attr = {
lineCapEnd = 4;
lineCapStart = 4;
strokeWidth = 30;
};
closed = 0;
nodes = (
(77,113,l),
(99,89,o),
(151,41,o),
(235,24,c),
(320,4,o),
(398,34,o),
(447,58,c)
);
},
{
closed = 1;
nodes = (
(395,79,l),
(435,51,l),
(439,5,l),
(504,92,l)
);
},
{
closed = 1;
nodes = (
(505,617,l),
(524,573,l),
(505,531,l),
(607,573,l)
);
},
{
closed = 1;
nodes = (
(426,357,l),
(445,313,l),
(426,271,l),
(528,313,l)
);
}
);
width = 601;
},
{
background = {
shapes = (
{
closed = 1;
nodes = (
(547,556,l),
(547,581,l),
(245,581,l),
(262,628,l),
(237,638,l),
(217,581,l),
(85,581,l),
(85,556,l),
(208,556,l),
(126,329,l),
(106,329,l),
(106,304,l),
(116,304,l),
(50,119,l),
(32,136,o),
(15,153,o),
(-1,173,c),
(-21,158,l),
(-2,135,o),
(17,112,o),
(41,92,c),
(10,4,l),
(33,-4,l),
(62,77,l),
(127,29,o),
(208,1,o),
(295,1,cs),
(371,1,o),
(445,22,o),
(506,61,c),
(491,83,l),
(435,48,o),
(367,26,o),
(295,26,cs),
(212,26,o),
(134,54,o),
(72,102,c),
(144,304,l),
(428,304,l),
(428,329,l),
(153,329,l),
(235,556,l)
);
}
);
};
hints = (
{
horizontal = 1;
place = (556,25);
type = Stem;
},
{
horizontal = 1;
place = (304,25);
type = Stem;
},
{
horizontal = 1;
place = (1,25);
type = Stem;
},
{
horizontal = 1;
place = (611,21);
target = up;
type = BottomGhost;
}
);
layerId = m004;
shapes = (
{
attr = {
lineCapEnd = 4;
lineCapStart = 4;
strokeWidth = 30;
};
closed = 0;
nodes = (
(261,314,l),
(505,314,l)
);
},
{
attr = {
lineCapEnd = 4;
lineCapStart = 4;
strokeWidth = 30;
};
closed = 0;
nodes = (
(347,574,l),
(591,574,l)
);
},
{
closed = 1;
nodes = (
(269,650,l),
(247,652,o),
(220,633,o),
(211,608,cs),
(0,0,l),
(18,-3,o),
(48,16,o),
(56,40,cs)
);
},
{
attr = {
lineCapEnd = 4;
lineCapStart = 4;
strokeWidth = 30;
};
closed = 0;
nodes = (
(103,94,l),
(127,72,o),
(183,29,o),
(268,19,c),
(355,7,o),
(430,43,o),
(476,72,c)
);
},
{
closed = 1;
nodes = (
(423,88,l),
(465,64,l),
(473,18,l),
(530,110,l)
);
},
{
closed = 1;
nodes = (
(535,617,l),
(554,573,l),
(535,531,l),
(637,573,l)
);
},
{
closed = 1;
nodes = (
(456,357,l),
(475,313,l),
(456,271,l),
(558,313,l)
);
}
);
width = 601;
},
{
background = {
shapes = (
{
closed = 1;
nodes = (
(539,556,l),
(539,581,l),
(237,581,l),
(254,628,l),
(229,638,l),
(209,581,l),
(77,581,l),
(77,556,l),
(200,556,l),
(118,329,l),
(98,329,l),
(98,304,l),
(108,304,l),
(42,119,l),
(24,136,o),
(7,153,o),
(-9,173,c),
(-29,158,l),
(-10,135,o),
(9,112,o),
(33,92,c),
(2,4,l),
(25,-4,l),
(54,77,l),
(119,29,o),
(200,1,o),
(287,1,cs),
(363,1,o),
(437,22,o),
(498,61,c),
(483,83,l),
(427,48,o),
(359,26,o),
(287,26,cs),
(204,26,o),
(126,54,o),
(64,102,c),
(136,304,l),
(420,304,l),
(420,329,l),
(145,329,l),
(227,556,l)
);
}
);
};
hints = (
{
horizontal = 1;
place = (556,25);
type = Stem;
},
{
horizontal = 1;
place = (304,25);
type = Stem;
},
{
horizontal = 1;
place = (1,25);
type = Stem;
},
{
horizontal = 1;
place = (611,21);
target = up;
type = BottomGhost;
}
);
layerId = m005;
shapes = (
{
attr = {
lineCapEnd = 4;
lineCapStart = 4;
strokeWidth = 30;
};
closed = 0;
nodes = (
(196,314,l),
(440,314,l)
);
},
{
attr = {
lineCapEnd = 4;
lineCapStart = 4;
strokeWidth = 30;
};
closed = 0;
nodes = (
(282,574,l),
(526,574,l)
);
},
{
closed = 1;
nodes = (
(294,650,l),
(272,652,o),
(245,633,o),
(236,608,cs),
(25,0,l),
(43,-3,o),
(73,16,o),
(81,40,cs)
);
},
{
attr = {
lineCapEnd = 4;
lineCapStart = 4;
strokeWidth = 30;
};
closed = 0;
nodes = (
(17,168,l),
(33,139,o),
(71,79,o),
(147,41,c),
(224,0,o),
(307,9,o),
(361,19,c)
);
},
{
closed = 1;
nodes = (
(316,52,l),
(347,16,l),
(339,-30,l),
(424,37,l)
);
},
{
closed = 1;
nodes = (
(470,617,l),
(489,573,l),
(470,531,l),
(572,573,l)
);
},
{
closed = 1;
nodes = (
(391,357,l),
(410,313,l),
(391,271,l),
(493,313,l)
);
}
);
width = 601;
},
{
background = {
shapes = (
{
closed = 1;
nodes = (
(610,556,l),
(610,581,l),
(308,581,l),
(325,628,l),
(300,638,l),
(280,581,l),
(148,581,l),
(148,556,l),
(271,556,l),
(189,329,l),
(169,329,l),
(169,304,l),
(179,304,l),
(113,119,l),
(95,136,o),
(78,153,o),
(62,173,c),
(42,158,l),
(61,135,o),
(80,112,o),
(104,92,c),
(73,4,l),
(96,-4,l),
(125,77,l),
(190,29,o),
(271,1,o),
(358,1,cs),
(434,1,o),
(508,22,o),
(569,61,c),
(554,83,l),
(498,48,o),
(430,26,o),
(358,26,cs),
(275,26,o),
(197,54,o),
(135,102,c),
(207,304,l),
(491,304,l),
(491,329,l),
(216,329,l),
(298,556,l)
);
}
);
};
hints = (
{
horizontal = 1;
place = (556,25);
type = Stem;
},
{
horizontal = 1;
place = (304,25);
type = Stem;
},
{
horizontal = 1;
place = (1,25);
type = Stem;
},
{
horizontal = 1;
place = (611,21);
target = up;
type = BottomGhost;
}
);
layerId = m006;
shapes = (
{
attr = {
lineCapEnd = 4;
lineCapStart = 4;
strokeWidth = 30;
};
closed = 0;
nodes = (
(197,314,l),
(441,314,l)
);
},
{
attr = {
lineCapEnd = 4;
lineCapStart = 4;
strokeWidth = 30;
};
closed = 0;
nodes = (
(283,574,l),
(527,574,l)
);
},
{
closed = 1;
nodes = (
(325,650,l),
(303,652,o),
(276,633,o),
(267,608,cs),
(56,0,l),
(74,-3,o),
(104,16,o),
(112,40,cs)
);
},
{
attr = {
lineCapEnd = 4;
lineCapStart = 4;
strokeWidth = 30;
};
closed = 0;
nodes = (
(17,195,l),
(31,165,o),
(63,102,o),
(136,58,c),
(209,10,o),
(292,12,o),
(347,17,c)
);
},
{
closed = 1;
nodes = (
(305,54,l),
(333,15,l),
(321,-30,l),
(411,29,l)
);
},
{
closed = 1;
nodes = (
(471,617,l),
(490,573,l),
(471,531,l),
(573,573,l)
);
},
{
closed = 1;
nodes = (
(392,357,l),
(411,313,l),
(392,271,l),
(494,313,l)
);
}
);
width = 601;
}
);
note = E;
unicode = 69;
},
{
glyphname = F;
lastChange = "2024-11-10 23:50:21 +0000";
layers = (
{
background = {
shapes = (
{
closed = 1;
nodes = (
(519,556,l),
(519,582,l),
(214,582,l),
(231,628,l),
(206,638,l),
(186,582,l),
(57,582,l),
(57,556,l),
(177,556,l),
(93,321,l),
(72,309,o),
(53,293,o),
(37,276,c),
(57,259,l),
(64,265,o),
(70,273,o),
(78,280,c),
(-21,4,l),
(3,-4,l),
(114,304,l),
(143,319,o),
(177,327,o),
(213,327,cs),
(268,327,o),
(318,306,o),
(357,272,c),
(374,290,l),
(332,329,o),
(275,354,o),
(213,354,cs),
(182,354,o),
(153,347,o),
(126,337,c),
(205,556,l)
);
}
);
};
hints = (
{
horizontal = 1;
place = (555.72,26.4);
type = Stem;
},
{
horizontal = 1;
place = (327.36,26.4);
type = Stem;
},
{
horizontal = 1;
place = (611.16,21);
target = up;
type = BottomGhost;
}
);
layerId = m003;
shapes = (
{
closed = 1;
nodes = (
(269,650,l),
(247,652,o),
(220,633,o),
(211,608,cs),
(0,0,l),
(18,-3,o),
(48,16,o),
(56,40,cs)
);
},
{
attr = {
strokeWidth = 30;
};
closed = 0;
nodes = (
(201,314,l),
(445,314,l)
);
},
{
attr = {
strokeWidth = 30;
};
closed = 0;
nodes = (
(287,574,l),
(531,574,l)
);
},
{
closed = 1;
nodes = (
(475,617,l),
(494,573,l),
(475,531,l),
(577,573,l)
);
},
{
closed = 1;
nodes = (
(396,357,l),
(415,313,l),
(396,271,l),
(498,313,l)
);
}
);
width = 639;
},
{
background = {
shapes = (
{
closed = 1;
nodes = (
(519,556,l),
(519,582,l),
(214,582,l),
(231,628,l),
(206,638,l),
(186,582,l),
(57,582,l),
(57,556,l),
(177,556,l),
(93,321,l),
(72,309,o),
(53,293,o),
(37,276,c),
(57,259,l),
(64,265,o),
(70,273,o),
(78,280,c),
(-21,4,l),
(3,-4,l),
(114,304,l),
(143,319,o),
(177,327,o),
(213,327,cs),
(268,327,o),
(318,306,o),
(357,272,c),
(374,290,l),
(332,329,o),
(275,354,o),
(213,354,cs),
(182,354,o),
(153,347,o),
(126,337,c),
(205,556,l)
);
}
);
};
hints = (
{
horizontal = 1;
place = (555.72,26.4);
type = Stem;
},
{
horizontal = 1;
place = (327.36,26.4);
type = Stem;
},
{
horizontal = 1;
place = (611.16,21);
target = up;
type = BottomGhost;
}
);
layerId = m002;
shapes = (
{
closed = 1;
nodes = (
(269,650,l),
(247,652,o),
(220,633,o),
(211,608,cs),
(0,0,l),
(18,-3,o),
(48,16,o),
(56,40,cs)
);
},
{
attr = {
strokeWidth = 30;
};
closed = 0;
nodes = (
(231,314,l),
(475,314,l)
);
},
{
attr = {
strokeWidth = 30;
};
closed = 0;
nodes = (
(317,574,l),
(561,574,l)
);
},
{
closed = 1;
nodes = (
(505,617,l),
(524,573,l),
(505,531,l),
(607,573,l)
);
},
{
closed = 1;
nodes = (
(426,357,l),
(445,313,l),
(426,271,l),
(528,313,l)
);
}
);
width = 639;
},
{
background = {
shapes = (
{
closed = 1;
nodes = (
(519,556,l),
(519,582,l),
(214,582,l),
(231,628,l),
(206,638,l),
(186,582,l),
(57,582,l),
(57,556,l),
(177,556,l),
(93,321,l),
(72,309,o),
(53,293,o),
(37,276,c),
(57,259,l),
(64,265,o),
(70,273,o),
(78,280,c),
(-21,4,l),
(3,-4,l),
(114,304,l),
(143,319,o),
(177,327,o),
(213,327,cs),
(268,327,o),
(318,306,o),
(357,272,c),
(374,290,l),
(332,329,o),
(275,354,o),
(213,354,cs),
(182,354,o),
(153,347,o),
(126,337,c),
(205,556,l)
);
}
);
};
hints = (
{
horizontal = 1;
place = (555.72,26.4);
type = Stem;
},
{
horizontal = 1;
place = (327.36,26.4);
type = Stem;
},
{
horizontal = 1;
place = (611.16,21);
target = up;
type = BottomGhost;
}
);
layerId = m004;
shapes = (
{
closed = 1;
nodes = (
(269,650,l),
(247,652,o),
(220,633,o),
(211,608,cs),
(0,0,l),
(18,-3,o),
(48,16,o),
(56,40,cs)
);
},
{
attr = {
strokeWidth = 30;
};
closed = 0;
nodes = (
(261,314,l),
(505,314,l)
);
},
{
attr = {
strokeWidth = 30;
};
closed = 0;
nodes = (
(347,574,l),
(591,574,l)
);
},
{
closed = 1;
nodes = (
(535,617,l),
(554,573,l),
(535,531,l),
(637,573,l)
);
},
{
closed = 1;
nodes = (
(456,357,l),
(475,313,l),
(456,271,l),
(558,313,l)
);
}
);
width = 639;
},
{
background = {
shapes = (
{
closed = 1;
nodes = (
(519,556,l),
(519,582,l),
(214,582,l),
(231,628,l),
(206,638,l),
(186,582,l),
(57,582,l),
(57,556,l),
(177,556,l),
(93,321,l),
(72,309,o),
(53,293,o),
(37,276,c),
(57,259,l),
(64,265,o),
(70,273,o),
(78,280,c),
(-21,4,l),
(3,-4,l),
(114,304,l),
(143,319,o),
(177,327,o),
(213,327,cs),
(268,327,o),
(318,306,o),
(357,272,c),
(374,290,l),
(332,329,o),
(275,354,o),
(213,354,cs),
(182,354,o),
(153,347,o),
(126,337,c),
(205,556,l)
);
}
);
};
hints = (
{
horizontal = 1;
place = (555.72,26.4);
type = Stem;
},
{
horizontal = 1;
place = (327.36,26.4);
type = Stem;
},
{
horizontal = 1;
place = (611.16,21);
target = up;
type = BottomGhost;
}
);
layerId = m005;
shapes = (
{
closed = 1;
nodes = (
(269,650,l),
(247,652,o),
(220,633,o),
(211,608,cs),
(0,0,l),
(18,-3,o),
(48,16,o),
(56,40,cs)
);
},
{
attr = {
strokeWidth = 30;
};
closed = 0;
nodes = (
(171,314,l),
(415,314,l)
);
},
{
attr = {
strokeWidth = 30;
};
closed = 0;
nodes = (
(257,574,l),
(501,574,l)
);
},
{
closed = 1;
nodes = (
(445,617,l),
(464,573,l),
(445,531,l),
(547,573,l)
);
},
{
closed = 1;
nodes = (
(366,357,l),
(385,313,l),
(366,271,l),
(468,313,l)
);
}
);
width = 639;
},
{
background = {
shapes = (
{
closed = 1;
nodes = (
(519,556,l),
(519,582,l),
(214,582,l),
(231,628,l),
(206,638,l),
(186,582,l),
(57,582,l),
(57,556,l),
(177,556,l),
(93,321,l),
(72,309,o),
(53,293,o),
(37,276,c),
(57,259,l),
(64,265,o),
(70,273,o),
(78,280,c),
(-21,4,l),
(3,-4,l),
(114,304,l),
(143,319,o),
(177,327,o),
(213,327,cs),
(268,327,o),
(318,306,o),
(357,272,c),
(374,290,l),
(332,329,o),
(275,354,o),
(213,354,cs),
(182,354,o),
(153,347,o),
(126,337,c),
(205,556,l)
);
}
);
};
hints = (
{
horizontal = 1;
place = (555.72,26.4);
type = Stem;
},
{
horizontal = 1;
place = (327.36,26.4);
type = Stem;
},
{
horizontal = 1;
place = (611.16,21);
target = up;
type = BottomGhost;
}
);
layerId = m006;
shapes = (
{
closed = 1;
nodes = (
(269,650,l),
(247,652,o),
(220,633,o),
(211,608,cs),
(0,0,l),
(18,-3,o),
(48,16,o),
(56,40,cs)
);
},
{
attr = {
strokeWidth = 30;
};
closed = 0;
nodes = (
(141,314,l),
(385,314,l)
);
},
{
attr = {
strokeWidth = 30;
};
closed = 0;
nodes = (
(227,574,l),
(471,574,l)
);
},
{
closed = 1;
nodes = (
(415,617,l),
(434,573,l),
(415,531,l),
(517,573,l)
);
},
{
closed = 1;
nodes = (
(336,357,l),
(355,313,l),
(336,271,l),
(438,313,l)
);
}
);
width = 639;
}
);
note = F;
unicode = 70;
},
{
glyphname = G;
lastChange = "2024-11-10 23:51:14 +0000";
layers = (
{
background = {
shapes = (
{
closed = 1;
nodes = (
(89,290,o),
(113,343,o),
(151,381,c),
(132,400,l),
(90,356,o),
(65,298,o),
(65,234,cs),
(65,102,o),
(172,-5,o),
(304,-5,cs),
(369,-5,o),
(427,20,o),
(470,62,c),
(452,81,l),
(414,42,o),
(359,18,o),
(301,18,cs),
(184,18,o),
(89,114,o),
(89,231,cs)
);
},
{
closed = 1;
nodes = (
(250,552,o),
(293,560,o),
(340,560,cs),
(388,560,o),
(436,550,o),
(478,533,c),
(489,557,l),
(443,576,o),
(392,586,o),
(340,586,cs),
(185,586,o),
(52,498,o),
(-13,370,c),
(10,358,l),
(51,440,o),
(122,503,o),
(209,536,cs)
);
},
{
closed = 1;
nodes = (
(530,44,l),
(548,61,l),
(322,292,l),
(304,273,l)
);
}
);
};
hints = (
{
horizontal = 1;
place = (559.68,26.4);
type = Stem;
},
{
horizontal = 1;
place = (-5.28,23.76);
type = Stem;
},
{
place = (91.08,23.76);
type = Stem;
}
);
layerId = m003;
shapes = (
{
attr = {
lineCapEnd = "4";
lineCapStart = "4";
strokeWidth = 30;
};
closed = 0;
nodes = (
(224,493,l),
(33,429,o),
(-8,278,o),
(34,166,c),
(71,64,o),
(169,6,o),
(296,11,c)
);
},
{
attr = {
lineCapEnd = "4";
lineCapStart = "4";
strokeWidth = 30;
};
closed = 0;
nodes = (
(23,459,l),
(40,487,o),
(79,548,o),
(156,587,c),
(237,629,o),
(321,623,o),
(377,610,c)
);
},
{
closed = 1;
nodes = (
(357,661,l),
(363,614,l),
(331,577,l),
(444,588,l)
);
},
{
closed = 1;
nodes = (
(507,323,l),
(508,166,l),
(472,166,l),
(472,214,o),
(365,287,o),
(279,323,c),
(279,348,l)
);
},
{
closed = 1;
nodes = (
(266,54,l),
(285,10,l),
(265,-32,l),
(368,10,l)
);
}
);
width = 574;
},
{
background = {
shapes = (
{
closed = 1;
nodes = (
(68,290,o),
(92,343,o),
(130,381,c),
(111,400,l),
(69,356,o),
(44,298,o),
(44,234,cs),
(44,102,o),
(151,-5,o),
(283,-5,cs),
(348,-5,o),
(406,20,o),
(449,62,c),
(431,81,l),
(393,42,o),
(338,18,o),
(280,18,cs),
(163,18,o),
(68,114,o),
(68,231,cs)
);
},
{
closed = 1;
nodes = (
(229,552,o),
(272,560,o),
(319,560,cs),
(367,560,o),
(415,550,o),
(457,533,c),
(468,557,l),
(422,576,o),
(371,586,o),
(319,586,cs),
(164,586,o),
(31,498,o),
(-34,370,c),
(-11,358,l),
(30,440,o),
(101,503,o),
(188,536,cs)
);
},
{
closed = 1;
nodes = (
(509,44,l),
(527,61,l),
(301,292,l),
(283,273,l)
);
}
);
};
hints = (
{
horizontal = 1;
place = (559.68,26.4);
type = Stem;
},
{
horizontal = 1;
place = (-5.28,23.76);
type = Stem;
},
{
place = (91.08,23.76);
type = Stem;
}
);
layerId = m002;
shapes = (
{
attr = {
lineCapEnd = 4;
lineCapStart = 4;
strokeWidth = 30;
};
closed = 0;
nodes = (
(141,475,l),
(-16,350,o),
(-3,195,o),
(75,103,c),
(145,21,o),
(256,-1,o),
(374,47,c)
);
},
{
attr = {
lineCapEnd = 4;
lineCapStart = 4;
strokeWidth = 30;
};
closed = 0;
nodes = (
(47,496,l),
(69,521,o),
(117,574,o),
(200,599,c),
(288,627,o),
(369,606,o),
(421,584,c)
);
},
{
closed = 1;
nodes = (
(411,638,l),
(409,590,l),
(371,559,l),
(484,550,l)
);
},
{
closed = 1;
nodes = (
(486,323,l),
(487,166,l),
(451,166,l),
(451,214,o),
(344,287,o),
(258,323,c),
(258,348,l)
);
},
{
closed = 1;
nodes = (
(331,77,l),
(364,42,l),
(360,-3,l),
(442,70,l)
);
}
);
width = 574;
},
{
background = {
shapes = (
{
closed = 1;
nodes = (
(51,290,o),
(75,343,o),
(113,381,c),
(94,400,l),
(52,356,o),
(27,298,o),
(27,234,cs),
(27,102,o),
(134,-5,o),
(266,-5,cs),
(331,-5,o),
(389,20,o),
(432,62,c),
(414,81,l),
(376,42,o),
(321,18,o),
(263,18,cs),
(146,18,o),
(51,114,o),
(51,231,cs)
);
},
{
closed = 1;
nodes = (
(212,552,o),
(255,560,o),
(302,560,cs),
(350,560,o),
(398,550,o),
(440,533,c),
(451,557,l),
(405,576,o),
(354,586,o),
(302,586,cs),
(147,586,o),
(14,498,o),
(-51,370,c),
(-28,358,l),
(13,440,o),
(84,503,o),
(171,536,cs)
);
},
{
closed = 1;
nodes = (
(492,44,l),
(510,61,l),
(284,292,l),
(266,273,l)
);
}
);
};
hints = (
{
horizontal = 1;
place = (559.68,26.4);
type = Stem;
},
{
horizontal = 1;
place = (-5.28,23.76);
type = Stem;
},
{
place = (91.08,23.76);
type = Stem;
}
);
layerId = m004;
shapes = (
{
attr = {
lineCapEnd = "4";
lineCapStart = "4";
strokeWidth = 30;
};
closed = 0;
nodes = (
(72,424,l),
(-33,253,o),
(32,111,o),
(137,52,c),
(231,-2,o),
(343,16,o),
(437,101,c)
);
},
{
attr = {
lineCapEnd = "4";
lineCapStart = "4";
strokeWidth = 30;
};
closed = 0;
nodes = (
(55,505,l),
(79,528,o),
(131,577,o),
(216,595,c),
(306,615,o),
(385,587,o),
(435,560,c)
);
},
{
closed = 1;
nodes = (
(430,615,l),
(423,567,l),
(383,540,l),
(495,521,l)
);
},
{
closed = 1;
nodes = (
(469,323,l),
(470,166,l),
(434,166,l),
(434,214,o),
(327,287,o),
(241,323,c),
(241,348,l)
);
},
{
closed = 1;
nodes = (
(386,115,l),
(429,93,l),
(441,49,l),
(493,146,l)
);
}
);
width = 574;
},
{
background = {
shapes = (
{
closed = 1;
nodes = (
(107,290,o),
(131,343,o),
(169,381,c),
(150,400,l),
(108,356,o),
(83,298,o),
(83,234,cs),
(83,102,o),
(190,-5,o),
(322,-5,cs),
(387,-5,o),
(445,20,o),
(488,62,c),
(470,81,l),
(432,42,o),
(377,18,o),
(319,18,cs),
(202,18,o),
(107,114,o),
(107,231,cs)
);
},
{
closed = 1;
nodes = (
(268,552,o),
(311,560,o),
(358,560,cs),
(406,560,o),
(454,550,o),
(496,533,c),
(507,557,l),
(461,576,o),
(410,586,o),
(358,586,cs),
(203,586,o),
(70,498,o),
(5,370,c),
(28,358,l),
(69,440,o),
(140,503,o),
(227,536,cs)
);
},
{
closed = 1;
nodes = (
(548,44,l),
(566,61,l),
(340,292,l),
(322,273,l)
);
}
);
};
hints = (
{
horizontal = 1;
place = (559.68,26.4);
type = Stem;
},
{
horizontal = 1;
place = (-5.28,23.76);
type = Stem;
},
{
place = (91.08,23.76);
type = Stem;
}
);
layerId = m005;
shapes = (
{
attr = {
lineCapEnd = "4";
lineCapStart = "4";
strokeWidth = 30;
};
closed = 0;
nodes = (
(319,492,l),
(118,497,o),
(28,369,o),
(29,250,c),
(29,141,o),
(101,53,o),
(222,15,c)
);
},
{
attr = {
lineCapEnd = "4";
lineCapStart = "4";
strokeWidth = 30;
};
closed = 0;
nodes = (
(21,431,l),
(35,460,o),
(69,525,o),
(142,570,c),
(219,619,o),
(303,620,o),
(360,612,c)
);
},
{
closed = 1;
nodes = (
(336,661,l),
(346,615,l),
(317,575,l),
(429,596,l)
);
},
{
closed = 1;
nodes = (
(525,323,l),
(526,166,l),
(490,166,l),
(490,214,o),
(383,287,o),
(297,323,c),
(297,348,l)
);
},
{
closed = 1;
nodes = (
(208,65,l),
(211,17,l),
(178,-15,l),
(289,-11,l)
);
}
);
width = 574;
},
{
background = {
shapes = (
{
closed = 1;
nodes = (
(115,290,o),
(139,343,o),
(177,381,c),
(158,400,l),
(116,356,o),
(91,298,o),
(91,234,cs),
(91,102,o),
(198,-5,o),
(330,-5,cs),
(395,-5,o),
(453,20,o),
(496,62,c),
(478,81,l),
(440,42,o),
(385,18,o),
(327,18,cs),
(210,18,o),
(115,114,o),
(115,231,cs)
);
},
{
closed = 1;
nodes = (
(276,552,o),
(319,560,o),
(366,560,cs),
(414,560,o),
(462,550,o),
(504,533,c),
(515,557,l),
(469,576,o),
(418,586,o),
(366,586,cs),
(211,586,o),
(78,498,o),
(13,370,c),
(36,358,l),
(77,440,o),
(148,503,o),
(235,536,cs)
);
},
{
closed = 1;
nodes = (
(556,44,l),
(574,61,l),
(348,292,l),
(330,273,l)
);
}
);
};
hints = (
{
horizontal = 1;
place = (559.68,26.4);
type = Stem;
},
{
horizontal = 1;
place = (-5.28,23.76);
type = Stem;
},
{
place = (91.08,23.76);
type = Stem;
}
);
layerId = m006;
shapes = (
{
attr = {
lineCapEnd = 4;
lineCapStart = 4;
strokeWidth = 30;
};
closed = 0;
nodes = (
(414,467,l),
(227,541,o),
(99,451,o),
(59,339,c),
(22,236,o),
(59,129,o),
(160,52,c)
);
},
{
attr = {
lineCapEnd = 4;
lineCapStart = 4;
strokeWidth = 30;
};
closed = 0;
nodes = (
(20,394,l),
(31,424,o),
(59,491,o),
(128,543,c),
(201,598,o),
(284,607,o),
(342,604,c)
);
},
{
closed = 1;
nodes = (
(314,650,l),
(328,605,l),
(302,563,l),
(412,594,l)
);
},
{
closed = 1;
nodes = (
(533,323,l),
(534,166,l),
(498,166,l),
(498,214,o),
(391,287,o),
(305,323,c),
(305,348,l)
);
},
{
closed = 1;
nodes = (
(164,104,l),
(150,58,l),
(108,39,l),
(214,5,l)
);
}
);
width = 574;
}
);
note = G;
unicode = 71;
},
{
glyphname = H;
lastChange = "2024-11-10 23:51:35 +0000";
layers = (
{
background = {
shapes = (
{
closed = 1;
nodes = (
(271,632,l),
(246,640,l),
(184,466,l),
(81,458,o),
(-1,371,o),
(-1,265,cs),
(-1,209,o),
(22,158,o),
(60,121,c),
(19,7,l),
(43,-1,l),
(202,441,l),
(298,440,o),
(375,362,o),
(375,265,cs),
(375,247,o),
(371,230,o),
(366,213,cs),
(292,7,l),
(316,-1,l),
(390,203,ls),
(436,330,o),
(482,458,o),
(529,585,c),
(505,594,l),
(398,298,l),
(382,392,o),
(304,461,o),
(210,466,c)
);
},
{
closed = 1;
nodes = (
(69,148,l),
(43,177,o),
(24,214,o),
(24,265,cs),
(24,352,o),
(86,425,o),
(173,438,c)
);
}
);
};
hints = (
{
horizontal = 1;
place = (440.88,25.08);
type = Stem;
},
{
horizontal = 1;
place = (-1.32,21);
target = up;
type = BottomGhost;
},
{
place = (13.2,25.08);
type = Stem;
}
);
layerId = m003;
shapes = (
{
closed = 1;
nodes = (
(269,650,l),
(247,652,o),
(220,633,o),
(211,608,cs),
(0,0,l),
(18,-3,o),
(48,16,o),
(56,40,cs)
);
},
{
closed = 1;
nodes = (
(529,650,l),
(507,652,o),
(480,633,o),
(471,608,cs),
(260,0,l),
(278,-3,o),
(308,16,o),
(316,40,cs)
);
},
{
attr = {
lineCapEnd = "4";
lineCapStart = "4";
strokeWidth = 30;
};
closed = 0;
nodes = (
(180,287,l),
(203,313,o),
(256,360,o),
(338,376,c),
(424,397,o),
(503,366,o),
(550,344,c)
);
},
{
closed = 1;
nodes = (
(543,397,l),
(538,350,l),
(500,323,l),
(609,309,l)
);
}
);
width = 670;
},
{
background = {
shapes = (
{
closed = 1;
nodes = (
(271,632,l),
(246,640,l),
(184,466,l),
(81,458,o),
(-1,371,o),
(-1,265,cs),
(-1,209,o),
(22,158,o),
(60,121,c),
(19,7,l),
(43,-1,l),
(202,441,l),
(298,440,o),
(375,362,o),
(375,265,cs),
(375,247,o),
(371,230,o),
(366,213,cs),
(292,7,l),
(316,-1,l),
(390,203,ls),
(436,330,o),
(482,458,o),
(529,585,c),
(505,594,l),
(398,298,l),
(382,392,o),
(304,461,o),
(210,466,c)
);
},
{
closed = 1;
nodes = (
(69,148,l),
(43,177,o),
(24,214,o),
(24,265,cs),
(24,352,o),
(86,425,o),
(173,438,c)
);
}
);
};
hints = (
{
horizontal = 1;
place = (440.88,25.08);
type = Stem;
},
{
horizontal = 1;
place = (-1.32,21);
target = up;
type = BottomGhost;
},
{
place = (13.2,25.08);
type = Stem;
}
);
layerId = m002;
shapes = (
{
closed = 1;
nodes = (
(269,650,l),
(247,652,o),
(220,633,o),
(211,608,cs),
(0,0,l),
(18,-3,o),
(48,16,o),
(56,40,cs)
);
},
{
closed = 1;
nodes = (
(529,650,l),
(507,652,o),
(480,633,o),
(471,608,cs),
(260,0,l),
(278,-3,o),
(308,16,o),
(316,40,cs)
);
},
{
attr = {
lineCapEnd = "4";
lineCapStart = "4";
strokeWidth = 30;
};
closed = 0;
nodes = (
(196,306,l),
(221,330,o),
(278,372,o),
(361,381,c),
(449,394,o),
(525,356,o),
(570,330,c)
);
},
{
closed = 1;
nodes = (
(567,384,l),
(558,337,l),
(518,314,l),
(625,290,l)
);
}
);
width = 670;
},
{
background = {
shapes = (
{
closed = 1;
nodes = (
(271,632,l),
(246,640,l),
(184,466,l),
(81,458,o),
(-1,371,o),
(-1,265,cs),
(-1,209,o),
(22,158,o),
(60,121,c),
(19,7,l),
(43,-1,l),
(202,441,l),
(298,440,o),
(375,362,o),
(375,265,cs),
(375,247,o),
(371,230,o),
(366,213,cs),
(292,7,l),
(316,-1,l),
(390,203,ls),
(436,330,o),
(482,458,o),
(529,585,c),
(505,594,l),
(398,298,l),
(382,392,o),
(304,461,o),
(210,466,c)
);
},
{
closed = 1;
nodes = (
(69,148,l),
(43,177,o),
(24,214,o),
(24,265,cs),
(24,352,o),
(86,425,o),
(173,438,c)
);
}
);
};
hints = (
{
horizontal = 1;
place = (440.88,25.08);
type = Stem;
},
{
horizontal = 1;
place = (-1.32,21);
target = up;
type = BottomGhost;
},
{
place = (13.2,25.08);
type = Stem;
}
);
layerId = m004;
shapes = (
{
closed = 1;
nodes = (
(269,650,l),
(247,652,o),
(220,633,o),
(211,608,cs),
(0,0,l),
(18,-3,o),
(48,16,o),
(56,40,cs)
);
},
{
closed = 1;
nodes = (
(529,650,l),
(507,652,o),
(480,633,o),
(471,608,cs),
(260,0,l),
(278,-3,o),
(308,16,o),
(316,40,cs)
);
},
{
attr = {
lineCapEnd = "4";
lineCapStart = "4";
strokeWidth = 30;
};
closed = 0;
nodes = (
(224,325,l),
(251,347,o),
(311,383,o),
(395,385,c),
(483,390,o),
(556,346,o),
(598,316,c)
);
},
{
closed = 1;
nodes = (
(600,370,l),
(587,324,l),
(545,305,l),
(650,272,l)
);
}
);
width = 670;
},
{
background = {
shapes = (
{
closed = 1;
nodes = (
(271,632,l),
(246,640,l),
(184,466,l),
(81,458,o),
(-1,371,o),
(-1,265,cs),
(-1,209,o),
(22,158,o),
(60,121,c),
(19,7,l),
(43,-1,l),
(202,441,l),
(298,440,o),
(375,362,o),
(375,265,cs),
(375,247,o),
(371,230,o),
(366,213,cs),
(292,7,l),
(316,-1,l),
(390,203,ls),
(436,330,o),
(482,458,o),
(529,585,c),
(505,594,l),
(398,298,l),
(382,392,o),
(304,461,o),
(210,466,c)
);
},
{
closed = 1;
nodes = (
(69,148,l),
(43,177,o),
(24,214,o),
(24,265,cs),
(24,352,o),
(86,425,o),
(173,438,c)
);
}
);
};
hints = (
{
horizontal = 1;
place = (440.88,25.08);
type = Stem;
},
{
horizontal = 1;
place = (-1.32,21);
target = up;
type = BottomGhost;
},
{
place = (13.2,25.08);
type = Stem;
}
);
layerId = m005;
shapes = (
{
closed = 1;
nodes = (
(269,650,l),
(247,652,o),
(220,633,o),
(211,608,cs),
(0,0,l),
(18,-3,o),
(48,16,o),
(56,40,cs)
);
},
{
closed = 1;
nodes = (
(529,650,l),
(507,652,o),
(480,633,o),
(471,608,cs),
(260,0,l),
(278,-3,o),
(308,16,o),
(316,40,cs)
);
},
{
attr = {
lineCapEnd = "4";
lineCapStart = "4";
strokeWidth = 30;
};
closed = 0;
nodes = (
(156,269,l),
(176,296,o),
(225,348,o),
(305,371,c),
(389,399,o),
(470,375,o),
(519,358,c)
);
},
{
closed = 1;
nodes = (
(508,410,l),
(507,362,l),
(471,332,l),
(581,328,l)
);
}
);
width = 670;
},
{
background = {
shapes = (
{
closed = 1;
nodes = (
(271,632,l),
(246,640,l),
(184,466,l),
(81,458,o),
(-1,371,o),
(-1,265,cs),
(-1,209,o),
(22,158,o),
(60,121,c),
(19,7,l),
(43,-1,l),
(202,441,l),
(298,440,o),
(375,362,o),
(375,265,cs),
(375,247,o),
(371,230,o),
(366,213,cs),
(292,7,l),
(316,-1,l),
(390,203,ls),
(436,330,o),
(482,458,o),
(529,585,c),
(505,594,l),
(398,298,l),
(382,392,o),
(304,461,o),
(210,466,c)
);
},
{
closed = 1;
nodes = (
(69,148,l),
(43,177,o),
(24,214,o),
(24,265,cs),
(24,352,o),
(86,425,o),
(173,438,c)
);
}
);
};
hints = (
{
horizontal = 1;
place = (440.88,25.08);
type = Stem;
},
{
horizontal = 1;
place = (-1.32,21);
target = up;
type = BottomGhost;
},
{
place = (13.2,25.08);
type = Stem;
}
);
layerId = m006;
shapes = (
{
closed = 1;
nodes = (
(269,650,l),
(247,652,o),
(220,633,o),
(211,608,cs),
(0,0,l),
(18,-3,o),
(48,16,o),
(56,40,cs)
);
},
{
closed = 1;
nodes = (
(529,650,l),
(507,652,o),
(480,633,o),
(471,608,cs),
(260,0,l),
(278,-3,o),
(308,16,o),
(316,40,cs)
);
},
{
attr = {
lineCapEnd = "4";
lineCapStart = "4";
strokeWidth = 30;
};
closed = 0;
nodes = (
(133,251,l),
(151,279,o),
(195,335,o),
(272,365,c),
(354,401,o),
(437,384,o),
(487,371,c)
);
},
{
closed = 1;
nodes = (
(471,422,l),
(475,374,l),
(441,341,l),
(551,347,l)
);
}
);
width = 670;
}
);
note = H;
unicode = 72;
},
{
glyphname = I;
lastChange = "2024-11-10 23:52:43 +0000";
layers = (
{
hints = (
{
horizontal = 1;
place = (641.52,75.24);
type = Stem;
},
{
horizontal = 1;
place = (0,21);
target = up;
type = BottomGhost;
},
{
place = (215.16,75.24);
type = Stem;
}
);
layerId = m003;
shapes = (
{
closed = 1;
nodes = (
(235,655,l),
(232,657,o),
(231,660,o),
(229,661,c),
(225,661,o),
(208,661,o),
(208,661,c),
(206,661,o),
(206,665,o),
(208,665,c),
(208,665,o),
(225,668,o),
(226,668,c),
(229,668,o),
(231,667,o),
(235,665,c)
);
},
{
closed = 1;
nodes = (
(229,645,o),
(229,648,o),
(226,648,c),
(225,652,o),
(206,657,o),
(206,658,c),
(206,658,o),
(206,660,o),
(206,660,c),
(208,661,o),
(221,658,o),
(225,658,c),
(229,657,o),
(229,655,o),
(231,652,c),
(232,652,o),
(234,652,o),
(234,652,c),
(235,650,o),
(231,644,o),
(229,644,c)
);
},
{
closed = 1;
nodes = (
(221,633,l),
(218,635,o),
(221,637,o),
(219,641,c),
(218,644,o),
(204,655,o),
(204,655,c),
(204,655,o),
(205,657,o),
(205,657,c),
(206,657,o),
(221,648,o),
(225,647,c),
(225,645,o),
(225,643,o),
(226,640,c)
);
},
{
closed = 1;
nodes = (
(208,627,l),
(208,630,o),
(209,631,o),
(209,633,c),
(209,637,o),
(199,654,o),
(201,655,c),
(201,655,o),
(202,655,o),
(202,655,c),
(204,655,o),
(214,644,o),
(214,643,c),
(218,637,o),
(218,635,o),
(218,631,c)
);
},
{
closed = 1;
nodes = (
(205,630,o),
(204,627,o),
(202,627,c),
(201,627,o),
(195,624,o),
(195,627,c),
(194,627,o),
(199,630,o),
(199,631,c),
(199,637,o),
(195,645,o),
(195,652,c),
(195,655,o),
(199,654,o),
(199,654,c),
(201,645,o),
(206,637,o),
(205,631,c)
);
},
{
closed = 1;
nodes = (
(188,627,o),
(182,628,o),
(181,628,c),
(182,630,o),
(184,630,o),
(186,633,c),
(189,634,o),
(189,648,o),
(192,654,c),
(194,655,o),
(195,652,o),
(195,650,c),
(195,645,o),
(195,634,o),
(194,631,c),
(194,631,o),
(189,627,o),
(189,627,c)
);
},
{
closed = 1;
nodes = (
(169,635,l),
(175,637,o),
(177,637,o),
(178,641,c),
(181,644,o),
(188,655,o),
(189,655,c),
(189,655,o),
(191,655,o),
(191,655,c),
(191,655,o),
(188,643,o),
(186,641,c),
(184,634,o),
(182,633,o),
(177,631,c)
);
},
{
closed = 1;
nodes = (
(165,641,o),
(161,647,o),
(161,647,c),
(162,647,o),
(167,645,o),
(169,647,c),
(174,648,o),
(186,660,o),
(188,658,c),
(188,658,o),
(188,657,o),
(188,655,c),
(186,655,o),
(178,644,o),
(175,643,c),
(174,641,o),
(167,637,o),
(167,641,c)
);
},
{
closed = 1;
nodes = (
(158,652,o),
(157,660,o),
(157,660,c),
(158,660,o),
(162,657,o),
(165,657,c),
(168,657,o),
(184,662,o),
(186,662,c),
(186,662,o),
(186,661,o),
(186,660,c),
(178,657,o),
(171,648,o),
(165,650,c),
(164,650,o),
(161,650,o),
(161,652,c)
);
},
{
closed = 1;
nodes = (
(158,672,l),
(161,672,o),
(161,671,o),
(162,670,c),
(167,667,o),
(184,668,o),
(186,667,c),
(186,667,o),
(186,665,o),
(186,665,c),
(184,665,o),
(168,661,o),
(167,660,c),
(164,660,o),
(158,661,o),
(157,665,c)
);
},
{
closed = 1;
nodes = (
(165,684,o),
(165,681,o),
(167,680,c),
(169,678,o),
(186,671,o),
(188,671,c),
(188,671,o),
(186,668,o),
(186,668,c),
(184,668,o),
(168,671,o),
(167,671,c),
(165,672,o),
(161,675,o),
(161,680,c),
(161,680,o),
(164,685,o),
(164,685,c)
);
},
{
closed = 1;
nodes = (
(171,685,o),
(182,681,o),
(189,674,c),
(189,672,o),
(189,671,o),
(186,672,c),
(182,672,o),
(169,681,o),
(168,684,c),
(165,691,o),
(167,692,o),
(174,695,c)
);
},
{
closed = 1;
nodes = (
(179,692,o),
(189,684,o),
(192,675,c),
(194,674,o),
(191,674,o),
(189,674,c),
(186,678,o),
(178,688,o),
(178,692,c),
(177,701,o),
(178,701,o),
(186,701,c)
);
},
{
closed = 1;
nodes = (
(199,704,l),
(199,704,o),
(195,701,o),
(195,700,c),
(192,695,o),
(196,681,o),
(196,675,c),
(195,674,o),
(195,674,o),
(194,675,c),
(194,678,o),
(188,692,o),
(188,695,c),
(188,695,o),
(189,704,o),
(189,704,c)
);
},
{
closed = 1;
nodes = (
(189,661,o),
(191,668,o),
(195,670,c),
(204,671,o),
(204,657,o),
(194,660,c)
);
},
{
closed = 1;
nodes = (
(204,704,o),
(214,701,o),
(214,701,c),
(214,701,o),
(208,698,o),
(206,697,c),
(204,695,o),
(202,681,o),
(201,674,c),
(199,675,l),
(199,684,o),
(195,691,o),
(199,697,c),
(199,698,o),
(202,704,o),
(204,704,c)
);
},
{
closed = 1;
nodes = (
(225,694,l),
(221,692,o),
(219,692,o),
(218,692,c),
(214,691,o),
(206,678,o),
(205,672,c),
(204,672,o),
(202,672,o),
(202,674,c),
(202,675,o),
(206,691,o),
(208,692,c),
(209,695,o),
(214,697,o),
(218,698,c)
);
},
{
closed = 1;
nodes = (
(228,691,o),
(231,684,o),
(231,682,c),
(231,682,o),
(226,684,o),
(225,684,c),
(219,681,o),
(214,672,o),
(206,671,c),
(205,670,o),
(205,671,o),
(206,672,c),
(206,675,o),
(218,687,o),
(219,688,c),
(219,691,o),
(226,691,o),
(226,691,c)
);
},
{
closed = 1;
nodes = (
(235,670,l),
(232,670,o),
(231,672,o),
(229,672,c),
(225,672,o),
(215,667,o),
(208,667,c),
(206,667,o),
(206,668,o),
(208,670,c),
(209,671,o),
(221,678,o),
(222,680,c),
(226,680,o),
(229,680,o),
(234,680,c)
);
},
{
closed = 1;
nodes = (
(189,734,o),
(128,680,o),
(165,635,c),
(202,594,o),
(268,652,o),
(228,694,c)
);
},
{
attr = {
strokeWidth = 7;
};
closed = 1;
nodes = (
(242,640,o),
(221,618,o),
(195,618,c),
(169,618,o),
(149,640,o),
(149,665,c),
(149,691,o),
(169,711,o),
(195,711,c),
(221,711,o),
(242,691,o),
(242,665,c)
);
},
{
closed = 1;
nodes = (
(217,510,l),
(199,511,o),
(169,496,o),
(163,477,cs),
(-5,0,l),
(9,-3,o),
(42,11,o),
(48,31,cs)
);
}
);
width = 311;
},
{
hints = (
{
horizontal = 1;
place = (641.52,75.24);
type = Stem;
},
{
horizontal = 1;
place = (0,21);
target = up;
type = BottomGhost;
},
{
place = (215.16,75.24);
type = Stem;
}
);
layerId = m002;
shapes = (
{
closed = 1;
nodes = (
(253,649,l),
(250,651,o),
(250,654,o),
(248,656,c),
(244,656,o),
(228,659,o),
(228,659,c),
(226,659,o),
(226,663,o),
(228,663,c),
(228,663,o),
(245,663,o),
(246,663,c),
(249,662,o),
(251,661,o),
(255,658,c)
);
},
{
closed = 1;
nodes = (
(245,640,o),
(246,643,o),
(243,643,c),
(243,647,o),
(225,656,o),
(225,657,c),
(225,657,o),
(225,659,o),
(225,659,c),
(228,659,o),
(240,654,o),
(244,653,c),
(248,652,o),
(247,650,o),
(249,646,c),
(250,646,o),
(252,646,o),
(252,646,c),
(252,644,o),
(247,638,o),
(245,639,c)
);
},
{
closed = 1;
nodes = (
(235,629,l),
(233,632,o),
(236,633,o),
(235,638,c),
(234,641,o),
(223,654,o),
(223,654,c),
(223,654,o),
(224,656,o),
(224,656,c),
(225,656,o),
(238,644,o),
(242,642,c),
(241,640,o),
(241,638,o),
(242,635,c)
);
},
{
closed = 1;
nodes = (
(222,626,l),
(222,629,o),
(223,629,o),
(224,631,c),
(224,635,o),
(217,654,o),
(220,654,c),
(220,654,o),
(221,654,o),
(221,654,c),
(223,654,o),
(230,641,o),
(230,640,c),
(233,634,o),
(233,632,o),
(232,628,c)
);
},
{
closed = 1;
nodes = (
(219,629,o),
(218,626,o),
(216,627,c),
(215,627,o),
(208,625,o),
(209,628,c),
(208,628,o),
(213,630,o),
(213,631,c),
(214,637,o),
(212,646,o),
(213,653,c),
(214,655,o),
(217,654,o),
(217,654,c),
(218,645,o),
(221,636,o),
(219,630,c)
);
},
{
closed = 1;
nodes = (
(202,629,o),
(196,631,o),
(195,631,c),
(197,633,o),
(198,633,o),
(201,635,c),
(204,636,o),
(207,650,o),
(211,655,c),
(213,656,o),
(213,653,o),
(213,651,c),
(212,646,o),
(210,635,o),
(209,632,c),
(209,632,o),
(203,629,o),
(203,629,c)
);
},
{
closed = 1;
nodes = (
(185,640,l),
(191,641,o),
(193,641,o),
(194,645,c),
(198,647,o),
(207,657,o),
(208,657,c),
(208,657,o),
(210,656,o),
(210,656,c),
(210,656,o),
(205,645,o),
(202,643,c),
(199,637,o),
(197,636,o),
(192,635,c)
);
},
{
closed = 1;
nodes = (
(182,647,o),
(179,654,o),
(179,654,c),
(180,653,o),
(184,651,o),
(187,652,c),
(192,652,o),
(206,662,o),
(207,660,c),
(207,660,o),
(207,659,o),
(207,657,c),
(205,657,o),
(195,648,o),
(192,647,c),
(191,645,o),
(183,643,o),
(184,647,c)
);
},
{
closed = 1;
nodes = (
(177,659,o),
(177,667,o),
(177,667,c),
(178,667,o),
(182,663,o),
(184,663,c),
(187,662,o),
(204,664,o),
(206,664,c),
(206,664,o),
(206,663,o),
(206,662,c),
(197,660,o),
(189,653,o),
(183,656,c),
(182,656,o),
(179,656,o),
(180,658,c)
);
},
{
closed = 1;
nodes = (
(180,679,l),
(183,678,o),
(183,677,o),
(184,676,c),
(188,672,o),
(205,670,o),
(207,669,c),
(207,669,o),
(207,667,o),
(207,667,c),
(205,667,o),
(188,666,o),
(187,665,c),
(184,666,o),
(178,668,o),
(178,672,c)
);
},
{
closed = 1;
nodes = (
(189,689,o),
(189,686,o),
(190,685,c),
(192,683,o),
(208,673,o),
(210,672,c),
(210,672,o),
(207,670,o),
(207,670,c),
(205,670,o),
(190,676,o),
(189,676,c),
(187,677,o),
(184,681,o),
(185,686,c),
(185,686,o),
(188,690,o),
(188,690,c)
);
},
{
closed = 1;
nodes = (
(195,689,o),
(205,683,o),
(211,675,c),
(211,673,o),
(211,672,o),
(208,674,c),
(204,674,o),
(193,686,o),
(192,689,c),
(190,696,o),
(193,697,o),
(200,699,c)
);
},
{
closed = 1;
nodes = (
(204,695,o),
(213,685,o),
(214,676,c),
(216,674,o),
(213,675,o),
(211,675,c),
(209,680,o),
(203,691,o),
(203,695,c),
(204,704,o),
(205,704,o),
(213,702,c)
);
},
{
closed = 1;
nodes = (
(226,703,l),
(226,703,o),
(222,701,o),
(221,700,c),
(218,695,o),
(219,681,o),
(218,675,c),
(217,674,o),
(217,674,o),
(216,675,c),
(217,678,o),
(213,693,o),
(214,696,c),
(214,696,o),
(216,705,o),
(216,705,c)
);
},
{
closed = 1;
nodes = (
(209,662,o),
(212,669,o),
(216,670,c),
(225,670,o),
(223,656,o),
(214,661,c)
);
},
{
closed = 1;
nodes = (
(231,702,o),
(240,698,o),
(240,698,c),
(240,698,o),
(234,696,o),
(232,695,c),
(229,693,o),
(225,680,o),
(223,673,c),
(221,675,l),
(223,683,o),
(220,691,o),
(225,696,c),
(225,697,o),
(229,703,o),
(231,702,c)
);
},
{
closed = 1;
nodes = (
(250,689,l),
(246,687,o),
(244,688,o),
(243,688,c),
(239,688,o),
(228,676,o),
(226,671,c),
(225,671,o),
(224,671,o),
(224,673,c),
(224,674,o),
(231,689,o),
(233,690,c),
(234,692,o),
(240,694,o),
(244,694,c)
);
},
{
closed = 1;
nodes = (
(252,685,o),
(254,678,o),
(254,676,c),
(254,676,o),
(249,679,o),
(248,679,c),
(242,677,o),
(235,669,o),
(227,669,c),
(226,669,o),
(226,670,o),
(227,670,c),
(228,673,o),
(242,683,o),
(243,684,c),
(244,687,o),
(250,686,o),
(250,686,c)
);
},
{
closed = 1;
nodes = (
(256,663,l),
(253,664,o),
(252,666,o),
(250,666,c),
(246,667,o),
(235,664,o),
(229,665,c),
(227,665,o),
(227,666,o),
(229,668,c),
(230,669,o),
(243,674,o),
(245,675,c),
(249,675,o),
(251,674,o),
(256,673,c)
);
},
{
closed = 1;
nodes = (
(221,734,o),
(152,692,o),
(181,641,c),
(210,594,o),
(285,640,o),
(253,688,c)
);
},
{
attr = {
strokeWidth = 7;
};
closed = 1;
nodes = (
(257,633,o),
(233,615,o),
(207,619,c),
(182,624,o),
(166,649,o),
(170,673,c),
(175,699,o),
(198,715,o),
(223,711,c),
(249,706,o),
(266,683,o),
(262,657,c)
);
},
{
closed = 1;
nodes = (
(217,510,l),
(199,511,o),
(169,496,o),
(163,477,cs),
(-5,0,l),
(9,-3,o),
(42,11,o),
(48,31,cs)
);
}
);
width = 311;
},
{
hints = (
{
horizontal = 1;
place = (641.52,75.24);
type = Stem;
},
{
horizontal = 1;
place = (0,21);
target = up;
type = BottomGhost;
},
{
place = (215.16,75.24);
type = Stem;
}
);
layerId = m004;
shapes = (
{
closed = 1;
nodes = (
(270,643,l),
(267,646,o),
(268,649,o),
(266,651,c),
(262,652,o),
(247,657,o),
(247,657,c),
(245,658,o),
(246,662,o),
(248,661,c),
(248,661,o),
(265,658,o),
(266,658,c),
(268,657,o),
(270,655,o),
(274,652,c)
);
},
{
closed = 1;
nodes = (
(261,636,o),
(262,639,o),
(259,639,c),
(260,643,o),
(244,655,o),
(244,656,c),
(244,656,o),
(244,658,o),
(244,658,c),
(247,657,o),
(258,650,o),
(262,649,c),
(266,647,o),
(264,645,o),
(266,641,c),
(267,641,o),
(269,640,o),
(269,640,c),
(268,639,o),
(262,633,o),
(260,635,c)
);
},
{
closed = 1;
nodes = (
(249,627,l),
(247,630,o),
(251,630,o),
(250,636,c),
(250,639,o),
(241,653,o),
(241,653,c),
(241,653,o),
(243,655,o),
(243,655,c),
(244,655,o),
(254,641,o),
(258,638,c),
(257,636,o),
(256,635,o),
(257,631,c)
);
},
{
closed = 1;
nodes = (
(236,626,l),
(236,629,o),
(237,629,o),
(238,631,c),
(239,635,o),
(235,654,o),
(238,654,c),
(238,654,o),
(239,654,o),
(239,654,c),
(241,653,o),
(246,639,o),
(246,638,c),
(248,632,o),
(247,630,o),
(246,626,c)
);
},
{
closed = 1;
nodes = (
(233,629,o),
(232,627,o),
(230,628,c),
(229,628,o),
(222,627,o),
(223,630,c),
(222,630,o),
(227,631,o),
(228,632,c),
(230,638,o),
(229,647,o),
(231,654,c),
(233,656,o),
(235,654,o),
(235,654,c),
(235,645,o),
(236,636,o),
(233,630,c)
);
},
{
closed = 1;
nodes = (
(216,632,o),
(211,635,o),
(210,636,c),
(212,637,o),
(213,637,o),
(216,638,c),
(220,639,o),
(225,652,o),
(230,656,c),
(232,657,o),
(231,654,o),
(231,652,c),
(229,647,o),
(225,637,o),
(224,634,c),
(224,634,o),
(217,632,o),
(217,632,c)
);
},
{
closed = 1;
nodes = (
(202,646,l),
(208,646,o),
(210,646,o),
(211,650,c),
(216,651,o),
(226,659,o),
(227,659,c),
(227,659,o),
(229,658,o),
(229,658,c),
(229,658,o),
(222,648,o),
(219,646,c),
(215,641,o),
(213,640,o),
(208,640,c)
);
},
{
closed = 1;
nodes = (
(200,654,o),
(198,661,o),
(198,661,c),
(199,660,o),
(202,657,o),
(206,658,c),
(210,657,o),
(226,664,o),
(227,662,c),
(227,662,o),
(226,661,o),
(226,659,c),
(224,659,o),
(213,652,o),
(210,652,c),
(208,650,o),
(200,649,o),
(202,653,c)
);
},
{
closed = 1;
nodes = (
(197,666,o),
(198,674,o),
(198,674,c),
(199,674,o),
(203,669,o),
(205,669,c),
(207,668,o),
(224,667,o),
(226,666,c),
(226,666,o),
(226,665,o),
(226,664,c),
(217,664,o),
(208,658,o),
(202,662,c),
(201,662,o),
(198,663,o),
(200,665,c)
);
},
{
closed = 1;
nodes = (
(203,685,l),
(206,684,o),
(206,683,o),
(207,682,c),
(210,677,o),
(226,672,o),
(228,671,c),
(228,671,o),
(228,669,o),
(228,669,c),
(226,669,o),
(209,671,o),
(208,670,c),
(205,672,o),
(199,675,o),
(200,679,c)
);
},
{
closed = 1;
nodes = (
(214,694,o),
(213,691,o),
(214,690,c),
(216,687,o),
(230,675,o),
(232,673,c),
(232,673,o),
(228,672,o),
(228,672,c),
(226,672,o),
(213,681,o),
(212,681,c),
(210,682,o),
(208,687,o),
(210,691,c),
(210,691,o),
(213,695,o),
(213,695,c)
);
},
{
closed = 1;
nodes = (
(220,693,o),
(229,685,o),
(233,676,c),
(233,674,o),
(233,673,o),
(230,676,c),
(226,676,o),
(217,690,o),
(217,693,c),
(216,700,o),
(219,701,o),
(227,702,c)
);
},
{
closed = 1;
nodes = (
(230,697,o),
(237,686,o),
(236,677,c),
(238,674,o),
(235,676,o),
(233,676,c),
(232,681,o),
(228,693,o),
(229,697,c),
(231,706,o),
(232,706,o),
(240,702,c)
);
},
{
closed = 1;
nodes = (
(253,701,l),
(253,701,o),
(249,700,o),
(247,699,c),
(244,695,o),
(242,681,o),
(240,675,c),
(239,674,o),
(239,674,o),
(238,675,c),
(240,678,o),
(238,694,o),
(240,696,c),
(240,696,o),
(243,705,o),
(243,705,c)
);
},
{
closed = 1;
nodes = (
(229,664,o),
(233,670,o),
(237,670,c),
(246,669,o),
(242,655,o),
(234,662,c)
);
},
{
closed = 1;
nodes = (
(258,699,o),
(266,694,o),
(266,694,c),
(266,694,o),
(259,693,o),
(257,692,c),
(254,691,o),
(248,679,o),
(245,672,c),
(243,674,l),
(246,682,o),
(245,690,o),
(251,694,c),
(251,695,o),
(256,701,o),
(258,699,c)
);
},
{
closed = 1;
nodes = (
(274,683,l),
(270,682,o),
(268,683,o),
(267,683,c),
(263,684,o),
(250,674,o),
(247,670,c),
(246,670,o),
(245,670,o),
(246,672,c),
(246,673,o),
(255,686,o),
(257,687,c),
(259,689,o),
(265,690,o),
(269,689,c)
);
},
{
closed = 1;
nodes = (
(275,679,o),
(276,672,o),
(276,670,c),
(276,670,o),
(271,673,o),
(270,674,c),
(264,673,o),
(256,666,o),
(248,667,c),
(247,668,o),
(247,669,o),
(248,668,c),
(250,671,o),
(265,679,o),
(266,679,c),
(268,682,o),
(274,680,o),
(274,680,c)
);
},
{
closed = 1;
nodes = (
(275,657,l),
(273,658,o),
(272,660,o),
(270,661,c),
(266,662,o),
(255,661,o),
(249,663,c),
(247,664,o),
(247,665,o),
(250,666,c),
(251,667,o),
(265,670,o),
(267,670,c),
(271,670,o),
(272,668,o),
(277,666,c)
);
},
{
closed = 1;
nodes = (
(253,733,o),
(178,703,o),
(198,648,c),
(218,597,o),
(300,629,o),
(277,682,c)
);
},
{
attr = {
strokeWidth = 7;
};
closed = 1;
nodes = (
(271,627,o),
(244,613,o),
(220,622,c),
(196,631,o),
(184,658,o),
(192,681,c),
(202,706,o),
(227,718,o),
(251,710,c),
(276,700,o),
(289,674,o),
(280,650,c)
);
},
{
closed = 1;
nodes = (
(217,510,l),
(199,511,o),
(169,496,o),
(163,477,cs),
(-5,0,l),
(9,-3,o),
(42,11,o),
(48,31,cs)
);
}
);
width = 311;
},
{
hints = (
{
horizontal = 1;
place = (641.52,75.24);
type = Stem;
},
{
horizontal = 1;
place = (0,21);
target = up;
type = BottomGhost;
},
{
place = (215.16,75.24);
type = Stem;
}
);
layerId = m005;
shapes = (
{
closed = 1;
nodes = (
(216,662,l),
(213,663,o),
(211,666,o),
(209,666,c),
(205,666,o),
(188,663,o),
(188,663,c),
(186,662,o),
(186,666,o),
(188,667,c),
(188,667,o),
(204,673,o),
(205,673,c),
(208,673,o),
(210,673,o),
(214,671,c)
);
},
{
closed = 1;
nodes = (
(212,651,o),
(211,654,o),
(208,653,c),
(207,657,o),
(187,658,o),
(187,659,c),
(187,659,o),
(187,661,o),
(187,661,c),
(188,663,o),
(202,662,o),
(206,663,c),
(210,662,o),
(210,661,o),
(213,658,c),
(214,658,o),
(216,658,o),
(216,658,c),
(217,657,o),
(214,650,o),
(212,650,c)
);
},
{
closed = 1;
nodes = (
(206,637,l),
(203,639,o),
(205,641,o),
(203,645,c),
(201,648,o),
(185,656,o),
(185,656,c),
(185,656,o),
(186,658,o),
(186,658,c),
(187,658,o),
(203,652,o),
(208,652,c),
(208,650,o),
(208,648,o),
(210,645,c)
);
},
{
closed = 1;
nodes = (
(194,629,l),
(194,632,o),
(195,633,o),
(194,635,c),
(194,639,o),
(181,654,o),
(183,656,c),
(183,656,o),
(184,656,o),
(184,656,c),
(185,656,o),
(197,647,o),
(197,646,c),
(202,641,o),
(203,639,o),
(203,635,c)
);
},
{
closed = 1;
nodes = (
(191,632,o),
(190,629,o),
(188,628,c),
(187,628,o),
(182,624,o),
(181,627,c),
(180,627,o),
(185,631,o),
(185,632,c),
(184,638,o),
(178,645,o),
(177,652,c),
(177,655,o),
(181,654,o),
(181,654,c),
(184,646,o),
(191,639,o),
(191,633,c)
);
},
{
closed = 1;
nodes = (
(175,626,o),
(168,626,o),
(168,626,c),
(168,628,o),
(170,628,o),
(172,631,c),
(174,633,o),
(172,647,o),
(174,653,c),
(176,654,o),
(177,652,o),
(177,650,c),
(178,645,o),
(180,634,o),
(180,631,c),
(180,631,o),
(176,626,o),
(176,626,c)
);
},
{
closed = 1;
nodes = (
(154,630,l),
(160,633,o),
(162,634,o),
(162,638,c),
(165,641,o),
(170,653,o),
(171,654,c),
(171,654,o),
(173,654,o),
(173,654,c),
(173,654,o),
(172,642,o),
(170,639,c),
(169,632,o),
(168,631,o),
(163,628,c)
);
},
{
closed = 1;
nodes = (
(149,636,o),
(145,641,o),
(145,641,c),
(145,641,o),
(151,640,o),
(152,642,c),
(157,644,o),
(167,658,o),
(169,656,c),
(169,656,o),
(169,655,o),
(170,653,c),
(168,653,o),
(162,641,o),
(159,639,c),
(158,637,o),
(152,632,o),
(151,636,c)
);
},
{
closed = 1;
nodes = (
(141,645,o),
(138,653,o),
(138,653,c),
(139,653,o),
(144,651,o),
(147,651,c),
(150,652,o),
(165,660,o),
(167,660,c),
(167,660,o),
(167,659,o),
(167,658,c),
(160,654,o),
(154,644,o),
(148,644,c),
(147,644,o),
(144,644,o),
(144,646,c)
);
},
{
closed = 1;
nodes = (
(137,665,l),
(140,665,o),
(140,664,o),
(142,664,c),
(147,662,o),
(164,666,o),
(166,665,c),
(166,665,o),
(166,663,o),
(166,663,c),
(164,663,o),
(149,656,o),
(148,655,c),
(145,654,o),
(139,654,o),
(137,658,c)
);
},
{
closed = 1;
nodes = (
(142,678,o),
(143,675,o),
(145,674,c),
(147,673,o),
(165,669,o),
(167,669,c),
(167,669,o),
(165,666,o),
(165,666,c),
(164,666,o),
(147,666,o),
(146,666,c),
(144,666,o),
(140,668,o),
(139,673,c),
(139,673,o),
(141,679,o),
(141,679,c)
);
},
{
closed = 1;
nodes = (
(148,680,o),
(159,678,o),
(167,672,c),
(168,670,o),
(168,669,o),
(165,670,c),
(161,669,o),
(146,676,o),
(145,678,c),
(141,685,o),
(143,686,o),
(149,690,c)
);
},
{
closed = 1;
nodes = (
(154,688,o),
(166,682,o),
(170,674,c),
(172,673,o),
(169,673,o),
(167,672,c),
(164,676,o),
(154,684,o),
(153,688,c),
(151,697,o),
(152,697,o),
(160,698,c)
);
},
{
closed = 1;
nodes = (
(172,704,l),
(172,704,o),
(169,700,o),
(169,699,c),
(167,693,o),
(173,680,o),
(174,674,c),
(173,673,o),
(173,673,o),
(172,674,c),
(172,677,o),
(163,690,o),
(163,693,c),
(163,693,o),
(162,702,o),
(162,702,c)
);
},
{
closed = 1;
nodes = (
(170,659,o),
(170,667,o),
(174,669,c),
(183,672,o),
(185,658,o),
(175,659,c)
);
},
{
closed = 1;
nodes = (
(177,704,o),
(187,703,o),
(187,703,c),
(187,703,o),
(182,699,o),
(180,698,c),
(179,696,o),
(179,681,o),
(179,674,c),
(177,675,l),
(176,684,o),
(170,690,o),
(173,697,c),
(173,698,o),
(175,704,o),
(177,704,c)
);
},
{
closed = 1;
nodes = (
(199,698,l),
(196,696,o),
(194,695,o),
(193,695,c),
(189,693,o),
(183,679,o),
(184,673,c),
(183,673,o),
(181,673,o),
(180,675,c),
(180,676,o),
(181,692,o),
(183,693,c),
(183,696,o),
(188,699,o),
(192,701,c)
);
},
{
closed = 1;
nodes = (
(203,696,o),
(207,689,o),
(207,687,c),
(207,687,o),
(202,689,o),
(201,688,c),
(196,684,o),
(192,675,o),
(185,672,c),
(184,671,o),
(184,672,o),
(184,673,c),
(184,676,o),
(194,690,o),
(195,691,c),
(194,694,o),
(201,695,o),
(201,695,c)
);
},
{
closed = 1;
nodes = (
(213,676,l),
(210,676,o),
(209,678,o),
(207,677,c),
(203,677,o),
(194,670,o),
(187,669,c),
(185,668,o),
(185,669,o),
(187,672,c),
(188,673,o),
(198,682,o),
(199,684,c),
(203,685,o),
(206,685,o),
(211,686,c)
);
},
{
closed = 1;
nodes = (
(157,731,o),
(106,668,o),
(151,630,c),
(194,596,o),
(249,664,o),
(202,699,c)
);
},
{
attr = {
strokeWidth = 7;
};
closed = 1;
nodes = (
(225,648,o),
(209,623,o),
(183,618,c),
(157,614,o),
(134,632,o),
(130,656,c),
(125,682,o),
(141,705,o),
(167,710,c),
(192,714,o),
(217,698,o),
(221,673,c)
);
},
{
closed = 1;
nodes = (
(217,510,l),
(199,511,o),
(169,496,o),
(163,477,cs),
(-5,0,l),
(9,-3,o),
(42,11,o),
(48,31,cs)
);
}
);
width = 311;
},
{
layerId = m006;
shapes = (
{
closed = 1;
nodes = (
(206,669,l),
(203,669,o),
(200,672,o),
(198,671,c),
(194,671,o),
(178,665,o),
(178,665,c),
(176,663,o),
(175,667,o),
(177,669,c),
(177,669,o),
(192,677,o),
(193,678,c),
(196,678,o),
(198,678,o),
(202,677,c)
);
},
{
closed = 1;
nodes = (
(204,657,o),
(202,660,o),
(199,658,c),
(198,662,o),
(178,660,o),
(178,661,c),
(178,661,o),
(177,663,o),
(177,663,c),
(178,665,o),
(192,666,o),
(196,668,c),
(200,668,o),
(200,667,o),
(203,664,c),
(204,664,o),
(206,665,o),
(206,665,c),
(208,664,o),
(206,657,o),
(204,656,c)
);
},
{
closed = 1;
nodes = (
(200,642,l),
(197,644,o),
(198,646,o),
(196,650,c),
(193,652,o),
(176,657,o),
(176,657,c),
(176,657,o),
(177,660,o),
(177,660,c),
(178,660,o),
(195,657,o),
(200,657,c),
(200,656,o),
(200,654,o),
(203,651,c)
);
},
{
closed = 1;
nodes = (
(190,632,l),
(189,635,o),
(190,637,o),
(189,638,c),
(188,642,o),
(173,655,o),
(174,657,c),
(174,657,o),
(175,657,o),
(175,657,c),
(176,657,o),
(190,651,o),
(190,650,c),
(196,646,o),
(197,644,o),
(198,640,c)
);
},
{
closed = 1;
nodes = (
(186,635,o),
(186,632,o),
(184,630,c),
(183,630,o),
(179,625,o),
(177,628,c),
(176,628,o),
(181,633,o),
(180,634,c),
(178,640,o),
(171,645,o),
(169,652,c),
(168,655,o),
(173,655,o),
(173,655,c),
(177,647,o),
(185,642,o),
(186,636,c)
);
},
{
closed = 1;
nodes = (
(172,626,o),
(165,625,o),
(165,625,c),
(164,627,o),
(166,627,o),
(168,631,c),
(169,633,o),
(165,646,o),
(166,653,c),
(168,654,o),
(169,652,o),
(169,650,c),
(171,645,o),
(175,635,o),
(176,632,c),
(176,632,o),
(173,626,o),
(173,626,c)
);
},
{
closed = 1;
nodes = (
(150,626,l),
(156,630,o),
(157,632,o),
(157,636,c),
(159,639,o),
(162,652,o),
(163,653,c),
(163,653,o),
(165,653,o),
(165,653,c),
(165,653,o),
(166,641,o),
(164,638,c),
(165,631,o),
(164,630,o),
(159,626,c)
);
},
{
closed = 1;
nodes = (
(144,631,o),
(139,636,o),
(139,636,c),
(139,636,o),
(145,636,o),
(146,638,c),
(151,641,o),
(158,656,o),
(160,655,c),
(160,655,o),
(161,654,o),
(162,652,c),
(160,652,o),
(156,639,o),
(154,636,c),
(153,634,o),
(148,628,o),
(146,632,c)
);
},
{
closed = 1;
nodes = (
(135,639,o),
(130,646,o),
(130,646,c),
(131,646,o),
(137,645,o),
(140,646,c),
(142,647,o),
(156,658,o),
(158,658,c),
(158,658,o),
(158,657,o),
(158,656,c),
(152,651,o),
(148,640,o),
(142,639,c),
(141,639,o),
(138,638,o),
(138,640,c)
);
},
{
closed = 1;
nodes = (
(127,658,l),
(130,658,o),
(130,657,o),
(132,658,c),
(138,657,o),
(154,664,o),
(156,663,c),
(156,663,o),
(156,661,o),
(156,661,c),
(154,661,o),
(141,651,o),
(140,650,c),
(137,649,o),
(131,647,o),
(129,651,c)
);
},
{
closed = 1;
nodes = (
(130,672,o),
(132,669,o),
(134,668,c),
(136,668,o),
(154,667,o),
(156,667,c),
(156,667,o),
(155,664,o),
(155,664,c),
(154,664,o),
(137,661,o),
(136,660,c),
(134,660,o),
(130,661,o),
(128,666,c),
(128,666,o),
(129,672,o),
(129,672,c)
);
},
{
closed = 1;
nodes = (
(136,675,o),
(147,675,o),
(156,670,c),
(157,668,o),
(157,667,o),
(154,668,c),
(150,666,o),
(134,670,o),
(133,672,c),
(128,678,o),
(130,680,o),
(135,685,c)
);
},
{
closed = 1;
nodes = (
(140,684,o),
(153,680,o),
(158,673,c),
(160,672,o),
(157,671,o),
(156,670,c),
(152,673,o),
(141,680,o),
(139,683,c),
(136,692,o),
(137,692,o),
(144,694,c)
);
},
{
closed = 1;
nodes = (
(155,702,l),
(155,702,o),
(153,698,o),
(153,697,c),
(152,691,o),
(160,679,o),
(162,673,c),
(161,672,o),
(161,672,o),
(160,673,c),
(160,676,o),
(149,687,o),
(148,690,c),
(148,690,o),
(146,699,o),
(146,699,c)
);
},
{
closed = 1;
nodes = (
(161,658,o),
(160,666,o),
(163,668,c),
(171,673,o),
(176,659,o),
(166,659,c)
);
},
{
closed = 1;
nodes = (
(160,703,o),
(170,704,o),
(170,704,c),
(170,704,o),
(166,699,o),
(164,698,c),
(163,696,o),
(166,681,o),
(167,674,c),
(165,675,l),
(162,683,o),
(156,688,o),
(157,696,c),
(157,697,o),
(158,703,o),
(160,703,c)
);
},
{
closed = 1;
nodes = (
(183,701,l),
(180,699,o),
(178,697,o),
(177,697,c),
(174,695,o),
(170,680,o),
(172,674,c),
(171,674,o),
(169,673,o),
(168,675,c),
(168,676,o),
(166,692,o),
(168,694,c),
(167,696,o),
(172,700,o),
(175,703,c)
);
},
{
closed = 1;
nodes = (
(187,700,o),
(192,694,o),
(192,692,c),
(192,692,o),
(187,693,o),
(186,692,c),
(182,687,o),
(180,677,o),
(173,673,c),
(173,672,o),
(172,673,o),
(172,674,c),
(172,677,o),
(179,692,o),
(180,694,c),
(178,696,o),
(185,699,o),
(185,699,c)
);
},
{
closed = 1;
nodes = (
(200,682,l),
(197,681,o),
(196,683,o),
(194,682,c),
(190,681,o),
(183,673,o),
(176,671,c),
(174,669,o),
(174,670,o),
(175,674,c),
(176,675,o),
(184,685,o),
(185,687,c),
(189,689,o),
(192,690,o),
(197,691,c)
);
},
{
closed = 1;
nodes = (
(136,726,o),
(96,656,o),
(147,626,c),
(195,600,o),
(238,676,o),
(185,703,c)
);
},
{
attr = {
strokeWidth = 7;
};
closed = 1;
nodes = (
(217,656,o),
(206,629,o),
(181,620,c),
(156,611,o),
(130,625,o),
(122,648,c),
(113,673,o),
(124,698,o),
(149,707,c),
(173,716,o),
(200,704,o),
(209,680,c)
);
},
{
closed = 1;
nodes = (
(217,510,l),
(199,511,o),
(169,496,o),
(163,477,cs),
(-5,0,l),
(9,-3,o),
(42,11,o),
(48,31,cs)
);
}
);
width = 311;
}
);
note = I;
unicode = 73;
},
{
glyphname = J;
lastChange = "2024-11-10 23:53:46 +0000";
layers = (
{
hints = (
{
horizontal = 1;
place = (300.96,26.4);
type = Stem;
},
{
horizontal = 1;
place = (-7.92,25.08);
type = Stem;
},
{
place = (319.44,25.08);
type = Stem;
},
{
place = (13.2,25.08);
type = Stem;
}
);
layerId = m003;
shapes = (
{
closed = 1;
nodes = (
(379,655,l),
(376,657,o),
(375,660,o),
(373,661,c),
(369,661,o),
(352,661,o),
(352,661,c),
(350,661,o),
(350,665,o),
(352,665,c),
(352,665,o),
(369,668,o),
(370,668,c),
(373,668,o),
(375,667,o),
(379,665,c)
);
},
{
closed = 1;
nodes = (
(373,645,o),
(373,648,o),
(370,648,c),
(369,652,o),
(350,657,o),
(350,658,c),
(350,658,o),
(350,660,o),
(350,660,c),
(352,661,o),
(365,658,o),
(369,658,c),
(373,657,o),
(373,655,o),
(375,652,c),
(376,652,o),
(378,652,o),
(378,652,c),
(379,650,o),
(375,644,o),
(373,644,c)
);
},
{
closed = 1;
nodes = (
(365,633,l),
(362,635,o),
(365,637,o),
(363,641,c),
(362,644,o),
(348,655,o),
(348,655,c),
(348,655,o),
(349,657,o),
(349,657,c),
(350,657,o),
(365,648,o),
(369,647,c),
(369,645,o),
(369,643,o),
(370,640,c)
);
},
{
closed = 1;
nodes = (
(352,627,l),
(352,630,o),
(353,631,o),
(353,633,c),
(353,637,o),
(343,654,o),
(345,655,c),
(345,655,o),
(346,655,o),
(346,655,c),
(348,655,o),
(358,644,o),
(358,643,c),
(362,637,o),
(362,635,o),
(362,631,c)
);
},
{
closed = 1;
nodes = (
(349,630,o),
(348,627,o),
(346,627,c),
(345,627,o),
(339,624,o),
(339,627,c),
(338,627,o),
(343,630,o),
(343,631,c),
(343,637,o),
(339,645,o),
(339,652,c),
(339,655,o),
(343,654,o),
(343,654,c),
(345,645,o),
(350,637,o),
(349,631,c)
);
},
{
closed = 1;
nodes = (
(332,627,o),
(326,628,o),
(325,628,c),
(326,630,o),
(328,630,o),
(330,633,c),
(333,634,o),
(333,648,o),
(336,654,c),
(338,655,o),
(339,652,o),
(339,650,c),
(339,645,o),
(339,634,o),
(338,631,c),
(338,631,o),
(333,627,o),
(333,627,c)
);
},
{
closed = 1;
nodes = (
(313,635,l),
(319,637,o),
(321,637,o),
(322,641,c),
(325,644,o),
(332,655,o),
(333,655,c),
(333,655,o),
(335,655,o),
(335,655,c),
(335,655,o),
(332,643,o),
(330,641,c),
(328,634,o),
(326,633,o),
(321,631,c)
);
},
{
closed = 1;
nodes = (
(309,641,o),
(305,647,o),
(305,647,c),
(306,647,o),
(311,645,o),
(313,647,c),
(318,648,o),
(330,660,o),
(332,658,c),
(332,658,o),
(332,657,o),
(332,655,c),
(330,655,o),
(322,644,o),
(319,643,c),
(318,641,o),
(311,637,o),
(311,641,c)
);
},
{
closed = 1;
nodes = (
(302,652,o),
(301,660,o),
(301,660,c),
(302,660,o),
(306,657,o),
(309,657,c),
(312,657,o),
(328,662,o),
(330,662,c),
(330,662,o),
(330,661,o),
(330,660,c),
(322,657,o),
(315,648,o),
(309,650,c),
(308,650,o),
(305,650,o),
(305,652,c)
);
},
{
closed = 1;
nodes = (
(302,672,l),
(305,672,o),
(305,671,o),
(306,670,c),
(311,667,o),
(328,668,o),
(330,667,c),
(330,667,o),
(330,665,o),
(330,665,c),
(328,665,o),
(312,661,o),
(311,660,c),
(308,660,o),
(302,661,o),
(301,665,c)
);
},
{
closed = 1;
nodes = (
(309,684,o),
(309,681,o),
(311,680,c),
(313,678,o),
(330,671,o),
(332,671,c),
(332,671,o),
(330,668,o),
(330,668,c),
(328,668,o),
(312,671,o),
(311,671,c),
(309,672,o),
(305,675,o),
(305,680,c),
(305,680,o),
(308,685,o),
(308,685,c)
);
},
{
closed = 1;
nodes = (
(315,685,o),
(326,681,o),
(333,674,c),
(333,672,o),
(333,671,o),
(330,672,c),
(326,672,o),
(313,681,o),
(312,684,c),
(309,691,o),
(311,692,o),
(318,695,c)
);
},
{
closed = 1;
nodes = (
(323,692,o),
(333,684,o),
(336,675,c),
(338,674,o),
(335,674,o),
(333,674,c),
(330,678,o),
(322,688,o),
(322,692,c),
(321,701,o),
(322,701,o),
(330,701,c)
);
},
{
closed = 1;
nodes = (
(343,704,l),
(343,704,o),
(339,701,o),
(339,700,c),
(336,695,o),
(340,681,o),
(340,675,c),
(339,674,o),
(339,674,o),
(338,675,c),
(338,678,o),
(332,692,o),
(332,695,c),
(332,695,o),
(333,704,o),
(333,704,c)
);
},
{
closed = 1;
nodes = (
(333,661,o),
(335,668,o),
(339,670,c),
(348,671,o),
(348,657,o),
(338,660,c)
);
},
{
closed = 1;
nodes = (
(348,704,o),
(358,701,o),
(358,701,c),
(358,701,o),
(352,698,o),
(350,697,c),
(348,695,o),
(346,681,o),
(345,674,c),
(343,675,l),
(343,684,o),
(339,691,o),
(343,697,c),
(343,698,o),
(346,704,o),
(348,704,c)
);
},
{
closed = 1;
nodes = (
(369,694,l),
(365,692,o),
(363,692,o),
(362,692,c),
(358,691,o),
(350,678,o),
(349,672,c),
(348,672,o),
(346,672,o),
(346,674,c),
(346,675,o),
(350,691,o),
(352,692,c),
(353,695,o),
(358,697,o),
(362,698,c)
);
},
{
closed = 1;
nodes = (
(372,691,o),
(375,684,o),
(375,682,c),
(375,682,o),
(370,684,o),
(369,684,c),
(363,681,o),
(358,672,o),
(350,671,c),
(349,670,o),
(349,671,o),
(350,672,c),
(350,675,o),
(362,687,o),
(363,688,c),
(363,691,o),
(370,691,o),
(370,691,c)
);
},
{
closed = 1;
nodes = (
(379,670,l),
(376,670,o),
(375,672,o),
(373,672,c),
(369,672,o),
(359,667,o),
(352,667,c),
(350,667,o),
(350,668,o),
(352,670,c),
(353,671,o),
(365,678,o),
(366,680,c),
(370,680,o),
(373,680,o),
(378,680,c)
);
},
{
closed = 1;
nodes = (
(333,734,o),
(272,680,o),
(309,635,c),
(346,594,o),
(412,652,o),
(372,694,c)
);
},
{
attr = {
strokeWidth = 7;
};
closed = 1;
nodes = (
(386,640,o),
(365,618,o),
(339,618,c),
(313,618,o),
(293,640,o),
(293,665,c),
(293,691,o),
(313,711,o),
(339,711,c),
(365,711,o),
(386,691,o),
(386,665,c)
);
},
{
attr = {
lineCapEnd = 4;
lineCapStart = 4;
strokeWidth = 30;
};
closed = 0;
nodes = (
(105,13,l),
(81,36,o),
(33,88,o),
(16,171,c),
(-4,257,o),
(27,335,o),
(50,383,c)
);
},
{
closed = 1;
nodes = (
(-4,375,l),
(43,372,l),
(71,332,l),
(84,441,l)
);
},
{
closed = 1;
nodes = (
(343,510,l),
(325,511,o),
(295,496,o),
(289,477,cs),
(121,0,l),
(135,-3,o),
(168,11,o),
(174,31,cs)
);
}
);
width = 460;
},
{
hints = (
{
horizontal = 1;
place = (300.96,26.4);
type = Stem;
},
{
horizontal = 1;
place = (-7.92,25.08);
type = Stem;
},
{
place = (319.44,25.08);
type = Stem;
},
{
place = (13.2,25.08);
type = Stem;
}
);
layerId = m002;
shapes = (
{
closed = 1;
nodes = (
(398,649,l),
(395,651,o),
(395,654,o),
(393,656,c),
(389,656,o),
(372,659,o),
(372,659,c),
(370,660,o),
(371,664,o),
(373,663,c),
(373,663,o),
(390,663,o),
(391,663,c),
(394,663,o),
(396,661,o),
(400,659,c)
);
},
{
closed = 1;
nodes = (
(390,640,o),
(391,643,o),
(388,643,c),
(388,647,o),
(370,656,o),
(370,657,c),
(370,657,o),
(370,659,o),
(370,659,c),
(372,659,o),
(385,654,o),
(389,653,c),
(392,652,o),
(392,650,o),
(393,646,c),
(394,646,o),
(396,646,o),
(396,646,c),
(397,644,o),
(392,639,o),
(390,639,c)
);
},
{
closed = 1;
nodes = (
(380,629,l),
(378,632,o),
(381,633,o),
(380,638,c),
(379,641,o),
(367,654,o),
(367,654,c),
(367,654,o),
(369,656,o),
(369,656,c),
(370,656,o),
(383,644,o),
(387,643,c),
(386,641,o),
(386,639,o),
(386,636,c)
);
},
{
closed = 1;
nodes = (
(366,626,l),
(367,629,o),
(368,630,o),
(368,632,c),
(369,636,o),
(362,654,o),
(364,655,c),
(364,655,o),
(365,654,o),
(365,654,c),
(367,654,o),
(375,642,o),
(375,641,c),
(378,634,o),
(378,632,o),
(377,628,c)
);
},
{
closed = 1;
nodes = (
(364,629,o),
(362,627,o),
(361,627,c),
(360,627,o),
(353,625,o),
(354,628,c),
(353,628,o),
(358,630,o),
(358,631,c),
(359,637,o),
(357,646,o),
(358,653,c),
(358,656,o),
(362,654,o),
(362,654,c),
(363,645,o),
(366,636,o),
(364,630,c)
);
},
{
closed = 1;
nodes = (
(347,629,o),
(341,631,o),
(340,631,c),
(341,633,o),
(343,633,o),
(346,636,c),
(349,636,o),
(351,650,o),
(355,655,c),
(357,656,o),
(358,653,o),
(358,651,c),
(357,646,o),
(355,635,o),
(353,632,c),
(353,632,o),
(348,629,o),
(348,629,c)
);
},
{
closed = 1;
nodes = (
(329,640,l),
(336,641,o),
(338,641,o),
(339,645,c),
(343,647,o),
(352,657,o),
(353,657,c),
(353,657,o),
(355,656,o),
(355,656,c),
(355,656,o),
(350,645,o),
(347,643,c),
(344,637,o),
(342,636,o),
(337,635,c)
);
},
{
closed = 1;
nodes = (
(327,647,o),
(324,654,o),
(324,654,c),
(325,654,o),
(329,651,o),
(331,652,c),
(337,652,o),
(350,662,o),
(352,660,c),
(352,660,o),
(352,659,o),
(352,657,c),
(350,657,o),
(340,648,o),
(337,647,c),
(335,646,o),
(328,643,o),
(328,647,c)
);
},
{
closed = 1;
nodes = (
(322,659,o),
(322,667,o),
(322,667,c),
(323,667,o),
(326,663,o),
(329,663,c),
(332,662,o),
(349,664,o),
(351,664,c),
(351,664,o),
(351,663,o),
(350,662,c),
(342,661,o),
(334,653,o),
(328,656,c),
(327,656,o),
(324,657,o),
(324,659,c)
);
},
{
closed = 1;
nodes = (
(325,679,l),
(328,678,o),
(328,677,o),
(329,676,c),
(333,672,o),
(350,670,o),
(352,669,c),
(352,669,o),
(351,667,o),
(351,667,c),
(349,667,o),
(333,666,o),
(332,665,c),
(329,666,o),
(323,668,o),
(323,672,c)
);
},
{
closed = 1;
nodes = (
(334,689,o),
(333,686,o),
(335,685,c),
(337,683,o),
(352,673,o),
(354,673,c),
(354,673,o),
(352,670,o),
(352,670,c),
(350,670,o),
(335,676,o),
(334,676,c),
(332,678,o),
(328,681,o),
(329,686,c),
(329,686,o),
(333,691,o),
(333,691,c)
);
},
{
closed = 1;
nodes = (
(340,689,o),
(350,684,o),
(356,675,c),
(356,673,o),
(355,672,o),
(353,674,c),
(349,675,o),
(337,686,o),
(337,689,c),
(335,696,o),
(337,697,o),
(345,699,c)
);
},
{
closed = 1;
nodes = (
(349,695,o),
(358,685,o),
(359,676,c),
(361,675,o),
(358,675,o),
(356,675,c),
(354,680,o),
(347,691,o),
(348,695,c),
(349,704,o),
(350,704,o),
(358,703,c)
);
},
{
closed = 1;
nodes = (
(371,703,l),
(371,703,o),
(366,701,o),
(366,700,c),
(362,696,o),
(364,681,o),
(363,675,c),
(362,674,o),
(362,674,o),
(361,676,c),
(361,678,o),
(358,693,o),
(359,696,c),
(359,696,o),
(361,705,o),
(361,705,c)
);
},
{
closed = 1;
nodes = (
(354,663,o),
(357,669,o),
(361,670,c),
(370,670,o),
(368,656,o),
(358,661,c)
);
},
{
closed = 1;
nodes = (
(376,702,o),
(385,698,o),
(385,698,c),
(385,698,o),
(379,696,o),
(377,695,c),
(374,693,o),
(370,680,o),
(368,673,c),
(366,675,l),
(367,684,o),
(365,691,o),
(370,696,c),
(370,697,o),
(374,703,o),
(376,702,c)
);
},
{
closed = 1;
nodes = (
(395,689,l),
(391,688,o),
(389,688,o),
(388,688,c),
(383,688,o),
(373,676,o),
(371,671,c),
(370,671,o),
(368,671,o),
(369,673,c),
(369,674,o),
(376,689,o),
(378,690,c),
(379,693,o),
(384,694,o),
(389,694,c)
);
},
{
closed = 1;
nodes = (
(397,685,o),
(399,678,o),
(399,676,c),
(399,676,o),
(394,679,o),
(393,679,c),
(387,677,o),
(380,669,o),
(372,670,c),
(371,669,o),
(371,670,o),
(372,670,c),
(373,673,o),
(387,683,o),
(388,684,c),
(388,687,o),
(395,686,o),
(395,686,c)
);
},
{
closed = 1;
nodes = (
(400,663,l),
(398,664,o),
(397,666,o),
(395,666,c),
(391,667,o),
(380,664,o),
(373,665,c),
(371,666,o),
(372,667,o),
(374,668,c),
(375,669,o),
(388,674,o),
(389,676,c),
(393,675,o),
(396,674,o),
(401,674,c)
);
},
{
closed = 1;
nodes = (
(366,734,o),
(297,692,o),
(325,641,c),
(355,594,o),
(430,640,o),
(398,688,c)
);
},
{
attr = {
strokeWidth = 7;
};
closed = 1;
nodes = (
(402,633,o),
(378,615,o),
(352,619,c),
(326,624,o),
(311,649,o),
(315,673,c),
(319,699,o),
(343,715,o),
(368,711,c),
(394,706,o),
(411,683,o),
(407,657,c)
);
},
{
attr = {
lineCapEnd = 4;
lineCapStart = 4;
strokeWidth = 30;
};
closed = 0;
nodes = (
(87,39,l),
(65,64,o),
(22,120,o),
(12,204,c),
(0,292,o),
(38,367,o),
(65,412,c)
);
},
{
closed = 1;
nodes = (
(10,409,l),
(57,402,l),
(81,360,l),
(104,467,l)
);
},
{
closed = 1;
nodes = (
(344,510,l),
(326,511,o),
(296,496,o),
(290,477,cs),
(122,0,l),
(136,-3,o),
(169,11,o),
(175,31,cs)
);
}
);
width = 460;
},
{
hints = (
{
horizontal = 1;
place = (300.96,26.4);
type = Stem;
},
{
horizontal = 1;
place = (-7.92,25.08);
type = Stem;
},
{
place = (319.44,25.08);
type = Stem;
},
{
place = (13.2,25.08);
type = Stem;
}
);
layerId = m004;
shapes = (
{
closed = 1;
nodes = (
(419,643,l),
(417,645,o),
(417,648,o),
(415,650,c),
(412,651,o),
(395,657,o),
(395,657,c),
(393,658,o),
(395,662,o),
(397,661,c),
(397,661,o),
(414,658,o),
(415,658,c),
(418,657,o),
(419,655,o),
(423,652,c)
);
},
{
closed = 1;
nodes = (
(410,635,o),
(411,638,o),
(408,638,c),
(409,642,o),
(393,654,o),
(393,655,c),
(393,655,o),
(393,657,o),
(393,657,c),
(395,657,o),
(407,650,o),
(411,648,c),
(414,647,o),
(413,645,o),
(414,641,c),
(415,640,o),
(417,640,o),
(417,640,c),
(417,638,o),
(412,634,o),
(410,634,c)
);
},
{
closed = 1;
nodes = (
(398,626,l),
(397,629,o),
(400,630,o),
(400,635,c),
(399,638,o),
(390,653,o),
(390,653,c),
(390,653,o),
(392,655,o),
(392,655,c),
(393,654,o),
(404,640,o),
(407,639,c),
(406,637,o),
(406,635,o),
(405,632,c)
);
},
{
closed = 1;
nodes = (
(384,626,l),
(385,628,o),
(386,629,o),
(387,631,c),
(388,635,o),
(385,654,o),
(387,654,c),
(387,654,o),
(388,653,o),
(388,653,c),
(390,653,o),
(395,640,o),
(395,639,c),
(397,631,o),
(397,629,o),
(395,626,c)
);
},
{
closed = 1;
nodes = (
(382,629,o),
(380,627,o),
(379,627,c),
(378,628,o),
(371,627,o),
(372,630,c),
(371,630,o),
(376,631,o),
(377,632,c),
(379,638,o),
(378,647,o),
(380,653,c),
(381,656,o),
(385,654,o),
(385,654,c),
(384,645,o),
(385,635,o),
(382,630,c)
);
},
{
closed = 1;
nodes = (
(365,632,o),
(360,635,o),
(359,635,c),
(360,637,o),
(362,636,o),
(366,639,c),
(369,638,o),
(373,652,o),
(378,656,c),
(380,657,o),
(380,653,o),
(380,652,c),
(378,647,o),
(374,636,o),
(372,634,c),
(372,634,o),
(366,632,o),
(366,632,c)
);
},
{
closed = 1;
nodes = (
(350,646,l),
(357,645,o),
(359,645,o),
(360,649,c),
(365,650,o),
(375,658,o),
(376,658,c),
(376,658,o),
(378,657,o),
(378,657,c),
(378,657,o),
(371,647,o),
(368,646,c),
(364,640,o),
(362,640,o),
(357,639,c)
);
},
{
closed = 1;
nodes = (
(349,653,o),
(347,660,o),
(347,660,c),
(348,660,o),
(352,657,o),
(354,657,c),
(360,656,o),
(374,664,o),
(376,661,c),
(376,661,o),
(376,660,o),
(375,658,c),
(373,659,o),
(362,652,o),
(359,651,c),
(357,651,o),
(349,649,o),
(350,653,c)
);
},
{
closed = 1;
nodes = (
(346,666,o),
(347,674,o),
(347,674,c),
(348,673,o),
(351,669,o),
(354,668,c),
(356,667,o),
(374,666,o),
(375,666,c),
(375,666,o),
(375,665,o),
(374,664,c),
(366,664,o),
(357,658,o),
(351,662,c),
(350,662,o),
(348,663,o),
(348,665,c)
);
},
{
closed = 1;
nodes = (
(352,685,l),
(355,683,o),
(355,682,o),
(356,681,c),
(359,677,o),
(376,672,o),
(377,670,c),
(377,670,o),
(376,668,o),
(376,668,c),
(374,669,o),
(358,671,o),
(357,670,c),
(354,671,o),
(349,674,o),
(349,678,c)
);
},
{
closed = 1;
nodes = (
(363,693,o),
(362,690,o),
(363,689,c),
(365,687,o),
(378,674,o),
(380,674,c),
(380,674,o),
(378,671,o),
(378,671,c),
(376,672,o),
(362,680,o),
(361,680,c),
(359,683,o),
(356,686,o),
(358,691,c),
(358,691,o),
(362,695,o),
(362,695,c)
);
},
{
closed = 1;
nodes = (
(369,692,o),
(378,685,o),
(382,675,c),
(382,674,o),
(381,673,o),
(379,675,c),
(375,677,o),
(366,690,o),
(366,693,c),
(365,700,o),
(367,700,o),
(376,701,c)
);
},
{
closed = 1;
nodes = (
(379,696,o),
(386,685,o),
(385,676,c),
(387,675,o),
(384,675,o),
(382,675,c),
(381,681,o),
(376,693,o),
(378,697,c),
(380,705,o),
(381,705,o),
(389,703,c)
);
},
{
closed = 1;
nodes = (
(402,700,l),
(402,700,o),
(397,699,o),
(397,698,c),
(392,695,o),
(391,680,o),
(389,674,c),
(388,673,o),
(388,673,o),
(387,676,c),
(388,678,o),
(387,693,o),
(389,696,c),
(389,696,o),
(392,704,o),
(392,704,c)
);
},
{
closed = 1;
nodes = (
(378,664,o),
(382,669,o),
(386,670,c),
(395,668,o),
(391,655,o),
(382,661,c)
);
},
{
closed = 1;
nodes = (
(407,699,o),
(415,693,o),
(415,693,c),
(415,693,o),
(409,692,o),
(406,692,c),
(403,690,o),
(397,678,o),
(394,671,c),
(392,674,l),
(395,682,o),
(394,690,o),
(400,694,c),
(400,695,o),
(405,700,o),
(407,699,c)
);
},
{
closed = 1;
nodes = (
(423,683,l),
(419,682,o),
(417,683,o),
(416,683,c),
(411,684,o),
(399,674,o),
(396,669,c),
(395,669,o),
(393,669,o),
(395,671,c),
(395,672,o),
(404,686,o),
(407,686,c),
(408,689,o),
(413,689,o),
(418,688,c)
);
},
{
closed = 1;
nodes = (
(424,678,o),
(425,671,o),
(425,669,c),
(425,669,o),
(420,673,o),
(419,673,c),
(413,672,o),
(405,665,o),
(397,668,c),
(396,667,o),
(396,668,o),
(397,668,c),
(399,671,o),
(414,678,o),
(415,679,c),
(416,682,o),
(423,680,o),
(423,680,c)
);
},
{
closed = 1;
nodes = (
(424,656,l),
(422,657,o),
(421,660,o),
(419,660,c),
(415,662,o),
(404,660,o),
(397,663,c),
(396,664,o),
(397,665,o),
(399,665,c),
(400,666,o),
(414,669,o),
(415,671,c),
(419,669,o),
(422,668,o),
(426,667,c)
);
},
{
closed = 1;
nodes = (
(402,732,o),
(327,702,o),
(346,647,c),
(367,596,o),
(449,628,o),
(426,681,c)
);
},
{
attr = {
strokeWidth = 7;
};
closed = 1;
nodes = (
(420,626,o),
(394,613,o),
(369,621,c),
(344,630,o),
(333,658,o),
(342,681,c),
(350,706,o),
(376,717,o),
(400,709,c),
(425,699,o),
(438,674,o),
(429,649,c)
);
},
{
attr = {
lineCapEnd = 4;
lineCapStart = 4;
strokeWidth = 30;
};
closed = 0;
nodes = (
(75,67,l),
(55,94,o),
(18,153,o),
(15,238,c),
(11,326,o),
(55,398,o),
(86,440,c)
);
},
{
closed = 1;
nodes = (
(31,442,l),
(77,431,l),
(97,387,l),
(129,492,l)
);
},
{
closed = 1;
nodes = (
(342,515,l),
(324,519,o),
(303,496,o),
(297,477,cs),
(129,0,l),
(143,-3,o),
(175,11,o),
(182,31,cs)
);
}
);
width = 460;
},
{
hints = (
{
horizontal = 1;
place = (300.96,26.4);
type = Stem;
},
{
horizontal = 1;
place = (-7.92,25.08);
type = Stem;
},
{
place = (319.44,25.08);
type = Stem;
},
{
place = (13.2,25.08);
type = Stem;
}
);
layerId = m005;
shapes = (
{
closed = 1;
nodes = (
(372,662,l),
(369,663,o),
(367,666,o),
(365,665,c),
(361,666,o),
(344,663,o),
(344,663,c),
(342,661,o),
(342,666,o),
(344,667,c),
(344,667,o),
(360,672,o),
(361,673,c),
(364,673,o),
(366,672,o),
(370,671,c)
);
},
{
closed = 1;
nodes = (
(368,651,o),
(367,654,o),
(364,653,c),
(363,657,o),
(343,658,o),
(343,659,c),
(343,659,o),
(343,661,o),
(343,661,c),
(344,663,o),
(358,662,o),
(362,663,c),
(366,662,o),
(366,661,o),
(369,658,c),
(370,658,o),
(372,658,o),
(372,658,c),
(374,657,o),
(370,650,o),
(368,650,c)
);
},
{
closed = 1;
nodes = (
(362,637,l),
(359,639,o),
(361,641,o),
(359,645,c),
(357,648,o),
(341,656,o),
(341,656,c),
(341,656,o),
(342,658,o),
(342,658,c),
(343,658,o),
(360,652,o),
(364,651,c),
(364,650,o),
(364,648,o),
(366,645,c)
);
},
{
closed = 1;
nodes = (
(350,628,l),
(350,632,o),
(351,633,o),
(350,635,c),
(350,639,o),
(338,654,o),
(339,656,c),
(339,656,o),
(340,656,o),
(340,656,c),
(341,656,o),
(354,647,o),
(353,646,c),
(359,641,o),
(359,639,o),
(360,635,c)
);
},
{
closed = 1;
nodes = (
(347,632,o),
(346,629,o),
(344,628,c),
(343,628,o),
(338,623,o),
(337,627,c),
(336,627,o),
(342,631,o),
(341,632,c),
(340,638,o),
(334,645,o),
(333,652,c),
(333,655,o),
(338,654,o),
(338,654,c),
(340,646,o),
(347,639,o),
(347,633,c)
);
},
{
closed = 1;
nodes = (
(331,626,o),
(324,626,o),
(324,626,c),
(324,628,o),
(326,628,o),
(328,631,c),
(330,633,o),
(328,647,o),
(330,653,c),
(332,654,o),
(333,652,o),
(333,650,c),
(334,645,o),
(336,634,o),
(336,631,c),
(336,631,o),
(332,626,o),
(332,626,c)
);
},
{
closed = 1;
nodes = (
(310,630,l),
(316,632,o),
(318,634,o),
(318,638,c),
(321,641,o),
(326,653,o),
(327,654,c),
(327,654,o),
(329,653,o),
(329,653,c),
(329,653,o),
(328,642,o),
(326,639,c),
(325,632,o),
(324,631,o),
(319,628,c)
);
},
{
closed = 1;
nodes = (
(305,635,o),
(301,641,o),
(301,641,c),
(301,641,o),
(307,640,o),
(308,642,c),
(313,644,o),
(323,658,o),
(325,656,c),
(325,656,o),
(326,655,o),
(326,653,c),
(324,653,o),
(318,641,o),
(316,639,c),
(314,637,o),
(308,632,o),
(307,636,c)
);
},
{
closed = 1;
nodes = (
(297,645,o),
(294,653,o),
(294,653,c),
(295,653,o),
(300,650,o),
(303,651,c),
(306,652,o),
(321,660,o),
(323,660,c),
(323,660,o),
(323,659,o),
(323,658,c),
(316,654,o),
(310,644,o),
(304,644,c),
(303,644,o),
(300,643,o),
(300,645,c)
);
},
{
closed = 1;
nodes = (
(293,665,l),
(296,665,o),
(296,664,o),
(298,664,c),
(303,662,o),
(320,666,o),
(322,665,c),
(322,665,o),
(322,663,o),
(322,663,c),
(320,663,o),
(305,656,o),
(304,655,c),
(301,654,o),
(295,653,o),
(293,658,c)
);
},
{
closed = 1;
nodes = (
(298,678,o),
(300,675,o),
(301,674,c),
(303,673,o),
(321,669,o),
(323,669,c),
(323,669,o),
(321,666,o),
(321,666,c),
(320,666,o),
(303,666,o),
(302,665,c),
(300,666,o),
(296,667,o),
(295,673,c),
(295,673,o),
(297,678,o),
(297,678,c)
);
},
{
closed = 1;
nodes = (
(305,680,o),
(315,678,o),
(323,672,c),
(324,670,o),
(324,669,o),
(321,670,c),
(317,669,o),
(302,676,o),
(301,678,c),
(297,685,o),
(300,686,o),
(305,690,c)
);
},
{
closed = 1;
nodes = (
(310,688,o),
(322,682,o),
(326,674,c),
(328,673,o),
(325,673,o),
(323,672,c),
(320,675,o),
(310,684,o),
(309,688,c),
(308,697,o),
(308,697,o),
(316,698,c)
);
},
{
closed = 1;
nodes = (
(328,703,l),
(328,703,o),
(325,700,o),
(325,699,c),
(323,693,o),
(329,680,o),
(330,674,c),
(329,673,o),
(329,673,o),
(328,674,c),
(328,677,o),
(319,690,o),
(319,693,c),
(319,693,o),
(319,702,o),
(319,702,c)
);
},
{
closed = 1;
nodes = (
(326,659,o),
(327,667,o),
(330,669,c),
(339,672,o),
(341,657,o),
(331,659,c)
);
},
{
closed = 1;
nodes = (
(333,704,o),
(343,703,o),
(343,703,c),
(343,703,o),
(338,699,o),
(336,698,c),
(335,696,o),
(335,681,o),
(335,674,c),
(333,675,l),
(332,684,o),
(327,690,o),
(329,697,c),
(329,698,o),
(331,704,o),
(333,704,c)
);
},
{
closed = 1;
nodes = (
(355,698,l),
(352,696,o),
(350,695,o),
(349,695,c),
(345,693,o),
(339,679,o),
(340,673,c),
(339,673,o),
(337,673,o),
(336,675,c),
(336,676,o),
(337,692,o),
(339,693,c),
(339,695,o),
(344,699,o),
(348,701,c)
);
},
{
closed = 1;
nodes = (
(359,696,o),
(363,689,o),
(363,687,c),
(363,687,o),
(358,689,o),
(357,688,c),
(352,684,o),
(348,675,o),
(341,672,c),
(340,671,o),
(340,672,o),
(340,673,c),
(340,676,o),
(350,689,o),
(351,691,c),
(350,694,o),
(357,695,o),
(357,695,c)
);
},
{
closed = 1;
nodes = (
(369,676,l),
(366,676,o),
(365,678,o),
(363,677,c),
(359,677,o),
(350,670,o),
(343,669,c),
(341,668,o),
(341,669,o),
(343,672,c),
(344,673,o),
(354,682,o),
(355,684,c),
(359,685,o),
(362,685,o),
(367,685,c)
);
},
{
closed = 1;
nodes = (
(313,730,o),
(262,668,o),
(307,630,c),
(350,596,o),
(405,663,o),
(358,699,c)
);
},
{
attr = {
strokeWidth = 7;
};
closed = 1;
nodes = (
(381,647,o),
(366,623,o),
(339,618,c),
(313,614,o),
(290,632,o),
(286,656,c),
(282,682,o),
(297,705,o),
(323,709,c),
(348,714,o),
(373,698,o),
(377,672,c)
);
},
{
attr = {
lineCapEnd = 4;
lineCapStart = 4;
strokeWidth = 30;
};
closed = 0;
nodes = (
(135,-11,l),
(110,9,o),
(57,57,o),
(33,138,c),
(6,222,o),
(30,303,o),
(48,352,c)
);
},
{
closed = 1;
nodes = (
(-5,340,l),
(42,341,l),
(74,303,l),
(77,413,l)
);
},
{
closed = 1;
nodes = (
(355,510,l),
(337,511,o),
(307,496,o),
(301,477,cs),
(133,0,l),
(147,-3,o),
(180,11,o),
(186,31,cs)
);
}
);
width = 460;
},
{
hints = (
{
horizontal = 1;
place = (300.96,26.4);
type = Stem;
},
{
horizontal = 1;
place = (-7.92,25.08);
type = Stem;
},
{
place = (319.44,25.08);
type = Stem;
},
{
place = (13.2,25.08);
type = Stem;
}
);
layerId = m006;
shapes = (
{
closed = 1;
nodes = (
(364,669,l),
(361,669,o),
(358,672,o),
(356,671,c),
(352,671,o),
(336,665,o),
(336,665,c),
(334,663,o),
(333,667,o),
(335,669,c),
(335,669,o),
(350,677,o),
(351,678,c),
(354,678,o),
(356,678,o),
(360,677,c)
);
},
{
closed = 1;
nodes = (
(362,657,o),
(360,660,o),
(357,658,c),
(356,662,o),
(336,660,o),
(336,661,c),
(336,661,o),
(335,663,o),
(335,663,c),
(336,665,o),
(350,666,o),
(354,668,c),
(358,668,o),
(358,667,o),
(361,664,c),
(362,664,o),
(364,665,o),
(364,665,c),
(366,664,o),
(364,657,o),
(362,656,c)
);
},
{
closed = 1;
nodes = (
(358,642,l),
(355,644,o),
(356,646,o),
(354,650,c),
(351,652,o),
(334,657,o),
(334,657,c),
(334,657,o),
(335,660,o),
(335,660,c),
(336,660,o),
(353,657,o),
(358,657,c),
(358,656,o),
(358,654,o),
(361,651,c)
);
},
{
closed = 1;
nodes = (
(348,632,l),
(347,635,o),
(348,637,o),
(347,638,c),
(346,642,o),
(331,655,o),
(332,657,c),
(332,657,o),
(333,657,o),
(333,657,c),
(334,657,o),
(348,651,o),
(348,650,c),
(354,646,o),
(355,644,o),
(356,640,c)
);
},
{
closed = 1;
nodes = (
(344,635,o),
(344,632,o),
(342,630,c),
(341,630,o),
(337,625,o),
(335,628,c),
(334,628,o),
(339,633,o),
(338,634,c),
(336,640,o),
(329,645,o),
(327,652,c),
(326,655,o),
(331,655,o),
(331,655,c),
(335,647,o),
(343,642,o),
(344,636,c)
);
},
{
closed = 1;
nodes = (
(330,626,o),
(323,625,o),
(323,625,c),
(322,627,o),
(324,627,o),
(326,631,c),
(327,633,o),
(323,646,o),
(324,653,c),
(326,654,o),
(327,652,o),
(327,650,c),
(329,645,o),
(333,635,o),
(334,632,c),
(334,632,o),
(331,626,o),
(331,626,c)
);
},
{
closed = 1;
nodes = (
(308,626,l),
(314,630,o),
(315,632,o),
(315,636,c),
(317,639,o),
(320,652,o),
(321,653,c),
(321,653,o),
(323,653,o),
(323,653,c),
(323,653,o),
(324,641,o),
(322,638,c),
(323,631,o),
(322,630,o),
(317,626,c)
);
},
{
closed = 1;
nodes = (
(302,631,o),
(297,636,o),
(297,636,c),
(297,636,o),
(303,636,o),
(304,638,c),
(309,641,o),
(316,656,o),
(318,655,c),
(318,655,o),
(319,654,o),
(320,652,c),
(318,652,o),
(314,639,o),
(312,636,c),
(311,634,o),
(306,628,o),
(304,632,c)
);
},
{
closed = 1;
nodes = (
(293,639,o),
(288,646,o),
(288,646,c),
(289,646,o),
(295,645,o),
(298,646,c),
(300,647,o),
(314,658,o),
(316,658,c),
(316,658,o),
(316,657,o),
(316,656,c),
(310,651,o),
(306,640,o),
(300,639,c),
(299,639,o),
(296,638,o),
(296,640,c)
);
},
{
closed = 1;
nodes = (
(285,658,l),
(288,658,o),
(288,657,o),
(290,658,c),
(296,657,o),
(312,664,o),
(314,663,c),
(314,663,o),
(314,661,o),
(314,661,c),
(312,661,o),
(299,651,o),
(298,650,c),
(295,649,o),
(289,647,o),
(287,651,c)
);
},
{
closed = 1;
nodes = (
(288,672,o),
(290,669,o),
(292,668,c),
(294,668,o),
(312,667,o),
(314,667,c),
(314,667,o),
(313,664,o),
(313,664,c),
(312,664,o),
(295,661,o),
(294,660,c),
(292,660,o),
(288,661,o),
(286,666,c),
(286,666,o),
(287,672,o),
(287,672,c)
);
},
{
closed = 1;
nodes = (
(294,675,o),
(305,675,o),
(314,670,c),
(315,668,o),
(315,667,o),
(312,668,c),
(308,666,o),
(292,670,o),
(291,672,c),
(286,678,o),
(288,680,o),
(293,685,c)
);
},
{
closed = 1;
nodes = (
(298,684,o),
(311,680,o),
(316,673,c),
(318,672,o),
(315,671,o),
(314,670,c),
(310,673,o),
(299,680,o),
(297,683,c),
(294,692,o),
(295,692,o),
(302,694,c)
);
},
{
closed = 1;
nodes = (
(313,702,l),
(313,702,o),
(311,698,o),
(311,697,c),
(310,691,o),
(318,679,o),
(320,673,c),
(319,672,o),
(319,672,o),
(318,673,c),
(318,676,o),
(307,687,o),
(306,690,c),
(306,690,o),
(304,699,o),
(304,699,c)
);
},
{
closed = 1;
nodes = (
(319,658,o),
(318,666,o),
(321,668,c),
(329,673,o),
(334,659,o),
(324,659,c)
);
},
{
closed = 1;
nodes = (
(318,703,o),
(328,704,o),
(328,704,c),
(328,704,o),
(324,699,o),
(322,698,c),
(321,696,o),
(324,681,o),
(325,674,c),
(323,675,l),
(320,683,o),
(314,688,o),
(315,696,c),
(315,697,o),
(316,703,o),
(318,703,c)
);
},
{
closed = 1;
nodes = (
(341,701,l),
(338,699,o),
(336,697,o),
(335,697,c),
(332,695,o),
(328,680,o),
(330,674,c),
(329,674,o),
(327,673,o),
(326,675,c),
(326,676,o),
(324,692,o),
(326,694,c),
(325,696,o),
(330,700,o),
(333,703,c)
);
},
{
closed = 1;
nodes = (
(345,700,o),
(350,694,o),
(350,692,c),
(350,692,o),
(345,693,o),
(344,692,c),
(340,687,o),
(338,677,o),
(331,673,c),
(331,672,o),
(330,673,o),
(330,674,c),
(330,677,o),
(337,692,o),
(338,694,c),
(336,696,o),
(343,699,o),
(343,699,c)
);
},
{
closed = 1;
nodes = (
(358,682,l),
(355,681,o),
(354,683,o),
(352,682,c),
(348,681,o),
(341,673,o),
(334,671,c),
(332,669,o),
(332,670,o),
(333,674,c),
(334,675,o),
(342,685,o),
(343,687,c),
(347,689,o),
(350,690,o),
(355,691,c)
);
},
{
closed = 1;
nodes = (
(294,726,o),
(254,656,o),
(305,626,c),
(353,600,o),
(396,676,o),
(343,703,c)
);
},
{
attr = {
strokeWidth = 7;
};
closed = 1;
nodes = (
(375,656,o),
(364,629,o),
(339,620,c),
(314,611,o),
(288,625,o),
(280,648,c),
(271,673,o),
(282,698,o),
(307,707,c),
(331,716,o),
(358,704,o),
(367,680,c)
);
},
{
attr = {
lineCapEnd = 4;
lineCapStart = 4;
strokeWidth = 30;
};
closed = 0;
nodes = (
(165,-34,l),
(139,-16,o),
(82,27,o),
(51,105,c),
(16,187,o),
(33,270,o),
(47,320,c)
);
},
{
closed = 1;
nodes = (
(-5,303,l),
(42,308,l),
(77,273,l),
(70,383,l)
);
},
{
closed = 1;
nodes = (
(357,510,l),
(339,511,o),
(309,496,o),
(303,477,cs),
(135,0,l),
(149,-3,o),
(182,11,o),
(188,31,cs)
);
}
);
width = 460;
}
);
note = J;
unicode = 74;
},
{
glyphname = K;
lastChange = "2024-11-10 23:10:24 +0000";
layers = (
{
layerId = m003;
shapes = (
{
closed = 1;
nodes = (
(269,650,l),
(247,652,o),
(220,633,o),
(211,608,cs),
(0,0,l),
(18,-3,o),
(48,16,o),
(56,40,cs)
);
},
{
closed = 1;
nodes = (
(177,5,l),
(342,4,l),
(342,43,l),
(292,43,o),
(216,201,o),
(177,316,c),
(152,316,l)
);
},
{
attr = {
lineCapEnd = 4;
lineCapStart = 4;
strokeWidth = 30;
};
closed = 0;
nodes = (
(198,313,l),
(231,315,o),
(302,324,o),
(368,377,c),
(438,430,o),
(465,509,o),
(478,561,c)
);
},
{
closed = 1;
nodes = (
(429,535,l),
(476,548,l),
(514,521,l),
(489,627,l)
);
}
);
width = 534;
},
{
layerId = m002;
shapes = (
{
closed = 1;
nodes = (
(269,650,l),
(247,652,o),
(220,633,o),
(211,608,cs),
(0,0,l),
(18,-3,o),
(48,16,o),
(56,40,cs)
);
},
{
closed = 1;
nodes = (
(177,5,l),
(342,4,l),
(342,43,l),
(292,43,o),
(216,201,o),
(177,316,c),
(152,316,l)
);
},
{
attr = {
lineCapEnd = 4;
lineCapStart = 4;
strokeWidth = 30;
};
closed = 0;
nodes = (
(212,330,l),
(245,335,o),
(315,350,o),
(376,408,c),
(441,467,o),
(461,548,o),
(470,601,c)
);
},
{
closed = 1;
nodes = (
(423,571,l),
(469,588,l),
(509,565,l),
(475,668,l)
);
}
);
width = 534;
},
{
layerId = m004;
shapes = (
{
closed = 1;
nodes = (
(269,650,l),
(247,652,o),
(220,633,o),
(211,608,cs),
(0,0,l),
(18,-3,o),
(48,16,o),
(56,40,cs)
);
},
{
closed = 1;
nodes = (
(177,5,l),
(342,4,l),
(342,43,l),
(292,43,o),
(216,201,o),
(177,316,c),
(152,316,l)
);
},
{
attr = {
lineCapEnd = 4;
lineCapStart = 4;
strokeWidth = 30;
};
closed = 0;
nodes = (
(227,348,l),
(260,356,o),
(328,377,o),
(384,440,c),
(443,504,o),
(456,587,o),
(461,640,c)
);
},
{
closed = 1;
nodes = (
(416,606,l),
(461,627,l),
(503,608,l),
(460,707,l)
);
}
);
width = 534;
},
{
layerId = m005;
shapes = (
{
closed = 1;
nodes = (
(269,650,l),
(247,652,o),
(220,633,o),
(211,608,cs),
(0,0,l),
(18,-3,o),
(48,16,o),
(56,40,cs)
);
},
{
closed = 1;
nodes = (
(177,5,l),
(342,4,l),
(342,43,l),
(292,43,o),
(216,201,o),
(177,316,c),
(152,316,l)
);
},
{
attr = {
lineCapEnd = 4;
lineCapStart = 4;
strokeWidth = 30;
};
closed = 0;
nodes = (
(189,300,l),
(222,299,o),
(293,302,o),
(364,349,c),
(438,396,o),
(472,472,o),
(489,523,c)
);
},
{
closed = 1;
nodes = (
(438,501,l),
(486,510,l),
(522,480,l),
(506,588,l)
);
}
);
width = 534;
},
{
layerId = m006;
shapes = (
{
closed = 1;
nodes = (
(269,650,l),
(247,652,o),
(220,633,o),
(211,608,cs),
(0,0,l),
(18,-3,o),
(48,16,o),
(56,40,cs)
);
},
{
closed = 1;
nodes = (
(177,5,l),
(342,4,l),
(342,43,l),
(292,43,o),
(216,201,o),
(177,316,c),
(152,316,l)
);
},
{
attr = {
lineCapEnd = 4;
lineCapStart = 4;
strokeWidth = 30;
};
closed = 0;
nodes = (
(127,301,l),
(159,294,o),
(230,285,o),
(308,319,c),
(389,352,o),
(435,421,o),
(461,468,c)
);
},
{
closed = 1;
nodes = (
(407,456,l),
(455,456,l),
(486,420,l),
(489,529,l)
);
}
);
width = 534;
}
);
note = K;
unicode = 75;
},
{
glyphname = L;
lastChange = "2024-11-10 23:55:01 +0000";
layers = (
{
background = {
shapes = (
{
closed = 1;
nodes = (
(400,48,l),
(361,33,o),
(319,25,o),
(274,25,cs),
(200,25,o),
(129,46,o),
(70,84,c),
(251,582,l),
(228,590,l),
(49,100,l),
(37,110,o),
(27,117,o),
(16,128,c),
(-1,110,l),
(12,98,o),
(26,86,o),
(40,75,c),
(15,4,l),
(39,-4,l),
(63,61,l),
(123,22,o),
(195,0,o),
(272,0,cs),
(320,0,o),
(367,8,o),
(410,24,c)
);
}
);
};
hints = (
{
horizontal = 1;
place = (0,25.08);
type = Stem;
},
{
place = (13.2,410.52);
type = Stem;
}
);
layerId = m003;
shapes = (
{
closed = 1;
nodes = (
(268,650,l),
(246,652,o),
(219,633,o),
(210,608,cs),
(-1,0,l),
(17,-3,o),
(47,16,o),
(55,40,cs)
);
},
{
attr = {
lineCapEnd = 4;
lineCapStart = 4;
strokeWidth = 30;
};
closed = 0;
nodes = (
(13,150,l),
(31,123,o),
(74,66,o),
(153,35,c),
(234,1,o),
(316,17,o),
(368,32,c)
);
},
{
closed = 1;
nodes = (
(321,61,l),
(355,27,l),
(351,-19,l),
(430,55,l)
);
}
);
width = 509;
},
{
background = {
shapes = (
{
closed = 1;
nodes = (
(396,48,l),
(357,33,o),
(315,25,o),
(270,25,cs),
(196,25,o),
(125,46,o),
(66,84,c),
(247,582,l),
(224,590,l),
(45,100,l),
(33,110,o),
(23,117,o),
(12,128,c),
(-5,110,l),
(8,98,o),
(22,86,o),
(36,75,c),
(11,4,l),
(35,-4,l),
(59,61,l),
(119,22,o),
(191,0,o),
(268,0,cs),
(316,0,o),
(363,8,o),
(406,24,c)
);
}
);
};
hints = (
{
horizontal = 1;
place = (0,25.08);
type = Stem;
},
{
place = (13.2,410.52);
type = Stem;
}
);
layerId = m002;
shapes = (
{
closed = 1;
nodes = (
(264,650,l),
(242,652,o),
(215,633,o),
(206,608,cs),
(-5,0,l),
(13,-3,o),
(43,16,o),
(51,40,cs)
);
},
{
attr = {
lineCapEnd = 4;
lineCapStart = 4;
strokeWidth = 30;
};
closed = 0;
nodes = (
(32,132,l),
(53,106,o),
(101,53,o),
(182,29,c),
(266,2,o),
(346,25,o),
(396,45,c)
);
},
{
closed = 1;
nodes = (
(347,70,l),
(384,39,l),
(384,-7,l),
(456,73,l)
);
}
);
width = 509;
},
{
background = {
shapes = (
{
closed = 1;
nodes = (
(396,48,l),
(357,33,o),
(315,25,o),
(270,25,cs),
(196,25,o),
(125,46,o),
(66,84,c),
(247,582,l),
(224,590,l),
(45,100,l),
(33,110,o),
(23,117,o),
(12,128,c),
(-5,110,l),
(8,98,o),
(22,86,o),
(36,75,c),
(11,4,l),
(35,-4,l),
(59,61,l),
(119,22,o),
(191,0,o),
(268,0,cs),
(316,0,o),
(363,8,o),
(406,24,c)
);
}
);
};
hints = (
{
horizontal = 1;
place = (0,25.08);
type = Stem;
},
{
place = (13.2,410.52);
type = Stem;
}
);
layerId = m004;
shapes = (
{
closed = 1;
nodes = (
(264,650,l),
(242,652,o),
(215,633,o),
(206,608,cs),
(-5,0,l),
(13,-3,o),
(43,16,o),
(51,40,cs)
);
},
{
attr = {
lineCapEnd = "4";
lineCapStart = "4";
strokeWidth = 30;
};
closed = 0;
nodes = (
(57,113,l),
(80,89,o),
(132,41,o),
(215,24,c),
(301,4,o),
(379,34,o),
(427,58,c)
);
},
{
closed = 1;
nodes = (
(376,79,l),
(416,51,l),
(420,5,l),
(484,91,l)
);
}
);
width = 509;
},
{
background = {
shapes = (
{
closed = 1;
nodes = (
(421,48,l),
(382,33,o),
(340,25,o),
(295,25,cs),
(221,25,o),
(150,46,o),
(91,84,c),
(272,582,l),
(249,590,l),
(70,100,l),
(58,110,o),
(48,117,o),
(37,128,c),
(20,110,l),
(33,98,o),
(47,86,o),
(61,75,c),
(36,4,l),
(60,-4,l),
(84,61,l),
(144,22,o),
(216,0,o),
(293,0,cs),
(341,0,o),
(388,8,o),
(431,24,c)
);
}
);
};
hints = (
{
horizontal = 1;
place = (0,25.08);
type = Stem;
},
{
place = (13.2,410.52);
type = Stem;
}
);
layerId = m005;
shapes = (
{
closed = 1;
nodes = (
(289,650,l),
(267,652,o),
(240,633,o),
(231,608,cs),
(20,0,l),
(38,-3,o),
(68,16,o),
(76,40,cs)
);
},
{
attr = {
lineCapEnd = 4;
lineCapStart = 4;
strokeWidth = 30;
};
closed = 0;
nodes = (
(12,168,l),
(28,139,o),
(66,79,o),
(142,41,c),
(220,0,o),
(303,9,o),
(356,19,c)
);
},
{
closed = 1;
nodes = (
(311,52,l),
(342,15,l),
(334,-30,l),
(420,37,l)
);
}
);
width = 509;
},
{
layerId = m006;
shapes = (
{
closed = 1;
nodes = (
(310,650,l),
(288,652,o),
(261,633,o),
(252,608,cs),
(41,0,l),
(59,-3,o),
(89,16,o),
(97,40,cs)
);
},
{
attr = {
lineCapEnd = "4";
lineCapStart = "4";
strokeWidth = 30;
};
closed = 0;
nodes = (
(12,195,l),
(26,165,o),
(58,102,o),
(131,58,c),
(205,10,o),
(288,12,o),
(342,17,c)
);
},
{
closed = 1;
nodes = (
(300,54,l),
(328,14,l),
(316,-30,l),
(407,29,l)
);
}
);
width = 509;
}
);
note = L;
unicode = 76;
},
{
glyphname = M;
lastChange = "2024-11-10 23:06:03 +0000";
layers = (
{
background = {
shapes = (
{
closed = 1;
nodes = (
(478,582,l),
(478,581,l),
(477,581,l),
(477,466,o),
(384,372,o),
(269,370,c),
(219,508,l),
(265,635,l),
(240,644,l),
(13,11,l),
(37,1,l),
(206,471,l),
(334,116,l),
(358,125,l),
(279,345,l),
(366,350,o),
(441,401,o),
(478,475,c),
(478,0,l),
(503,0,l),
(503,582,l)
);
}
);
};
hints = (
{
horizontal = 1;
place = (344.52,25.08);
type = Stem;
},
{
horizontal = 1;
place = (0,21);
target = up;
type = BottomGhost;
},
{
place = (477.84,25.08);
type = Stem;
}
);
layerId = m003;
shapes = (
{
closed = 1;
nodes = (
(18,-3,o),
(48,16,o),
(56,40,cs),
(269,650,l),
(247,652,o),
(220,633,o),
(211,608,cs),
(0,0,l)
);
},
{
closed = 1;
nodes = (
(280,550,l),
(326,348,o),
(415,36,o),
(474,36,c),
(474,0,l),
(280,1,l),
(251,550,l)
);
},
{
closed = 1;
nodes = (
(485,648,l),
(539,410,o),
(644,38,o),
(714,38,c),
(714,-1,l),
(485,0,l),
(451,648,l)
);
}
);
width = 734;
},
{
background = {
shapes = (
{
closed = 1;
nodes = (
(478,582,l),
(478,581,l),
(477,581,l),
(477,466,o),
(384,372,o),
(269,370,c),
(219,508,l),
(265,635,l),
(240,644,l),
(13,11,l),
(37,1,l),
(206,471,l),
(334,116,l),
(358,125,l),
(279,345,l),
(366,350,o),
(441,401,o),
(478,475,c),
(478,0,l),
(503,0,l),
(503,582,l)
);
}
);
};
hints = (
{
horizontal = 1;
place = (344.52,25.08);
type = Stem;
},
{
horizontal = 1;
place = (0,21);
target = up;
type = BottomGhost;
},
{
place = (477.84,25.08);
type = Stem;
}
);
layerId = m002;
shapes = (
{
closed = 1;
nodes = (
(18,-3,o),
(48,16,o),
(56,40,cs),
(269,650,l),
(247,652,o),
(220,633,o),
(211,608,cs),
(0,0,l)
);
},
{
closed = 1;
nodes = (
(280,550,l),
(326,348,o),
(415,36,o),
(474,36,c),
(474,0,l),
(280,1,l),
(251,550,l)
);
},
{
closed = 1;
nodes = (
(485,648,l),
(539,410,o),
(644,38,o),
(714,38,c),
(714,-1,l),
(485,0,l),
(451,648,l)
);
}
);
width = 734;
},
{
background = {
shapes = (
{
closed = 1;
nodes = (
(478,582,l),
(478,581,l),
(477,581,l),
(477,466,o),
(384,372,o),
(269,370,c),
(219,508,l),
(265,635,l),
(240,644,l),
(13,11,l),
(37,1,l),
(206,471,l),
(334,116,l),
(358,125,l),
(279,345,l),
(366,350,o),
(441,401,o),
(478,475,c),
(478,0,l),
(503,0,l),
(503,582,l)
);
}
);
};
hints = (
{
horizontal = 1;
place = (344.52,25.08);
type = Stem;
},
{
horizontal = 1;
place = (0,21);
target = up;
type = BottomGhost;
},
{
place = (477.84,25.08);
type = Stem;
}
);
layerId = m004;
shapes = (
{
closed = 1;
nodes = (
(18,-3,o),
(48,16,o),
(56,40,cs),
(269,650,l),
(247,652,o),
(220,633,o),
(211,608,cs),
(0,0,l)
);
},
{
closed = 1;
nodes = (
(280,550,l),
(326,348,o),
(415,36,o),
(474,36,c),
(474,0,l),
(280,1,l),
(251,550,l)
);
},
{
closed = 1;
nodes = (
(485,648,l),
(539,410,o),
(644,38,o),
(714,38,c),
(714,-1,l),
(485,0,l),
(451,648,l)
);
}
);
width = 734;
},
{
background = {
shapes = (
{
closed = 1;
nodes = (
(478,582,l),
(478,581,l),
(477,581,l),
(477,466,o),
(384,372,o),
(269,370,c),
(219,508,l),
(265,635,l),
(240,644,l),
(13,11,l),
(37,1,l),
(206,471,l),
(334,116,l),
(358,125,l),
(279,345,l),
(366,350,o),
(441,401,o),
(478,475,c),
(478,0,l),
(503,0,l),
(503,582,l)
);
}
);
};
hints = (
{
horizontal = 1;
place = (344.52,25.08);
type = Stem;
},
{
horizontal = 1;
place = (0,21);
target = up;
type = BottomGhost;
},
{
place = (477.84,25.08);
type = Stem;
}
);
layerId = m005;
shapes = (
{
closed = 1;
nodes = (
(18,-3,o),
(48,16,o),
(56,40,cs),
(269,650,l),
(247,652,o),
(220,633,o),
(211,608,cs),
(0,0,l)
);
},
{
closed = 1;
nodes = (
(280,550,l),
(326,348,o),
(415,36,o),
(474,36,c),
(474,0,l),
(280,1,l),
(251,550,l)
);
},
{
closed = 1;
nodes = (
(485,648,l),
(539,410,o),
(644,38,o),
(714,38,c),
(714,-1,l),
(485,0,l),
(451,648,l)
);
}
);
width = 734;
},
{
background = {
shapes = (
{
closed = 1;
nodes = (
(478,582,l),
(478,581,l),
(477,581,l),
(477,466,o),
(384,372,o),
(269,370,c),
(219,508,l),
(265,635,l),
(240,644,l),
(13,11,l),
(37,1,l),
(206,471,l),
(334,116,l),
(358,125,l),
(279,345,l),
(366,350,o),
(441,401,o),
(478,475,c),
(478,0,l),
(503,0,l),
(503,582,l)
);
}
);
};
hints = (
{
horizontal = 1;
place = (344.52,25.08);
type = Stem;
},
{
horizontal = 1;
place = (0,21);
target = up;
type = BottomGhost;
},
{
place = (477.84,25.08);
type = Stem;
}
);
layerId = m006;
shapes = (
{
closed = 1;
nodes = (
(18,-3,o),
(48,16,o),
(56,40,cs),
(269,650,l),
(247,652,o),
(220,633,o),
(211,608,cs),
(0,0,l)
);
},
{
closed = 1;
nodes = (
(280,550,l),
(326,348,o),
(415,36,o),
(474,36,c),
(474,0,l),
(280,1,l),
(251,550,l)
);
},
{
closed = 1;
nodes = (
(485,648,l),
(539,410,o),
(644,38,o),
(714,38,c),
(714,-1,l),
(485,0,l),
(451,648,l)
);
}
);
width = 734;
}
);
note = M;
unicode = 77;
},
{
glyphname = N;
lastChange = "2024-11-10 23:06:03 +0000";
layers = (
{
background = {
shapes = (
{
closed = 1;
nodes = (
(548,572,l),
(396,154,l),
(244,574,l),
(265,631,l),
(240,640,l),
(13,7,l),
(37,-3,l),
(231,537,l),
(383,116,l),
(343,7,l),
(367,-3,l),
(572,564,l)
);
}
);
};
hints = (
{
horizontal = 1;
place = (-2.64,21);
target = up;
type = BottomGhost;
}
);
layerId = m003;
shapes = (
{
closed = 1;
nodes = (
(18,-3,o),
(48,16,o),
(56,40,cs),
(269,650,l),
(247,652,o),
(220,633,o),
(211,608,cs),
(0,0,l)
);
},
{
closed = 1;
nodes = (
(280,550,l),
(326,348,o),
(415,36,o),
(474,36,c),
(474,0,l),
(280,1,l),
(251,550,l)
);
},
{
closed = 1;
nodes = (
(510,-3,o),
(540,16,o),
(548,40,cs),
(761,650,l),
(739,652,o),
(712,633,o),
(703,608,cs),
(492,0,l)
);
}
);
width = 781;
},
{
background = {
shapes = (
{
closed = 1;
nodes = (
(548,572,l),
(396,154,l),
(244,574,l),
(265,631,l),
(240,640,l),
(13,7,l),
(37,-3,l),
(231,537,l),
(383,116,l),
(343,7,l),
(367,-3,l),
(572,564,l)
);
}
);
};
hints = (
{
horizontal = 1;
place = (-2.64,21);
target = up;
type = BottomGhost;
}
);
layerId = m002;
shapes = (
{
closed = 1;
nodes = (
(18,-3,o),
(48,16,o),
(56,40,cs),
(269,650,l),
(247,652,o),
(220,633,o),
(211,608,cs),
(0,0,l)
);
},
{
closed = 1;
nodes = (
(280,550,l),
(326,348,o),
(415,36,o),
(474,36,c),
(474,0,l),
(280,1,l),
(251,550,l)
);
},
{
closed = 1;
nodes = (
(510,-3,o),
(540,16,o),
(548,40,cs),
(761,650,l),
(739,652,o),
(712,633,o),
(703,608,cs),
(492,0,l)
);
}
);
width = 781;
},
{
background = {
shapes = (
{
closed = 1;
nodes = (
(548,572,l),
(396,154,l),
(244,574,l),
(265,631,l),
(240,640,l),
(13,7,l),
(37,-3,l),
(231,537,l),
(383,116,l),
(343,7,l),
(367,-3,l),
(572,564,l)
);
}
);
};
hints = (
{
horizontal = 1;
place = (-2.64,21);
target = up;
type = BottomGhost;
}
);
layerId = m004;
shapes = (
{
closed = 1;
nodes = (
(18,-3,o),
(48,16,o),
(56,40,cs),
(269,650,l),
(247,652,o),
(220,633,o),
(211,608,cs),
(0,0,l)
);
},
{
closed = 1;
nodes = (
(280,550,l),
(326,348,o),
(415,36,o),
(474,36,c),
(474,0,l),
(280,1,l),
(251,550,l)
);
},
{
closed = 1;
nodes = (
(510,-3,o),
(540,16,o),
(548,40,cs),
(761,650,l),
(739,652,o),
(712,633,o),
(703,608,cs),
(492,0,l)
);
}
);
width = 781;
},
{
background = {
shapes = (
{
closed = 1;
nodes = (
(548,572,l),
(396,154,l),
(244,574,l),
(265,631,l),
(240,640,l),
(13,7,l),
(37,-3,l),
(231,537,l),
(383,116,l),
(343,7,l),
(367,-3,l),
(572,564,l)
);
}
);
};
hints = (
{
horizontal = 1;
place = (-2.64,21);
target = up;
type = BottomGhost;
}
);
layerId = m005;
shapes = (
{
closed = 1;
nodes = (
(18,-3,o),
(48,16,o),
(56,40,cs),
(269,650,l),
(247,652,o),
(220,633,o),
(211,608,cs),
(0,0,l)
);
},
{
closed = 1;
nodes = (
(280,550,l),
(326,348,o),
(415,36,o),
(474,36,c),
(474,0,l),
(280,1,l),
(251,550,l)
);
},
{
closed = 1;
nodes = (
(510,-3,o),
(540,16,o),
(548,40,cs),
(761,650,l),
(739,652,o),
(712,633,o),
(703,608,cs),
(492,0,l)
);
}
);
width = 781;
},
{
background = {
shapes = (
{
closed = 1;
nodes = (
(548,572,l),
(396,154,l),
(244,574,l),
(265,631,l),
(240,640,l),
(13,7,l),
(37,-3,l),
(231,537,l),
(383,116,l),
(343,7,l),
(367,-3,l),
(572,564,l)
);
}
);
};
hints = (
{
horizontal = 1;
place = (-2.64,21);
target = up;
type = BottomGhost;
}
);
layerId = m006;
shapes = (
{
closed = 1;
nodes = (
(18,-3,o),
(48,16,o),
(56,40,cs),
(269,650,l),
(247,652,o),
(220,633,o),
(211,608,cs),
(0,0,l)
);
},
{
closed = 1;
nodes = (
(280,550,l),
(326,348,o),
(415,36,o),
(474,36,c),
(474,0,l),
(280,1,l),
(251,550,l)
);
},
{
closed = 1;
nodes = (
(510,-3,o),
(540,16,o),
(548,40,cs),
(761,650,l),
(739,652,o),
(712,633,o),
(703,608,cs),
(492,0,l)
);
}
);
width = 781;
}
);
note = N;
unicode = 78;
},
{
glyphname = O;
lastChange = "2024-11-11 00:11:10 +0000";
layers = (
{
hints = (
{
horizontal = 1;
place = (452.76,26.4);
type = Stem;
},
{
horizontal = 1;
place = (-5.28,26.4);
type = Stem;
},
{
place = (567.6,25.08);
type = Stem;
},
{
place = (77.88,26.4);
type = Stem;
}
);
layerId = m003;
shapes = (
{
closed = 1;
nodes = (
(559,216,l),
(542,227,o),
(534,244,o),
(513,249,c),
(496,250,o),
(396,250,o),
(393,255,c),
(392,257,o),
(392,267,o),
(393,271,c),
(398,274,o),
(491,292,o),
(500,292,c),
(528,292,o),
(537,281,o),
(561,272,c)
);
},
{
closed = 1;
nodes = (
(520,153,o),
(513,173,o),
(502,181,c),
(488,192,o),
(382,227,o),
(382,235,c),
(382,235,o),
(387,244,o),
(389,244,c),
(393,249,o),
(472,235,o),
(485,233,c),
(516,227,o),
(520,219,o),
(537,198,c),
(542,195,o),
(548,195,o),
(548,192,c),
(550,187,o),
(531,143,o),
(522,139,c)
);
},
{
closed = 1;
nodes = (
(469,78,l),
(458,92,o),
(469,106,o),
(463,125,c),
(452,142,o),
(367,207,o),
(370,216,c),
(370,219,o),
(375,224,o),
(376,224,c),
(382,227,o),
(474,174,o),
(485,165,c),
(499,153,o),
(499,133,o),
(506,117,c)
);
},
{
closed = 1;
nodes = (
(396,41,l),
(393,55,o),
(403,63,o),
(403,74,c),
(404,105,o),
(341,201,o),
(345,207,c),
(345,207,o),
(356,209,o),
(359,209,c),
(364,207,o),
(421,143,o),
(429,133,c),
(446,106,o),
(446,94,o),
(446,63,c)
);
},
{
closed = 1;
nodes = (
(376,60,o),
(367,33,o),
(361,33,c),
(353,33,o),
(313,30,o),
(313,33,c),
(311,33,o),
(333,55,o),
(334,68,c),
(341,103,o),
(324,159,o),
(322,198,c),
(322,207,o),
(334,201,o),
(339,202,c),
(350,159,o),
(387,111,o),
(378,63,c)
);
},
{
closed = 1;
nodes = (
(269,33,o),
(246,46,o),
(232,49,c),
(237,60,o),
(252,61,o),
(262,71,c),
(283,89,o),
(285,173,o),
(297,202,c),
(311,213,o),
(313,195,o),
(316,184,c),
(317,157,o),
(322,89,o),
(308,68,c),
(307,63,o),
(285,38,o),
(283,35,c)
);
},
{
closed = 1;
nodes = (
(161,94,l),
(189,103,o),
(200,103,o),
(217,125,c),
(231,139,o),
(272,213,o),
(279,218,c),
(280,218,o),
(291,213,o),
(291,213,c),
(294,207,o),
(269,136,o),
(265,125,c),
(251,89,o),
(241,77,o),
(204,63,c)
);
},
{
closed = 1;
nodes = (
(133,125,o),
(111,162,o),
(111,164,c),
(113,164,o),
(145,157,o),
(161,162,c),
(181,168,o),
(262,241,o),
(269,235,c),
(272,235,o),
(272,224,o),
(269,219,c),
(263,207,o),
(209,139,o),
(195,133,c),
(183,122,o),
(149,111,o),
(138,122,c)
);
},
{
closed = 1;
nodes = (
(97,195,o),
(87,238,o),
(90,238,c),
(91,241,o),
(119,223,o),
(133,223,c),
(152,224,o),
(254,263,o),
(259,260,c),
(259,260,o),
(263,246,o),
(259,244,c),
(217,223,o),
(178,179,o),
(130,184,c),
(122,184,o),
(102,185,o),
(100,192,c)
);
},
{
closed = 1;
nodes = (
(91,322,l),
(102,319,o),
(107,305,o),
(113,298,c),
(141,278,o),
(251,289,o),
(259,283,c),
(259,283,o),
(259,271,o),
(257,267,c),
(252,266,o),
(156,246,o),
(149,244,c),
(124,244,o),
(97,257,o),
(85,274,c)
);
},
{
closed = 1;
nodes = (
(130,394,o),
(135,370,o),
(149,359,c),
(166,343,o),
(265,311,o),
(269,305,c),
(269,305,o),
(263,294,o),
(262,292,c),
(252,289,o),
(155,305,o),
(139,311,c),
(130,319,o),
(102,342,o),
(102,353,c),
(102,359,o),
(122,401,o),
(128,396,c)
);
},
{
closed = 1;
nodes = (
(172,396,o),
(246,365,o),
(280,326,c),
(283,314,o),
(276,311,o),
(265,314,c),
(243,320,o),
(167,365,o),
(156,385,c),
(133,427,o),
(149,435,o),
(183,460,c)
);
},
{
closed = 1;
nodes = (
(224,439,o),
(286,387,o),
(300,340,c),
(305,326,o),
(294,326,o),
(285,333,c),
(265,346,o),
(209,413,o),
(206,435,c),
(198,483,o),
(215,486,o),
(257,494,c)
);
},
{
closed = 1;
nodes = (
(334,505,l),
(339,503,o),
(319,486,o),
(317,481,c),
(302,450,o),
(327,373,o),
(328,337,c),
(324,333,o),
(316,333,o),
(311,337,c),
(307,343,o),
(269,439,o),
(269,450,c),
(269,460,o),
(280,505,o),
(286,505,c)
);
},
{
closed = 1;
nodes = (
(286,249,o),
(290,292,o),
(313,298,c),
(370,311,o),
(367,223,o),
(311,241,c)
);
},
{
closed = 1;
nodes = (
(370,505,o),
(415,492,o),
(415,487,c),
(415,483,o),
(396,475,o),
(392,470,c),
(367,449,o),
(361,365,o),
(353,333,c),
(334,337,l),
(339,379,o),
(322,432,o),
(339,470,c),
(341,472,o),
(361,500,o),
(364,500,c)
);
},
{
closed = 1;
nodes = (
(485,444,l),
(477,435,o),
(463,439,o),
(452,435,c),
(429,424,o),
(389,343,o),
(372,319,c),
(367,320,o),
(359,325,o),
(359,331,c),
(359,340,o),
(387,421,o),
(393,433,c),
(404,455,o),
(424,466,o),
(446,475,c)
);
},
{
closed = 1;
nodes = (
(511,421,o),
(537,379,o),
(534,374,c),
(533,374,o),
(502,381,o),
(488,379,c),
(465,370,o),
(415,319,o),
(389,305,c),
(376,298,o),
(378,311,o),
(382,320,c),
(389,337,o),
(446,407,o),
(463,413,c),
(468,416,o),
(502,422,o),
(506,422,c)
);
},
{
closed = 1;
nodes = (
(561,298,l),
(545,298,o),
(537,314,o),
(520,314,c),
(488,315,o),
(432,286,o),
(398,278,c),
(382,278,o),
(387,289,o),
(396,297,c),
(404,308,o),
(469,346,o),
(480,351,c),
(506,359,o),
(522,354,o),
(548,353,c)
);
},
{
closed = 1;
nodes = (
(285,683,o),
(-87,351,o),
(133,99,c),
(355,-154,o),
(748,195,o),
(511,444,c)
);
},
{
attr = {
strokeWidth = 7;
};
closed = 1;
nodes = (
(601,116,o),
(474,-8,o),
(322,-8,c),
(167,-8,o),
(43,116,o),
(43,271,c),
(43,422,o),
(167,548,o),
(322,548,c),
(474,548,o),
(601,422,o),
(601,271,c)
);
},
{
attr = {
lineCapEnd = 4;
lineCapStart = 4;
strokeWidth = 30;
};
closed = 0;
nodes = (
(407,613,l),
(355,628,o),
(273,644,o),
(192,610,c),
(113,579,o),
(70,522,o),
(52,495,c)
);
},
{
closed = 1;
nodes = (
(390,664,l),
(394,618,l),
(360,584,l),
(469,590,l)
);
}
);
width = 646;
},
{
hints = (
{
horizontal = 1;
place = (452.76,26.4);
type = Stem;
},
{
horizontal = 1;
place = (-5.28,26.4);
type = Stem;
},
{
place = (567.6,25.08);
type = Stem;
},
{
place = (77.88,26.4);
type = Stem;
}
);
layerId = m002;
shapes = (
{
closed = 1;
nodes = (
(557,177,l),
(542,191,o),
(537,209,o),
(518,218,c),
(501,221,o),
(402,239,o),
(400,244,c),
(400,246,o),
(401,256,o),
(403,260,c),
(409,262,o),
(503,264,o),
(512,262,c),
(540,257,o),
(547,245,o),
(569,232,c)
);
},
{
closed = 1;
nodes = (
(508,122,o),
(504,143,o),
(495,152,c),
(483,166,o),
(385,219,o),
(386,227,c),
(386,227,o),
(393,235,o),
(395,234,c),
(399,238,o),
(475,211,o),
(487,207,c),
(517,195,o),
(519,187,o),
(532,163,c),
(537,159,o),
(543,158,o),
(542,155,c),
(543,150,o),
(517,110,o),
(507,108,c)
);
},
{
closed = 1;
nodes = (
(445,57,l),
(436,72,o),
(449,84,o),
(447,104,c),
(439,123,o),
(366,202,o),
(371,210,c),
(371,213,o),
(377,217,o),
(378,217,c),
(385,219,o),
(466,150,o),
(475,140,c),
(487,125,o),
(484,106,o),
(488,89,c)
);
},
{
closed = 1;
nodes = (
(366,33,l),
(366,47,o),
(377,53,o),
(379,64,c),
(385,95,o),
(340,200,o),
(345,205,c),
(345,205,o),
(356,205,o),
(359,205,c),
(364,202,o),
(409,129,o),
(415,118,c),
(427,88,o),
(425,77,o),
(419,46,c)
);
},
{
closed = 1;
nodes = (
(350,55,o),
(336,30,o),
(330,31,c),
(322,33,o),
(283,37,o),
(283,40,c),
(281,40,o),
(307,58,o),
(310,70,c),
(323,104,o),
(316,162,o),
(321,200,c),
(322,209,o),
(333,201,o),
(338,201,c),
(341,157,o),
(369,104,o),
(352,58,c)
);
},
{
closed = 1;
nodes = (
(240,47,o),
(219,64,o),
(206,69,c),
(213,79,o),
(228,78,o),
(239,86,c),
(263,100,o),
(280,182,o),
(297,209,c),
(312,217,o),
(311,199,o),
(312,188,c),
(309,161,o),
(302,93,o),
(284,75,c),
(282,70,o),
(256,49,o),
(254,47,c)
);
},
{
closed = 1;
nodes = (
(144,126,l),
(173,130,o),
(184,128,o),
(205,147,c),
(221,158,o),
(274,224,o),
(282,228,c),
(283,227,o),
(293,221,o),
(293,221,c),
(295,214,o),
(258,149,o),
(252,138,c),
(232,105,o),
(220,95,o),
(181,88,c)
);
},
{
closed = 1;
nodes = (
(122,161,o),
(107,202,o),
(107,204,c),
(109,203,o),
(139,191,o),
(156,193,c),
(177,195,o),
(269,253,o),
(275,246,c),
(278,246,o),
(276,235,o),
(272,230,c),
(264,220,o),
(199,162,o),
(184,159,c),
(170,150,o),
(135,145,o),
(126,158,c)
);
},
{
closed = 1;
nodes = (
(98,237,o),
(96,281,o),
(99,280,c),
(101,283,o),
(125,260,o),
(139,258,c),
(158,256,o),
(265,276,o),
(269,272,c),
(269,272,o),
(271,258,o),
(267,257,c),
(222,243,o),
(175,207,o),
(129,220,c),
(121,221,o),
(102,226,o),
(101,233,c)
);
},
{
closed = 1;
nodes = (
(115,363,l),
(125,358,o),
(127,343,o),
(132,335,c),
(156,311,o),
(266,302,o),
(273,295,c),
(273,295,o),
(271,283,o),
(269,280,c),
(263,280,o),
(165,277,o),
(158,276,c),
(134,280,o),
(109,298,o),
(100,316,c)
);
},
{
closed = 1;
nodes = (
(166,427,o),
(166,402,o),
(178,389,c),
(192,370,o),
(284,322,o),
(287,315,c),
(287,315,o),
(279,305,o),
(278,303,c),
(267,302,o),
(175,335,o),
(160,344,c),
(153,353,o),
(129,381,o),
(131,391,c),
(132,397,o),
(159,435,o),
(164,429,c)
);
},
{
closed = 1;
nodes = (
(207,422,o),
(275,378,o),
(301,334,c),
(302,321,o),
(295,320,o),
(285,325,c),
(264,334,o),
(197,392,o),
(190,413,c),
(174,459,o),
(191,464,o),
(229,483,c)
);
},
{
closed = 1;
nodes = (
(266,455,o),
(318,393,o),
(324,344,c),
(326,329,o),
(315,331,o),
(308,340,c),
(290,356,o),
(247,432,o),
(247,454,c),
(248,503,o),
(265,503,o),
(308,503,c)
);
},
{
closed = 1;
nodes = (
(386,501,l),
(390,498,o),
(368,485,o),
(365,480,c),
(345,452,o),
(356,372,o),
(351,336,c),
(346,333,o),
(338,334,o),
(334,339,c),
(331,346,o),
(310,447,o),
(312,458,c),
(314,468,o),
(333,510,o),
(338,509,c)
);
},
{
closed = 1;
nodes = (
(294,257,o),
(305,299,o),
(329,301,c),
(387,303,o),
(369,217,o),
(317,245,c)
);
},
{
closed = 1;
nodes = (
(421,494,o),
(463,474,o),
(462,469,c),
(462,465,o),
(442,460,o),
(437,456,c),
(408,440,o),
(388,358,o),
(375,328,c),
(357,335,l),
(369,376,o),
(361,431,o),
(385,465,c),
(387,467,o),
(411,491,o),
(414,491,c)
);
},
{
closed = 1;
nodes = (
(524,414,l),
(514,407,o),
(501,413,o),
(490,411,c),
(465,404,o),
(412,332,o),
(391,311,c),
(386,313,o),
(379,319,o),
(380,325,c),
(382,334,o),
(423,409,o),
(431,420,c),
(446,439,o),
(468,447,o),
(491,452,c)
);
},
{
closed = 1;
nodes = (
(545,387,o),
(564,341,o),
(560,337,c),
(559,337,o),
(530,349,o),
(515,350,c),
(491,345,o),
(433,303,o),
(405,294,c),
(391,290,o),
(395,302,o),
(401,310,c),
(411,326,o),
(479,385,o),
(497,388,c),
(502,390,o),
(537,390,o),
(541,389,c)
);
},
{
closed = 1;
nodes = (
(573,257,l),
(558,260,o),
(552,277,o),
(536,280,c),
(504,287,o),
(444,268,o),
(409,266,c),
(394,269,o),
(400,279,o),
(411,285,c),
(420,295,o),
(491,321,o),
(503,324,c),
(530,327,o),
(545,319,o),
(570,314,c)
);
},
{
closed = 1;
nodes = (
(368,685,o),
(-56,422,o),
(117,136,c),
(292,-152,o),
(740,124,o),
(549,410,c)
);
},
{
attr = {
strokeWidth = 7;
};
closed = 1;
nodes = (
(581,71,o),
(435,-29,o),
(285,-2,c),
(132,25,o),
(32,168,o),
(58,321,c),
(85,470,o),
(229,572,o),
(381,545,c),
(531,519,o),
(634,373,o),
(608,224,c)
);
},
{
attr = {
lineCapEnd = "4";
lineCapStart = "4";
strokeWidth = 30;
};
closed = 0;
nodes = (
(439,600,l),
(389,620,o),
(309,643,o),
(225,616,c),
(144,592,o),
(96,539,o),
(75,513,c)
);
},
{
closed = 1;
nodes = (
(427,652,l),
(427,606,l),
(390,575,l),
(499,572,l)
);
}
);
width = 646;
},
{
hints = (
{
horizontal = 1;
place = (452.76,26.4);
type = Stem;
},
{
horizontal = 1;
place = (-5.28,26.4);
type = Stem;
},
{
place = (567.6,25.08);
type = Stem;
},
{
place = (77.88,26.4);
type = Stem;
}
);
layerId = m004;
shapes = (
{
closed = 1;
nodes = (
(548,141,l),
(536,157,o),
(534,176,o),
(517,188,c),
(501,194,o),
(406,229,o),
(405,234,c),
(406,236,o),
(408,246,o),
(411,250,c),
(417,250,o),
(510,236,o),
(519,233,c),
(545,223,o),
(550,210,o),
(570,193,c)
);
},
{
closed = 1;
nodes = (
(490,95,o),
(490,117,o),
(483,127,c),
(473,143,o),
(386,212,o),
(388,220,c),
(388,220,o),
(397,227,o),
(399,225,c),
(403,229,o),
(473,189,o),
(484,183,c),
(512,166,o),
(513,157,o),
(521,132,c),
(525,127,o),
(531,125,o),
(530,122,c),
(530,117,o),
(497,82,o),
(487,82,c)
);
},
{
closed = 1;
nodes = (
(417,42,l),
(411,59,o),
(426,68,o),
(427,88,c),
(423,108,o),
(364,199,o),
(371,206,c),
(371,209,o),
(378,212,o),
(379,212,c),
(386,212,o),
(454,130,o),
(461,119,c),
(470,102,o),
(464,84,o),
(465,66,c)
);
},
{
closed = 1;
nodes = (
(335,32,l),
(338,46,o),
(349,50,o),
(353,61,c),
(365,90,o),
(338,201,o),
(344,205,c),
(344,205,o),
(355,204,o),
(358,203,c),
(362,199,o),
(394,119,o),
(398,108,c),
(405,76,o),
(401,65,o),
(390,36,c)
);
},
{
closed = 1;
nodes = (
(323,57,o),
(305,35,o),
(299,37,c),
(292,40,o),
(254,51,o),
(255,54,c),
(253,54,o),
(281,67,o),
(286,79,c),
(305,110,o),
(308,168,o),
(320,205,c),
(322,213,o),
(332,204,o),
(337,203,c),
(332,159,o),
(350,102,o),
(326,59,c)
);
},
{
closed = 1;
nodes = (
(213,68,o),
(196,88,o),
(184,96,c),
(192,104,o),
(207,101,o),
(219,107,c),
(245,116,o),
(276,194,o),
(298,218,c),
(314,223,o),
(310,205,o),
(309,194,c),
(301,168,o),
(282,103,o),
(262,88,c),
(259,83,o),
(230,67,o),
(227,66,c)
);
},
{
closed = 1;
nodes = (
(133,163,l),
(162,161,o),
(172,158,o),
(196,173,c),
(214,181,o),
(278,236,o),
(286,239,c),
(287,238,o),
(296,230,o),
(296,230,c),
(297,223,o),
(249,165,o),
(241,156,c),
(216,127,o),
(202,119,o),
(162,119,c)
);
},
{
closed = 1;
nodes = (
(117,201,o),
(109,244,o),
(110,246,c),
(112,244,o),
(139,227,o),
(156,226,c),
(177,225,o),
(278,266,o),
(282,258,c),
(285,257,o),
(282,247,o),
(277,243,c),
(267,234,o),
(193,188,o),
(178,188,c),
(162,182,o),
(127,183,o),
(120,197,c)
);
},
{
closed = 1;
nodes = (
(107,280,o),
(112,323,o),
(115,322,c),
(118,325,o),
(137,298,o),
(151,293,c),
(169,288,o),
(278,289,o),
(281,285,c),
(281,285,o),
(281,270,o),
(276,270,c),
(230,264,o),
(177,237,o),
(134,258,c),
(126,260,o),
(109,268,o),
(109,275,c)
);
},
{
closed = 1;
nodes = (
(145,401,l),
(154,394,o),
(154,379,o),
(157,370,c),
(177,343,o),
(283,315,o),
(289,307,c),
(289,307,o),
(285,295,o),
(282,292,c),
(277,294,o),
(180,308,o),
(172,308,c),
(150,316,o),
(128,338,o),
(122,357,c)
);
},
{
closed = 1;
nodes = (
(207,455,o),
(202,431,o),
(212,416,c),
(222,394,o),
(305,331,o),
(306,324,c),
(306,324,o),
(297,315,o),
(295,314,c),
(284,314,o),
(199,363,o),
(186,374,c),
(181,385,o),
(162,416,o),
(166,426,c),
(168,431,o),
(201,464,o),
(205,457,c)
);
},
{
closed = 1;
nodes = (
(246,443,o),
(305,388,o),
(323,340,c),
(322,327,o),
(315,327,o),
(306,334,c),
(287,347,o),
(231,415,o),
(228,437,c),
(220,485,o),
(238,487,o),
(278,499,c)
);
},
{
closed = 1;
nodes = (
(310,465,o),
(350,395,o),
(348,346,c),
(347,331,o),
(337,335,o),
(331,345,c),
(316,364,o),
(287,446,o),
(291,468,c),
(300,516,o),
(317,513,o),
(360,505,c)
);
},
{
closed = 1;
nodes = (
(436,490,l),
(439,486,o),
(416,477,o),
(412,473,c),
(387,449,o),
(384,368,o),
(373,333,c),
(367,331,o),
(360,334,o),
(357,339,c),
(355,347,o),
(352,450,o),
(356,460,c),
(359,470,o),
(385,508,o),
(390,506,c)
);
},
{
closed = 1;
nodes = (
(303,265,o),
(321,305,o),
(345,303,c),
(403,295,o),
(370,213,o),
(324,250,c)
);
},
{
closed = 1;
nodes = (
(469,477,o),
(507,450,o),
(505,445,c),
(505,441,o),
(484,440,o),
(478,437,c),
(447,426,o),
(413,349,o),
(395,321,c),
(379,331,l),
(398,370,o),
(399,425,o),
(429,455,c),
(431,456,o),
(459,476,o),
(462,475,c)
);
},
{
closed = 1;
nodes = (
(557,380,l),
(546,375,o),
(534,383,o),
(523,383,c),
(497,381,o),
(432,319,o),
(408,302,c),
(403,305,o),
(398,312,o),
(400,318,c),
(403,326,o),
(457,393,o),
(466,402,c),
(484,418,o),
(507,422,o),
(531,423,c)
);
},
{
closed = 1;
nodes = (
(573,350,o),
(584,301,o),
(579,298,c),
(578,298,o),
(551,315,o),
(537,319,c),
(512,318,o),
(448,287,o),
(419,283,c),
(404,281,o),
(410,292,o),
(418,299,c),
(430,313,o),
(507,359,o),
(526,359,c),
(531,360,o),
(565,354,o),
(569,353,c)
);
},
{
closed = 1;
nodes = (
(578,217,l),
(564,223,o),
(561,240,o),
(545,246,c),
(515,259,o),
(453,250,o),
(418,254,c),
(404,260,o),
(411,269,o),
(423,273,c),
(434,281,o),
(508,294,o),
(521,295,c),
(548,293,o),
(561,283,o),
(585,274,c)
);
},
{
closed = 1;
nodes = (
(450,674,o),
(-13,489,o),
(108,177,c),
(230,-137,o),
(719,57,o),
(581,372,c)
);
},
{
attr = {
strokeWidth = 7;
};
closed = 1;
nodes = (
(553,32,o),
(392,-41,o),
(249,12,c),
(103,65,o),
(30,223,o),
(82,369,c),
(134,512,o),
(294,587,o),
(439,534,c),
(582,482,o),
(658,321,o),
(607,178,c)
);
},
{
attr = {
lineCapEnd = "4";
lineCapStart = "4";
strokeWidth = 30;
};
closed = 0;
nodes = (
(470,587,l),
(422,611,o),
(344,641,o),
(258,621,c),
(175,604,o),
(123,556,o),
(100,532,c)
);
},
{
closed = 1;
nodes = (
(463,640,l),
(459,594,l),
(419,566,l),
(527,554,l)
);
}
);
width = 646;
},
{
hints = (
{
horizontal = 1;
place = (452.76,26.4);
type = Stem;
},
{
horizontal = 1;
place = (-5.28,26.4);
type = Stem;
},
{
place = (567.6,25.08);
type = Stem;
},
{
place = (77.88,26.4);
type = Stem;
}
);
layerId = m005;
shapes = (
{
closed = 1;
nodes = (
(551,256,l),
(532,264,o),
(521,280,o),
(500,281,c),
(483,279,o),
(385,262,o),
(381,266,c),
(379,268,o),
(378,278,o),
(378,282,c),
(382,286,o),
(471,319,o),
(480,321,c),
(507,326,o),
(518,317,o),
(543,312,c)
);
},
{
closed = 1;
nodes = (
(523,188,o),
(513,206,o),
(501,212,c),
(485,220,o),
(375,237,o),
(373,244,c),
(373,244,o),
(377,254,o),
(379,254,c),
(382,260,o),
(462,260,o),
(475,260,c),
(507,260,o),
(512,253,o),
(532,235,c),
(538,233,o),
(544,234,o),
(544,231,c),
(547,226,o),
(536,180,o),
(528,174,c)
);
},
{
closed = 1;
nodes = (
(486,105,l),
(473,117,o),
(481,132,o),
(472,150,c),
(458,165,o),
(363,214,o),
(365,224,c),
(364,227,o),
(368,232,o),
(369,233,c),
(375,237,o),
(475,200,o),
(487,193,c),
(503,184,o),
(506,164,o),
(516,150,c)
);
},
{
closed = 1;
nodes = (
(421,56,l),
(415,69,o),
(424,79,o),
(422,89,c),
(418,120,o),
(339,204,o),
(342,210,c),
(342,210,o),
(352,214,o),
(355,215,c),
(360,214,o),
(428,161,o),
(437,152,c),
(459,128,o),
(461,117,o),
(466,86,c)
);
},
{
closed = 1;
nodes = (
(398,71,o),
(394,43,o),
(388,42,c),
(380,40,o),
(341,31,o),
(340,33,c),
(338,33,o),
(356,59,o),
(355,72,c),
(356,107,o),
(329,159,o),
(321,198,c),
(319,206,o),
(332,203,o),
(337,204,c),
(355,164,o),
(400,123,o),
(399,74,c)
);
},
{
closed = 1;
nodes = (
(297,26,o),
(272,35,o),
(258,35,c),
(261,47,o),
(276,50,o),
(284,62,c),
(301,83,o),
(289,166,o),
(295,197,c),
(307,210,o),
(312,193,o),
(317,183,c),
(323,156,o),
(340,90,o),
(329,67,c),
(329,62,o),
(312,34,o),
(311,30,c)
);
},
{
closed = 1;
nodes = (
(180,67,l),
(206,81,o),
(217,83,o),
(230,107,c),
(241,124,o),
(269,204,o),
(275,210,c),
(276,210,o),
(288,207,o),
(288,207,c),
(292,202,o),
(279,127,o),
(277,116,c),
(270,78,o),
(262,64,o),
(228,44,c)
);
},
{
closed = 1;
nodes = (
(147,93,o),
(119,125,o),
(119,127,c),
(121,128,o),
(153,126,o),
(168,134,c),
(187,144,o),
(254,229,o),
(262,225,c),
(265,225,o),
(267,214,o),
(265,209,c),
(261,196,o),
(220,120,o),
(207,111,c),
(197,99,o),
(165,82,o),
(153,91,c)
);
},
{
closed = 1;
nodes = (
(100,156,o),
(82,196,o),
(85,197,c),
(86,200,o),
(116,187,o),
(130,189,c),
(149,194,o),
(242,250,o),
(248,248,c),
(248,248,o),
(254,235,o),
(251,232,c),
(213,204,o),
(182,154,o),
(134,150,c),
(126,149,o),
(106,147,o),
(103,153,c)
);
},
{
closed = 1;
nodes = (
(72,280,l),
(83,278,o),
(90,266,o),
(97,260,c),
(129,245,o),
(235,275,o),
(244,270,c),
(244,270,o),
(246,258,o),
(245,254,c),
(240,252,o),
(149,216,o),
(142,213,c),
(118,208,o),
(89,217,o),
(74,231,c)
);
},
{
closed = 1;
nodes = (
(98,357,o),
(107,334,o),
(122,326,c),
(142,313,o),
(245,299,o),
(250,294,c),
(250,294,o),
(246,282,o),
(245,280,c),
(236,275,o),
(138,274,o),
(121,277,c),
(111,283,o),
(79,301,o),
(77,312,c),
(76,318,o),
(88,363,o),
(95,359,c)
);
},
{
closed = 1;
nodes = (
(139,366,o),
(217,349,o),
(257,316,c),
(262,305,o),
(256,301,o),
(244,302,c),
(222,304,o),
(139,335,o),
(125,353,c),
(95,390,o),
(109,401,o),
(138,431,c)
);
},
{
closed = 1;
nodes = (
(182,418,o),
(252,377,o),
(274,334,c),
(282,321,o),
(271,319,o),
(261,324,c),
(239,333,o),
(172,390,o),
(165,411,c),
(149,457,o),
(165,463,o),
(205,478,c)
);
},
{
closed = 1;
nodes = (
(279,502,l),
(284,501,o),
(268,481,o),
(267,475,c),
(257,442,o),
(295,371,o),
(302,335,c),
(299,331,o),
(291,329,o),
(286,333,c),
(281,338,o),
(227,426,o),
(225,437,c),
(223,446,o),
(226,493,o),
(232,494,c)
);
},
{
closed = 1;
nodes = (
(276,242,o),
(273,285,o),
(294,294,c),
(348,317,o),
(361,230,o),
(302,238,c)
);
},
{
closed = 1;
nodes = (
(315,508,o),
(361,503,o),
(362,498,c),
(363,494,o),
(345,483,o),
(342,478,c),
(321,453,o),
(330,369,o),
(328,336,c),
(308,337,l),
(306,379,o),
(280,428,o),
(290,468,c),
(292,471,o),
(307,502,o),
(310,502,c)
);
},
{
closed = 1;
nodes = (
(438,468,l),
(432,458,o),
(418,459,o),
(408,454,c),
(387,439,o),
(361,352,o),
(349,325,c),
(344,325,o),
(335,329,o),
(334,335,c),
(332,344,o),
(346,428,o),
(350,441,c),
(357,465,o),
(375,479,o),
(395,492,c)
);
},
{
closed = 1;
nodes = (
(468,450,o),
(501,413,o),
(499,408,c),
(498,408,o),
(466,409,o),
(453,405,c),
(432,392,o),
(391,333,o),
(368,315,c),
(356,305,o),
(356,319,o),
(359,328,c),
(363,346,o),
(407,425,o),
(422,434,c),
(427,438,o),
(459,449,o),
(463,450,c)
);
},
{
closed = 1;
nodes = (
(539,338,l),
(523,335,o),
(512,349,o),
(496,346,c),
(464,342,o),
(414,303,o),
(382,290,c),
(366,287,o),
(369,298,o),
(376,308,c),
(382,320,o),
(440,369,o),
(450,376,c),
(474,388,o),
(491,386,o),
(516,389,c)
);
},
{
closed = 1;
nodes = (
(200,669,o),
(-109,277,o),
(152,67,c),
(414,-143,o),
(741,269,o),
(464,473,c)
);
},
{
attr = {
strokeWidth = 7;
};
closed = 1;
nodes = (
(610,165,o),
(506,21,o),
(356,-5,c),
(204,-32,o),
(60,68,o),
(33,221,c),
(7,370,o),
(107,515,o),
(260,542,c),
(410,569,o),
(557,467,o),
(583,318,c)
);
},
{
attr = {
lineCapEnd = 4;
lineCapStart = 4;
strokeWidth = 30;
};
closed = 0;
nodes = (
(371,626,l),
(317,636,o),
(234,645,o),
(157,604,c),
(81,566,o),
(43,506,o),
(27,477,c)
);
},
{
closed = 1;
nodes = (
(349,675,l),
(357,629,l),
(326,593,l),
(434,608,l)
);
}
);
width = 646;
},
{
hints = (
{
horizontal = 1;
place = (452.76,26.4);
type = Stem;
},
{
horizontal = 1;
place = (-5.28,26.4);
type = Stem;
},
{
place = (567.6,25.08);
type = Stem;
},
{
place = (77.88,26.4);
type = Stem;
}
);
layerId = m006;
shapes = (
{
closed = 1;
nodes = (
(540,297,l),
(520,301,o),
(506,315,o),
(485,313,c),
(469,308,o),
(375,274,o),
(370,277,c),
(368,279,o),
(365,289,o),
(365,292,c),
(368,297,o),
(450,345,o),
(458,349,c),
(484,358,o),
(497,351,o),
(522,351,c)
);
},
{
closed = 1;
nodes = (
(524,225,o),
(511,241,o),
(498,245,c),
(481,250,o),
(370,248,o),
(366,254,c),
(366,254,o),
(369,265,o),
(371,265,c),
(373,272,o),
(451,285,o),
(464,288,c),
(496,293,o),
(502,287,o),
(525,273,c),
(531,272,o),
(537,274,o),
(537,271,c),
(541,267,o),
(538,219,o),
(531,212,c)
);
},
{
closed = 1;
nodes = (
(502,137,l),
(487,146,o),
(492,163,o),
(480,179,c),
(464,191,o),
(362,223,o),
(362,233,c),
(361,236,o),
(364,242,o),
(364,243,c),
(370,248,o),
(475,229,o),
(488,224,c),
(505,218,o),
(511,198,o),
(524,186,c)
);
},
{
closed = 1;
nodes = (
(446,77,l),
(438,89,o),
(445,101,o),
(442,110,c),
(432,140,o),
(340,209,o),
(342,215,c),
(342,215,o),
(351,221,o),
(354,223,c),
(359,222,o),
(435,182,o),
(445,175,c),
(471,155,o),
(475,144,o),
(485,115,c)
);
},
{
closed = 1;
nodes = (
(421,88,o),
(422,60,o),
(416,58,c),
(409,55,o),
(372,39,o),
(371,41,c),
(369,40,o),
(382,69,o),
(379,82,c),
(373,116,o),
(338,163,o),
(323,200,c),
(320,207,o),
(333,207,o),
(338,209,c),
(363,172,o),
(414,140,o),
(422,91,c)
);
},
{
closed = 1;
nodes = (
(329,26,o),
(303,31,o),
(289,28,c),
(290,41,o),
(305,46,o),
(310,59,c),
(323,83,o),
(297,163,o),
(298,194,c),
(307,209,o),
(315,193,o),
(322,184,c),
(332,159,o),
(361,97,o),
(354,72,c),
(355,67,o),
(343,37,o),
(343,33,c)
);
},
{
closed = 1;
nodes = (
(207,46,l),
(230,65,o),
(241,69,o),
(249,94,c),
(257,113,o),
(271,197,o),
(276,204,c),
(277,204,o),
(289,203,o),
(289,203,c),
(294,199,o),
(294,123,o),
(294,111,c),
(294,73,o),
(288,58,o),
(258,32,c)
);
},
{
closed = 1;
nodes = (
(170,66,o),
(137,93,o),
(137,95,c),
(138,96,o),
(170,100,o),
(184,110,c),
(201,123,o),
(252,219,o),
(260,216,c),
(263,217,o),
(267,206,o),
(266,201,c),
(264,187,o),
(237,106,o),
(226,94,c),
(218,81,o),
(190,59,o),
(176,65,c)
);
},
{
closed = 1;
nodes = (
(113,120,o),
(88,156,o),
(91,158,c),
(91,161,o),
(123,153,o),
(137,158,c),
(155,166,o),
(236,237,o),
(243,236,c),
(243,236,o),
(251,225,o),
(248,221,c),
(216,187,o),
(194,132,o),
(147,120,c),
(140,118,o),
(120,112,o),
(116,118,c)
);
},
{
closed = 1;
nodes = (
(64,237,l),
(75,237,o),
(84,227,o),
(92,222,c),
(126,213,o),
(225,261,o),
(235,257,c),
(235,257,o),
(239,246,o),
(239,242,c),
(234,239,o),
(151,188,o),
(144,184,c),
(122,174,o),
(91,178,o),
(74,189,c)
);
},
{
closed = 1;
nodes = (
(76,318,o),
(89,297,o),
(105,291,c),
(127,282,o),
(231,286,o),
(237,282,c),
(237,282,o),
(235,270,o),
(234,267,c),
(226,261,o),
(130,243,o),
(113,243,c),
(102,247,o),
(67,259,o),
(63,270,c),
(61,275,o),
(65,322,o),
(73,319,c)
);
},
{
closed = 1;
nodes = (
(115,334,o),
(195,331,o),
(240,305,c),
(247,295,o),
(241,290,o),
(229,289,c),
(207,287,o),
(120,303,o),
(103,318,c),
(67,350,o),
(79,363,o),
(103,398,c)
);
},
{
closed = 1;
nodes = (
(148,392,o),
(224,364,o),
(253,326,c),
(263,314,o),
(253,310,o),
(242,314,c),
(219,319,o),
(143,363,o),
(133,383,c),
(109,425,o),
(124,434,o),
(160,455,c)
);
},
{
closed = 1;
nodes = (
(229,492,l),
(234,492,o),
(222,469,o),
(222,463,c),
(218,429,o),
(268,366,o),
(281,331,c),
(278,327,o),
(271,324,o),
(265,327,c),
(260,331,o),
(191,408,o),
(187,419,c),
(184,427,o),
(178,474,o),
(184,476,c)
);
},
{
closed = 1;
nodes = (
(271,235,o),
(261,277,o),
(280,290,c),
(329,322,o),
(357,238,o),
(298,236,c)
);
},
{
closed = 1;
nodes = (
(263,504,o),
(310,507,o),
(311,502,c),
(313,499,o),
(297,485,o),
(295,479,c),
(279,451,o),
(302,370,o),
(306,337,c),
(286,334,l),
(277,376,o),
(243,419,o),
(246,460,c),
(247,464,o),
(257,497,o),
(260,497,c)
);
},
{
closed = 1;
nodes = (
(392,486,l),
(387,475,o),
(373,474,o),
(364,467,c),
(346,449,o),
(336,358,o),
(329,330,c),
(324,329,o),
(314,331,o),
(312,337,c),
(309,346,o),
(308,431,o),
(310,444,c),
(312,469,o),
(328,486,o),
(345,502,c)
);
},
{
closed = 1;
nodes = (
(424,474,o),
(463,443,o),
(462,438,c),
(461,437,o),
(429,433,o),
(417,427,c),
(399,410,o),
(369,345,o),
(349,323,c),
(339,311,o),
(337,325,o),
(338,334,c),
(339,353,o),
(368,438,o),
(382,450,c),
(386,455,o),
(416,471,o),
(419,473,c)
);
},
{
closed = 1;
nodes = (
(514,376,l),
(498,370,o),
(485,382,o),
(470,376,c),
(439,366,o),
(397,319,o),
(367,301,c),
(352,295,o),
(353,307,o),
(358,318,c),
(362,331,o),
(411,389,o),
(419,398,c),
(441,414,o),
(458,415,o),
(482,422,c)
);
},
{
closed = 1;
nodes = (
(122,643,o),
(-114,203,o),
(180,41,c),
(474,-120,o),
(725,343,o),
(416,496,c)
);
},
{
attr = {
strokeWidth = 7;
};
closed = 1;
nodes = (
(614,218,o),
(536,58,o),
(393,6,c),
(248,-47,o),
(89,27,o),
(36,172,c),
(-16,315,o),
(57,475,o),
(203,528,c),
(346,581,o),
(509,506,o),
(560,364,c)
);
},
{
attr = {
lineCapEnd = 4;
lineCapStart = 4;
strokeWidth = 30;
};
closed = 0;
nodes = (
(337,628,l),
(282,633,o),
(199,635,o),
(126,587,c),
(53,543,o),
(21,480,o),
(7,450,c)
);
},
{
closed = 1;
nodes = (
(311,675,l),
(323,630,l),
(295,591,l),
(401,616,l)
);
}
);
width = 646;
}
);
note = O;
unicode = 79;
},
{
glyphname = P;
lastChange = "2024-11-10 23:57:38 +0000";
layers = (
{
hints = (
{
horizontal = 1;
place = (561,25.08);
type = Stem;
},
{
horizontal = 1;
place = (249.48,25.08);
type = Stem;
},
{
horizontal = 1;
place = (612.48,21);
target = up;
type = BottomGhost;
},
{
place = (349.8,25.08);
type = Stem;
}
);
layerId = m003;
shapes = (
{
closed = 1;
nodes = (
(269,650,l),
(247,652,o),
(220,633,o),
(211,608,cs),
(0,0,l),
(18,-3,o),
(48,16,o),
(56,40,cs)
);
},
{
attr = {
strokeWidth = 30;
};
closed = 0;
nodes = (
(180,344,l),
(283,282,o),
(368,320,o),
(402,382,c),
(434,437,o),
(422,506,o),
(373,560,c)
);
},
{
closed = 1;
nodes = (
(369,505,l),
(383,550,l),
(425,570,l),
(319,604,l)
);
}
);
width = 458;
},
{
hints = (
{
horizontal = 1;
place = (561,25.08);
type = Stem;
},
{
horizontal = 1;
place = (249.48,25.08);
type = Stem;
},
{
horizontal = 1;
place = (612.48,21);
target = up;
type = BottomGhost;
},
{
place = (349.8,25.08);
type = Stem;
}
);
layerId = m002;
shapes = (
{
closed = 1;
nodes = (
(269,650,l),
(247,652,o),
(220,633,o),
(211,608,cs),
(0,0,l),
(18,-3,o),
(48,16,o),
(56,40,cs)
);
},
{
attr = {
strokeWidth = 30;
};
closed = 0;
nodes = (
(212,327,l),
(330,304,o),
(396,368,o),
(407,438,c),
(418,501,o),
(384,562,o),
(319,596,c)
);
},
{
closed = 1;
nodes = (
(334,542,l),
(332,590,l),
(364,623,l),
(253,618,l)
);
}
);
width = 458;
},
{
hints = (
{
horizontal = 1;
place = (561,25.08);
type = Stem;
},
{
horizontal = 1;
place = (249.48,25.08);
type = Stem;
},
{
horizontal = 1;
place = (612.48,21);
target = up;
type = BottomGhost;
},
{
place = (349.8,25.08);
type = Stem;
}
);
layerId = m004;
shapes = (
{
closed = 1;
nodes = (
(269,650,l),
(247,652,o),
(220,633,o),
(211,608,cs),
(0,0,l),
(18,-3,o),
(48,16,o),
(56,40,cs)
);
},
{
attr = {
strokeWidth = 30;
};
closed = 0;
nodes = (
(255,320,l),
(374,339,o),
(414,421,o),
(400,491,c),
(389,554,o),
(336,600,o),
(263,609,c)
);
},
{
closed = 1;
nodes = (
(296,564,l),
(278,608,l),
(296,650,l),
(194,607,l)
);
}
);
width = 458;
},
{
hints = (
{
horizontal = 1;
place = (561,25.08);
type = Stem;
},
{
horizontal = 1;
place = (249.48,25.08);
type = Stem;
},
{
horizontal = 1;
place = (612.48,21);
target = up;
type = BottomGhost;
},
{
place = (349.8,25.08);
type = Stem;
}
);
layerId = m005;
shapes = (
{
closed = 1;
nodes = (
(269,650,l),
(247,652,o),
(220,633,o),
(211,608,cs),
(0,0,l),
(18,-3,o),
(48,16,o),
(56,40,cs)
);
},
{
attr = {
strokeWidth = 30;
};
closed = 0;
nodes = (
(144,373,l),
(219,280,o),
(312,287,o),
(365,333,c),
(414,374,o),
(427,443,o),
(399,510,c)
);
},
{
closed = 1;
nodes = (
(376,460,l),
(405,498,l),
(451,502,l),
(363,570,l)
);
}
);
width = 458;
},
{
hints = (
{
horizontal = 1;
place = (561,25.08);
type = Stem;
},
{
horizontal = 1;
place = (249.48,25.08);
type = Stem;
},
{
horizontal = 1;
place = (612.48,21);
target = up;
type = BottomGhost;
},
{
place = (349.8,25.08);
type = Stem;
}
);
layerId = m006;
shapes = (
{
closed = 1;
nodes = (
(269,650,l),
(247,652,o),
(220,633,o),
(211,608,cs),
(0,0,l),
(18,-3,o),
(48,16,o),
(56,40,cs)
);
},
{
attr = {
strokeWidth = 30;
};
closed = 0;
nodes = (
(115,419,l),
(154,306,o),
(244,280,o),
(309,305,c),
(370,327,o),
(405,388,o),
(402,460,c)
);
},
{
closed = 1;
nodes = (
(363,421,l),
(403,447,l),
(448,435,l),
(389,529,l)
);
}
);
width = 458;
}
);
note = P;
unicode = 80;
},
{
glyphname = Q;
lastChange = "2024-11-10 23:11:15 +0000";
layers = (
{
hints = (
{
horizontal = 1;
place = (557.04,26.4);
type = Stem;
},
{
horizontal = 1;
place = (451.44,25.08);
type = Stem;
},
{
horizontal = 1;
place = (-7.92,27.72);
type = Stem;
},
{
place = (541.2,25.08);
type = Stem;
},
{
place = (59.4,29.04);
type = Stem;
}
);
layerId = m003;
shapes = (
{
closed = 1;
nodes = (
(558,256,l),
(539,264,o),
(528,280,o),
(507,281,c),
(490,279,o),
(392,262,o),
(388,266,c),
(386,268,o),
(385,278,o),
(385,282,c),
(389,286,o),
(478,319,o),
(487,321,c),
(514,326,o),
(525,317,o),
(550,312,c)
);
},
{
closed = 1;
nodes = (
(530,188,o),
(520,206,o),
(508,212,c),
(492,220,o),
(382,237,o),
(380,244,c),
(380,244,o),
(384,254,o),
(386,254,c),
(389,260,o),
(469,260,o),
(482,260,c),
(514,260,o),
(519,253,o),
(539,235,c),
(545,233,o),
(551,234,o),
(551,231,c),
(554,226,o),
(543,180,o),
(535,174,c)
);
},
{
closed = 1;
nodes = (
(493,105,l),
(480,117,o),
(488,132,o),
(479,150,c),
(465,165,o),
(370,214,o),
(372,224,c),
(371,227,o),
(375,232,o),
(376,233,c),
(382,237,o),
(482,200,o),
(494,193,c),
(510,184,o),
(513,164,o),
(523,150,c)
);
},
{
closed = 1;
nodes = (
(428,56,l),
(422,69,o),
(431,79,o),
(429,89,c),
(425,120,o),
(346,204,o),
(349,210,c),
(349,210,o),
(359,214,o),
(362,215,c),
(367,214,o),
(435,161,o),
(444,152,c),
(466,128,o),
(468,117,o),
(473,86,c)
);
},
{
closed = 1;
nodes = (
(405,71,o),
(401,43,o),
(395,42,c),
(387,40,o),
(348,31,o),
(347,33,c),
(345,33,o),
(363,59,o),
(362,72,c),
(363,107,o),
(336,159,o),
(328,198,c),
(326,206,o),
(339,203,o),
(344,204,c),
(362,164,o),
(407,123,o),
(406,74,c)
);
},
{
closed = 1;
nodes = (
(304,26,o),
(279,35,o),
(265,35,c),
(268,47,o),
(283,50,o),
(291,62,c),
(308,83,o),
(296,166,o),
(302,197,c),
(314,210,o),
(319,193,o),
(324,183,c),
(330,156,o),
(347,90,o),
(336,67,c),
(336,62,o),
(319,34,o),
(318,30,c)
);
},
{
closed = 1;
nodes = (
(187,67,l),
(213,81,o),
(224,83,o),
(237,107,c),
(248,124,o),
(276,204,o),
(282,210,c),
(283,210,o),
(295,207,o),
(295,207,c),
(299,202,o),
(286,127,o),
(284,116,c),
(277,78,o),
(269,64,o),
(235,44,c)
);
},
{
closed = 1;
nodes = (
(154,93,o),
(126,125,o),
(126,127,c),
(128,128,o),
(160,126,o),
(175,134,c),
(194,144,o),
(261,229,o),
(269,225,c),
(272,225,o),
(274,214,o),
(272,209,c),
(268,196,o),
(227,120,o),
(214,111,c),
(204,99,o),
(172,82,o),
(160,91,c)
);
},
{
closed = 1;
nodes = (
(107,156,o),
(89,196,o),
(92,197,c),
(93,200,o),
(123,187,o),
(137,189,c),
(156,194,o),
(249,250,o),
(255,248,c),
(255,248,o),
(261,235,o),
(258,232,c),
(220,204,o),
(189,154,o),
(141,150,c),
(133,149,o),
(113,147,o),
(110,153,c)
);
},
{
closed = 1;
nodes = (
(79,280,l),
(90,278,o),
(97,266,o),
(104,260,c),
(136,245,o),
(242,275,o),
(251,270,c),
(251,270,o),
(253,258,o),
(252,254,c),
(247,252,o),
(156,216,o),
(149,213,c),
(125,208,o),
(96,217,o),
(81,231,c)
);
},
{
closed = 1;
nodes = (
(105,357,o),
(114,334,o),
(129,326,c),
(149,313,o),
(252,299,o),
(257,294,c),
(257,294,o),
(253,282,o),
(252,280,c),
(243,275,o),
(145,274,o),
(128,277,c),
(118,283,o),
(86,301,o),
(84,312,c),
(83,318,o),
(95,363,o),
(102,359,c)
);
},
{
closed = 1;
nodes = (
(146,366,o),
(224,349,o),
(264,316,c),
(269,305,o),
(263,301,o),
(251,302,c),
(229,304,o),
(146,335,o),
(132,353,c),
(102,390,o),
(116,401,o),
(145,431,c)
);
},
{
closed = 1;
nodes = (
(189,418,o),
(259,377,o),
(281,334,c),
(289,321,o),
(278,319,o),
(268,324,c),
(246,333,o),
(179,390,o),
(172,411,c),
(156,457,o),
(172,463,o),
(212,478,c)
);
},
{
closed = 1;
nodes = (
(286,502,l),
(291,501,o),
(275,481,o),
(274,475,c),
(264,442,o),
(302,371,o),
(309,335,c),
(306,331,o),
(298,329,o),
(293,333,c),
(288,338,o),
(234,426,o),
(232,437,c),
(230,446,o),
(233,493,o),
(239,494,c)
);
},
{
closed = 1;
nodes = (
(283,242,o),
(280,285,o),
(301,294,c),
(355,317,o),
(368,230,o),
(309,238,c)
);
},
{
closed = 1;
nodes = (
(322,508,o),
(368,503,o),
(369,498,c),
(370,494,o),
(352,483,o),
(349,478,c),
(328,453,o),
(337,369,o),
(335,336,c),
(315,337,l),
(313,379,o),
(287,428,o),
(297,468,c),
(299,471,o),
(314,502,o),
(317,502,c)
);
},
{
closed = 1;
nodes = (
(445,468,l),
(439,458,o),
(425,459,o),
(415,454,c),
(394,439,o),
(368,352,o),
(356,325,c),
(351,325,o),
(342,329,o),
(341,335,c),
(339,344,o),
(353,428,o),
(357,441,c),
(364,465,o),
(382,479,o),
(402,492,c)
);
},
{
closed = 1;
nodes = (
(475,450,o),
(508,413,o),
(506,408,c),
(505,408,o),
(473,409,o),
(460,405,c),
(439,392,o),
(398,333,o),
(375,315,c),
(363,305,o),
(363,319,o),
(366,328,c),
(370,346,o),
(414,425,o),
(429,434,c),
(434,438,o),
(466,449,o),
(470,450,c)
);
},
{
closed = 1;
nodes = (
(546,338,l),
(530,335,o),
(519,349,o),
(503,346,c),
(471,342,o),
(421,303,o),
(389,290,c),
(373,287,o),
(376,298,o),
(383,308,c),
(389,320,o),
(447,369,o),
(457,376,c),
(481,388,o),
(498,386,o),
(523,389,c)
);
},
{
closed = 1;
nodes = (
(207,669,o),
(-102,277,o),
(159,67,c),
(421,-143,o),
(748,269,o),
(471,473,c)
);
},
{
attr = {
strokeWidth = 7;
};
closed = 1;
nodes = (
(617,165,o),
(513,21,o),
(363,-5,c),
(211,-32,o),
(67,68,o),
(40,221,c),
(14,370,o),
(114,515,o),
(267,542,c),
(417,569,o),
(564,467,o),
(590,318,c)
);
},
{
closed = 1;
nodes = (
(574,94,l),
(592,60,o),
(627,30,o),
(650,30,c),
(650,0,l),
(574,0,l),
(562,94,l)
);
},
{
attr = {
lineCapEnd = 4;
lineCapStart = 4;
strokeWidth = 30;
};
closed = 0;
nodes = (
(407,613,l),
(355,628,o),
(273,644,o),
(192,610,c),
(113,579,o),
(70,522,o),
(52,495,c)
);
},
{
closed = 1;
nodes = (
(394,664,l),
(398,618,l),
(364,584,l),
(473,590,l)
);
}
);
width = 670;
},
{
hints = (
{
horizontal = 1;
place = (557.04,26.4);
type = Stem;
},
{
horizontal = 1;
place = (451.44,25.08);
type = Stem;
},
{
horizontal = 1;
place = (-7.92,27.72);
type = Stem;
},
{
place = (541.2,25.08);
type = Stem;
},
{
place = (59.4,29.04);
type = Stem;
}
);
layerId = m002;
shapes = (
{
closed = 1;
nodes = (
(569,216,l),
(552,227,o),
(544,244,o),
(523,249,c),
(506,250,o),
(406,250,o),
(403,255,c),
(402,257,o),
(402,267,o),
(403,271,c),
(408,274,o),
(501,292,o),
(510,292,c),
(538,292,o),
(547,281,o),
(571,272,c)
);
},
{
closed = 1;
nodes = (
(530,153,o),
(523,173,o),
(512,181,c),
(498,192,o),
(392,227,o),
(392,235,c),
(392,235,o),
(397,244,o),
(399,244,c),
(403,249,o),
(482,235,o),
(495,233,c),
(526,227,o),
(530,219,o),
(547,198,c),
(552,195,o),
(558,195,o),
(558,192,c),
(560,187,o),
(541,143,o),
(532,139,c)
);
},
{
closed = 1;
nodes = (
(479,78,l),
(468,92,o),
(479,106,o),
(473,125,c),
(462,142,o),
(377,207,o),
(380,216,c),
(380,219,o),
(385,224,o),
(386,224,c),
(392,227,o),
(484,174,o),
(495,165,c),
(509,153,o),
(509,133,o),
(516,117,c)
);
},
{
closed = 1;
nodes = (
(406,41,l),
(403,55,o),
(413,63,o),
(413,74,c),
(414,105,o),
(351,201,o),
(355,207,c),
(355,207,o),
(366,209,o),
(369,209,c),
(374,207,o),
(431,143,o),
(439,133,c),
(456,106,o),
(456,94,o),
(456,63,c)
);
},
{
closed = 1;
nodes = (
(386,60,o),
(377,33,o),
(371,33,c),
(363,33,o),
(323,30,o),
(323,33,c),
(321,33,o),
(343,55,o),
(344,68,c),
(351,103,o),
(334,159,o),
(332,198,c),
(332,207,o),
(344,201,o),
(349,202,c),
(360,159,o),
(397,111,o),
(388,63,c)
);
},
{
closed = 1;
nodes = (
(279,33,o),
(256,46,o),
(242,49,c),
(247,60,o),
(262,61,o),
(272,71,c),
(293,89,o),
(295,173,o),
(307,202,c),
(321,213,o),
(323,195,o),
(326,184,c),
(327,157,o),
(332,89,o),
(318,68,c),
(317,63,o),
(295,38,o),
(293,35,c)
);
},
{
closed = 1;
nodes = (
(171,94,l),
(199,103,o),
(210,103,o),
(227,125,c),
(241,139,o),
(282,213,o),
(289,218,c),
(290,218,o),
(301,213,o),
(301,213,c),
(304,207,o),
(279,136,o),
(275,125,c),
(261,89,o),
(251,77,o),
(214,63,c)
);
},
{
closed = 1;
nodes = (
(143,125,o),
(121,162,o),
(121,164,c),
(123,164,o),
(155,157,o),
(171,162,c),
(191,168,o),
(272,241,o),
(279,235,c),
(282,235,o),
(282,224,o),
(279,219,c),
(273,207,o),
(219,139,o),
(205,133,c),
(193,122,o),
(159,111,o),
(148,122,c)
);
},
{
closed = 1;
nodes = (
(107,195,o),
(97,238,o),
(100,238,c),
(101,241,o),
(129,223,o),
(143,223,c),
(162,224,o),
(264,263,o),
(269,260,c),
(269,260,o),
(273,246,o),
(269,244,c),
(227,223,o),
(188,179,o),
(140,184,c),
(132,184,o),
(112,185,o),
(110,192,c)
);
},
{
closed = 1;
nodes = (
(101,322,l),
(112,319,o),
(117,305,o),
(123,298,c),
(151,278,o),
(261,289,o),
(269,283,c),
(269,283,o),
(269,271,o),
(267,267,c),
(262,266,o),
(166,246,o),
(159,244,c),
(134,244,o),
(107,257,o),
(95,274,c)
);
},
{
closed = 1;
nodes = (
(140,394,o),
(145,370,o),
(159,359,c),
(176,343,o),
(275,311,o),
(279,305,c),
(279,305,o),
(273,294,o),
(272,292,c),
(262,289,o),
(165,305,o),
(149,311,c),
(140,319,o),
(112,342,o),
(112,353,c),
(112,359,o),
(132,401,o),
(138,396,c)
);
},
{
closed = 1;
nodes = (
(182,396,o),
(256,365,o),
(290,326,c),
(293,314,o),
(286,311,o),
(275,314,c),
(253,320,o),
(177,365,o),
(166,385,c),
(143,427,o),
(159,435,o),
(193,460,c)
);
},
{
closed = 1;
nodes = (
(234,439,o),
(296,387,o),
(310,340,c),
(315,326,o),
(304,326,o),
(295,333,c),
(275,346,o),
(219,413,o),
(216,435,c),
(208,483,o),
(225,486,o),
(267,494,c)
);
},
{
closed = 1;
nodes = (
(344,505,l),
(349,503,o),
(329,486,o),
(327,481,c),
(312,450,o),
(337,373,o),
(338,337,c),
(334,333,o),
(326,333,o),
(321,337,c),
(317,343,o),
(279,439,o),
(279,450,c),
(279,460,o),
(290,505,o),
(296,505,c)
);
},
{
closed = 1;
nodes = (
(296,249,o),
(300,292,o),
(323,298,c),
(380,311,o),
(377,223,o),
(321,241,c)
);
},
{
closed = 1;
nodes = (
(380,505,o),
(425,492,o),
(425,487,c),
(425,483,o),
(406,475,o),
(402,470,c),
(377,449,o),
(371,365,o),
(363,333,c),
(344,337,l),
(349,379,o),
(332,432,o),
(349,470,c),
(351,472,o),
(371,500,o),
(374,500,c)
);
},
{
closed = 1;
nodes = (
(495,444,l),
(487,435,o),
(473,439,o),
(462,435,c),
(439,424,o),
(399,343,o),
(382,319,c),
(377,320,o),
(369,325,o),
(369,331,c),
(369,340,o),
(397,421,o),
(403,433,c),
(414,455,o),
(434,466,o),
(456,475,c)
);
},
{
closed = 1;
nodes = (
(521,421,o),
(547,379,o),
(544,374,c),
(543,374,o),
(512,381,o),
(498,379,c),
(475,370,o),
(425,319,o),
(399,305,c),
(386,298,o),
(388,311,o),
(392,320,c),
(399,337,o),
(456,407,o),
(473,413,c),
(478,416,o),
(512,422,o),
(516,422,c)
);
},
{
closed = 1;
nodes = (
(571,298,l),
(555,298,o),
(547,314,o),
(530,314,c),
(498,315,o),
(442,286,o),
(408,278,c),
(392,278,o),
(397,289,o),
(406,297,c),
(414,308,o),
(479,346,o),
(490,351,c),
(516,359,o),
(532,354,o),
(558,353,c)
);
},
{
closed = 1;
nodes = (
(295,683,o),
(-77,351,o),
(143,99,c),
(365,-154,o),
(758,195,o),
(521,444,c)
);
},
{
attr = {
strokeWidth = 7;
};
closed = 1;
nodes = (
(611,116,o),
(484,-8,o),
(332,-8,c),
(177,-8,o),
(53,116,o),
(53,271,c),
(53,422,o),
(177,548,o),
(332,548,c),
(484,548,o),
(611,422,o),
(611,271,c)
);
},
{
closed = 1;
nodes = (
(574,94,l),
(592,60,o),
(627,30,o),
(650,30,c),
(650,0,l),
(574,0,l),
(562,94,l)
);
},
{
attr = {
lineCapEnd = 4;
lineCapStart = 4;
strokeWidth = 30;
};
closed = 0;
nodes = (
(439,600,l),
(389,620,o),
(309,643,o),
(225,616,c),
(144,592,o),
(96,539,o),
(75,513,c)
);
},
{
closed = 1;
nodes = (
(427,652,l),
(427,606,l),
(390,575,l),
(499,572,l)
);
}
);
width = 670;
},
{
hints = (
{
horizontal = 1;
place = (557.04,26.4);
type = Stem;
},
{
horizontal = 1;
place = (451.44,25.08);
type = Stem;
},
{
horizontal = 1;
place = (-7.92,27.72);
type = Stem;
},
{
place = (541.2,25.08);
type = Stem;
},
{
place = (59.4,29.04);
type = Stem;
}
);
layerId = m004;
shapes = (
{
closed = 1;
nodes = (
(564,177,l),
(549,191,o),
(544,209,o),
(525,218,c),
(508,221,o),
(409,239,o),
(407,244,c),
(407,246,o),
(408,256,o),
(410,260,c),
(416,262,o),
(510,264,o),
(519,262,c),
(547,257,o),
(554,245,o),
(576,232,c)
);
},
{
closed = 1;
nodes = (
(515,122,o),
(511,143,o),
(502,152,c),
(490,166,o),
(392,219,o),
(393,227,c),
(393,227,o),
(400,235,o),
(402,234,c),
(406,238,o),
(482,211,o),
(494,207,c),
(524,195,o),
(526,187,o),
(539,163,c),
(544,159,o),
(550,158,o),
(549,155,c),
(550,150,o),
(524,110,o),
(514,108,c)
);
},
{
closed = 1;
nodes = (
(452,57,l),
(443,72,o),
(456,84,o),
(454,104,c),
(446,123,o),
(373,202,o),
(378,210,c),
(378,213,o),
(384,217,o),
(385,217,c),
(392,219,o),
(473,150,o),
(482,140,c),
(494,125,o),
(491,106,o),
(495,89,c)
);
},
{
closed = 1;
nodes = (
(373,33,l),
(373,47,o),
(384,53,o),
(386,64,c),
(392,95,o),
(347,200,o),
(352,205,c),
(352,205,o),
(363,205,o),
(366,205,c),
(371,202,o),
(416,129,o),
(422,118,c),
(434,88,o),
(432,77,o),
(426,46,c)
);
},
{
closed = 1;
nodes = (
(357,55,o),
(343,30,o),
(337,31,c),
(329,33,o),
(290,37,o),
(290,40,c),
(288,40,o),
(314,58,o),
(317,70,c),
(330,104,o),
(323,162,o),
(328,200,c),
(329,209,o),
(340,201,o),
(345,201,c),
(348,157,o),
(376,104,o),
(359,58,c)
);
},
{
closed = 1;
nodes = (
(247,47,o),
(226,64,o),
(213,69,c),
(220,79,o),
(235,78,o),
(246,86,c),
(270,100,o),
(287,182,o),
(304,209,c),
(319,217,o),
(318,199,o),
(319,188,c),
(316,161,o),
(309,93,o),
(291,75,c),
(289,70,o),
(263,49,o),
(261,47,c)
);
},
{
closed = 1;
nodes = (
(151,126,l),
(180,130,o),
(191,128,o),
(212,147,c),
(228,158,o),
(281,224,o),
(289,228,c),
(290,227,o),
(300,221,o),
(300,221,c),
(302,214,o),
(265,149,o),
(259,138,c),
(239,105,o),
(227,95,o),
(188,88,c)
);
},
{
closed = 1;
nodes = (
(129,161,o),
(114,202,o),
(114,204,c),
(116,203,o),
(146,191,o),
(163,193,c),
(184,195,o),
(276,253,o),
(282,246,c),
(285,246,o),
(283,235,o),
(279,230,c),
(271,220,o),
(206,162,o),
(191,159,c),
(177,150,o),
(142,145,o),
(133,158,c)
);
},
{
closed = 1;
nodes = (
(105,237,o),
(103,281,o),
(106,280,c),
(108,283,o),
(132,260,o),
(146,258,c),
(165,256,o),
(272,276,o),
(276,272,c),
(276,272,o),
(278,258,o),
(274,257,c),
(229,243,o),
(182,207,o),
(136,220,c),
(128,221,o),
(109,226,o),
(108,233,c)
);
},
{
closed = 1;
nodes = (
(122,363,l),
(132,358,o),
(134,343,o),
(139,335,c),
(163,311,o),
(273,302,o),
(280,295,c),
(280,295,o),
(278,283,o),
(276,280,c),
(270,280,o),
(172,277,o),
(165,276,c),
(141,280,o),
(116,298,o),
(107,316,c)
);
},
{
closed = 1;
nodes = (
(173,427,o),
(173,402,o),
(185,389,c),
(199,370,o),
(291,322,o),
(294,315,c),
(294,315,o),
(286,305,o),
(285,303,c),
(274,302,o),
(182,335,o),
(167,344,c),
(160,353,o),
(136,381,o),
(138,391,c),
(139,397,o),
(166,435,o),
(171,429,c)
);
},
{
closed = 1;
nodes = (
(214,422,o),
(282,378,o),
(308,334,c),
(309,321,o),
(302,320,o),
(292,325,c),
(271,334,o),
(204,392,o),
(197,413,c),
(181,459,o),
(198,464,o),
(236,483,c)
);
},
{
closed = 1;
nodes = (
(273,455,o),
(325,393,o),
(331,344,c),
(333,329,o),
(322,331,o),
(315,340,c),
(297,356,o),
(254,432,o),
(254,454,c),
(255,503,o),
(272,503,o),
(315,503,c)
);
},
{
closed = 1;
nodes = (
(393,501,l),
(397,498,o),
(375,485,o),
(372,480,c),
(352,452,o),
(363,372,o),
(358,336,c),
(353,333,o),
(345,334,o),
(341,339,c),
(338,346,o),
(317,447,o),
(319,458,c),
(321,468,o),
(340,510,o),
(345,509,c)
);
},
{
closed = 1;
nodes = (
(301,257,o),
(312,299,o),
(336,301,c),
(394,303,o),
(376,217,o),
(324,245,c)
);
},
{
closed = 1;
nodes = (
(428,494,o),
(470,474,o),
(469,469,c),
(469,465,o),
(449,460,o),
(444,456,c),
(415,440,o),
(395,358,o),
(382,328,c),
(364,335,l),
(376,376,o),
(368,431,o),
(392,465,c),
(394,467,o),
(418,491,o),
(421,491,c)
);
},
{
closed = 1;
nodes = (
(531,414,l),
(521,407,o),
(508,413,o),
(497,411,c),
(472,404,o),
(419,332,o),
(398,311,c),
(393,313,o),
(386,319,o),
(387,325,c),
(389,334,o),
(430,409,o),
(438,420,c),
(453,439,o),
(475,447,o),
(498,452,c)
);
},
{
closed = 1;
nodes = (
(552,387,o),
(571,341,o),
(567,337,c),
(566,337,o),
(537,349,o),
(522,350,c),
(498,345,o),
(440,303,o),
(412,294,c),
(398,290,o),
(402,302,o),
(408,310,c),
(418,326,o),
(486,385,o),
(504,388,c),
(509,390,o),
(544,390,o),
(548,389,c)
);
},
{
closed = 1;
nodes = (
(580,257,l),
(565,260,o),
(559,277,o),
(543,280,c),
(511,287,o),
(451,268,o),
(416,266,c),
(401,269,o),
(407,279,o),
(418,285,c),
(427,295,o),
(498,321,o),
(510,324,c),
(537,327,o),
(552,319,o),
(577,314,c)
);
},
{
closed = 1;
nodes = (
(375,685,o),
(-49,422,o),
(124,136,c),
(299,-152,o),
(747,124,o),
(556,410,c)
);
},
{
attr = {
strokeWidth = 7;
};
closed = 1;
nodes = (
(588,71,o),
(442,-29,o),
(292,-2,c),
(139,25,o),
(39,168,o),
(65,321,c),
(92,470,o),
(236,572,o),
(388,545,c),
(538,519,o),
(641,373,o),
(615,224,c)
);
},
{
closed = 1;
nodes = (
(571,94,l),
(589,60,o),
(624,30,o),
(647,30,c),
(647,0,l),
(571,0,l),
(559,94,l)
);
},
{
attr = {
lineCapEnd = 4;
lineCapStart = 4;
strokeWidth = 30;
};
closed = 0;
nodes = (
(470,587,l),
(422,611,o),
(344,641,o),
(258,621,c),
(175,604,o),
(123,556,o),
(100,532,c)
);
},
{
closed = 1;
nodes = (
(460,640,l),
(456,594,l),
(416,566,l),
(524,554,l)
);
}
);
width = 670;
},
{
hints = (
{
horizontal = 1;
place = (557.04,26.4);
type = Stem;
},
{
horizontal = 1;
place = (451.44,25.08);
type = Stem;
},
{
horizontal = 1;
place = (-7.92,27.72);
type = Stem;
},
{
place = (541.2,25.08);
type = Stem;
},
{
place = (59.4,29.04);
type = Stem;
}
);
layerId = m005;
shapes = (
{
closed = 1;
nodes = (
(546,297,l),
(526,301,o),
(512,315,o),
(491,313,c),
(475,308,o),
(381,274,o),
(376,277,c),
(374,279,o),
(371,289,o),
(371,292,c),
(374,297,o),
(456,345,o),
(464,349,c),
(490,358,o),
(503,351,o),
(528,351,c)
);
},
{
closed = 1;
nodes = (
(530,225,o),
(517,241,o),
(504,245,c),
(487,250,o),
(376,248,o),
(372,254,c),
(372,254,o),
(375,265,o),
(377,265,c),
(379,272,o),
(457,285,o),
(470,288,c),
(502,293,o),
(508,287,o),
(531,273,c),
(537,272,o),
(543,274,o),
(543,271,c),
(547,267,o),
(544,219,o),
(537,212,c)
);
},
{
closed = 1;
nodes = (
(508,137,l),
(493,146,o),
(498,163,o),
(486,179,c),
(470,191,o),
(368,223,o),
(368,233,c),
(367,236,o),
(370,242,o),
(370,243,c),
(376,248,o),
(481,229,o),
(494,224,c),
(511,218,o),
(517,198,o),
(530,186,c)
);
},
{
closed = 1;
nodes = (
(452,77,l),
(444,89,o),
(451,101,o),
(448,110,c),
(438,140,o),
(346,209,o),
(348,215,c),
(348,215,o),
(357,221,o),
(360,223,c),
(365,222,o),
(441,182,o),
(451,175,c),
(477,155,o),
(481,144,o),
(491,115,c)
);
},
{
closed = 1;
nodes = (
(427,88,o),
(428,60,o),
(422,58,c),
(415,55,o),
(378,39,o),
(377,41,c),
(375,40,o),
(388,69,o),
(385,82,c),
(379,116,o),
(344,163,o),
(329,200,c),
(326,207,o),
(339,207,o),
(344,209,c),
(369,172,o),
(420,140,o),
(428,91,c)
);
},
{
closed = 1;
nodes = (
(335,26,o),
(309,31,o),
(295,28,c),
(296,41,o),
(311,46,o),
(316,59,c),
(329,83,o),
(303,163,o),
(304,194,c),
(313,209,o),
(321,193,o),
(328,184,c),
(338,159,o),
(367,97,o),
(360,72,c),
(361,67,o),
(349,37,o),
(349,33,c)
);
},
{
closed = 1;
nodes = (
(213,46,l),
(236,65,o),
(247,69,o),
(255,94,c),
(263,113,o),
(277,197,o),
(282,204,c),
(283,204,o),
(295,203,o),
(295,203,c),
(300,199,o),
(300,123,o),
(300,111,c),
(300,73,o),
(294,58,o),
(264,32,c)
);
},
{
closed = 1;
nodes = (
(176,66,o),
(143,93,o),
(143,95,c),
(144,96,o),
(176,100,o),
(190,110,c),
(207,123,o),
(258,219,o),
(266,216,c),
(269,217,o),
(273,206,o),
(272,201,c),
(270,187,o),
(243,106,o),
(232,94,c),
(224,81,o),
(196,59,o),
(182,65,c)
);
},
{
closed = 1;
nodes = (
(119,120,o),
(94,156,o),
(97,158,c),
(97,161,o),
(129,153,o),
(143,158,c),
(161,166,o),
(242,237,o),
(249,236,c),
(249,236,o),
(257,225,o),
(254,221,c),
(222,187,o),
(200,132,o),
(153,120,c),
(146,118,o),
(126,112,o),
(122,118,c)
);
},
{
closed = 1;
nodes = (
(70,237,l),
(81,237,o),
(90,227,o),
(98,222,c),
(132,213,o),
(231,261,o),
(241,257,c),
(241,257,o),
(245,246,o),
(245,242,c),
(240,239,o),
(157,188,o),
(150,184,c),
(128,174,o),
(97,178,o),
(80,189,c)
);
},
{
closed = 1;
nodes = (
(82,318,o),
(95,297,o),
(111,291,c),
(133,282,o),
(237,286,o),
(243,282,c),
(243,282,o),
(241,270,o),
(240,267,c),
(232,261,o),
(136,243,o),
(119,243,c),
(108,247,o),
(73,259,o),
(69,270,c),
(67,275,o),
(71,322,o),
(79,319,c)
);
},
{
closed = 1;
nodes = (
(121,334,o),
(201,331,o),
(246,305,c),
(253,295,o),
(247,290,o),
(235,289,c),
(213,287,o),
(126,303,o),
(109,318,c),
(73,350,o),
(85,363,o),
(109,398,c)
);
},
{
closed = 1;
nodes = (
(154,392,o),
(230,364,o),
(259,326,c),
(269,314,o),
(259,310,o),
(248,314,c),
(225,319,o),
(149,363,o),
(139,383,c),
(115,425,o),
(130,434,o),
(166,455,c)
);
},
{
closed = 1;
nodes = (
(235,492,l),
(240,492,o),
(228,469,o),
(228,463,c),
(224,429,o),
(274,366,o),
(287,331,c),
(284,327,o),
(277,324,o),
(271,327,c),
(266,331,o),
(197,408,o),
(193,419,c),
(190,427,o),
(184,474,o),
(190,476,c)
);
},
{
closed = 1;
nodes = (
(277,235,o),
(267,277,o),
(286,290,c),
(335,322,o),
(363,238,o),
(304,236,c)
);
},
{
closed = 1;
nodes = (
(269,504,o),
(316,507,o),
(317,502,c),
(319,499,o),
(303,485,o),
(301,479,c),
(285,451,o),
(308,370,o),
(312,337,c),
(292,334,l),
(283,376,o),
(249,419,o),
(252,460,c),
(253,464,o),
(263,497,o),
(266,497,c)
);
},
{
closed = 1;
nodes = (
(398,486,l),
(393,475,o),
(379,474,o),
(370,467,c),
(352,449,o),
(342,358,o),
(335,330,c),
(330,329,o),
(320,331,o),
(318,337,c),
(315,346,o),
(314,431,o),
(316,444,c),
(318,469,o),
(334,486,o),
(351,502,c)
);
},
{
closed = 1;
nodes = (
(430,474,o),
(469,443,o),
(468,438,c),
(467,437,o),
(435,433,o),
(423,427,c),
(405,410,o),
(375,345,o),
(355,323,c),
(345,311,o),
(343,325,o),
(344,334,c),
(345,353,o),
(374,438,o),
(388,450,c),
(392,455,o),
(422,471,o),
(425,473,c)
);
},
{
closed = 1;
nodes = (
(520,376,l),
(504,370,o),
(491,382,o),
(476,376,c),
(445,366,o),
(403,319,o),
(373,301,c),
(358,295,o),
(359,307,o),
(364,318,c),
(368,331,o),
(417,389,o),
(425,398,c),
(447,414,o),
(464,415,o),
(488,422,c)
);
},
{
closed = 1;
nodes = (
(128,643,o),
(-108,203,o),
(186,41,c),
(480,-120,o),
(731,343,o),
(422,496,c)
);
},
{
attr = {
strokeWidth = 7;
};
closed = 1;
nodes = (
(620,218,o),
(542,58,o),
(399,6,c),
(254,-47,o),
(95,27,o),
(42,172,c),
(-10,315,o),
(63,475,o),
(209,528,c),
(352,581,o),
(515,506,o),
(566,364,c)
);
},
{
closed = 1;
nodes = (
(574,94,l),
(592,60,o),
(627,30,o),
(650,30,c),
(650,0,l),
(574,0,l),
(562,94,l)
);
},
{
attr = {
lineCapEnd = 4;
lineCapStart = 4;
strokeWidth = 30;
};
closed = 0;
nodes = (
(374,625,l),
(320,636,o),
(237,645,o),
(160,604,c),
(84,566,o),
(46,505,o),
(30,477,c)
);
},
{
closed = 1;
nodes = (
(356,675,l),
(364,630,l),
(333,593,l),
(441,608,l)
);
}
);
width = 670;
},
{
hints = (
{
horizontal = 1;
place = (557.04,26.4);
type = Stem;
},
{
horizontal = 1;
place = (451.44,25.08);
type = Stem;
},
{
horizontal = 1;
place = (-7.92,27.72);
type = Stem;
},
{
place = (541.2,25.08);
type = Stem;
},
{
place = (59.4,29.04);
type = Stem;
}
);
layerId = m006;
shapes = (
{
closed = 1;
nodes = (
(526,337,l),
(506,338,o),
(490,349,o),
(469,343,c),
(454,336,o),
(368,286,o),
(362,288,c),
(360,290,o),
(355,299,o),
(355,302,c),
(357,307,o),
(429,369,o),
(436,374,c),
(461,388,o),
(475,383,o),
(499,387,c)
);
},
{
closed = 1;
nodes = (
(523,263,o),
(507,277,o),
(494,279,c),
(476,281,o),
(367,259,o),
(362,265,c),
(362,265,o),
(363,276,o),
(365,276,c),
(366,284,o),
(441,310,o),
(453,315,c),
(484,326,o),
(491,321,o),
(516,311,c),
(522,311,o),
(527,314,o),
(528,311,c),
(532,308,o),
(538,260,o),
(532,252,c)
);
},
{
closed = 1;
nodes = (
(517,173,l),
(500,179,o),
(502,197,o),
(488,211,c),
(470,220,o),
(364,233,o),
(362,243,c),
(361,246,o),
(362,252,o),
(362,253,c),
(367,259,o),
(474,259,o),
(488,256,c),
(506,253,o),
(515,235,o),
(530,225,c)
);
},
{
closed = 1;
nodes = (
(472,104,l),
(462,115,o),
(467,128,o),
(462,136,c),
(447,164,o),
(345,216,o),
(346,222,c),
(346,222,o),
(353,230,o),
(356,232,c),
(361,232,o),
(443,206,o),
(454,201,c),
(483,185,o),
(489,175,o),
(504,148,c)
);
},
{
closed = 1;
nodes = (
(445,111,o),
(451,83,o),
(446,80,c),
(439,76,o),
(406,54,o),
(404,56,c),
(402,54,o),
(410,85,o),
(405,97,c),
(393,130,o),
(351,170,o),
(329,204,c),
(325,210,o),
(338,213,o),
(343,215,c),
(374,183,o),
(429,161,o),
(446,114,c)
);
},
{
closed = 1;
nodes = (
(366,34,o),
(339,34,o),
(326,29,c),
(325,42,o),
(338,49,o),
(341,63,c),
(350,89,o),
(310,163,o),
(306,194,c),
(312,210,o),
(323,196,o),
(331,188,c),
(345,165,o),
(385,109,o),
(382,83,c),
(384,79,o),
(377,47,o),
(378,43,c)
);
},
{
closed = 1;
nodes = (
(242,32,l),
(261,55,o),
(271,61,o),
(275,87,c),
(280,107,o),
(279,192,o),
(282,200,c),
(283,200,o),
(295,201,o),
(295,201,c),
(301,198,o),
(314,123,o),
(316,111,c),
(323,74,o),
(320,58,o),
(295,27,c)
);
},
{
closed = 1;
nodes = (
(202,45,o),
(165,66,o),
(164,68,c),
(165,69,o),
(196,79,o),
(208,91,c),
(223,107,o),
(256,210,o),
(265,209,c),
(267,210,o),
(273,200,o),
(273,195,c),
(274,181,o),
(261,96,o),
(252,83,c),
(247,69,o),
(223,42,o),
(208,45,c)
);
},
{
closed = 1;
nodes = (
(136,89,o),
(106,120,o),
(108,122,c),
(108,125,o),
(141,123,o),
(154,130,c),
(170,141,o),
(237,225,o),
(244,226,c),
(244,226,o),
(254,216,o),
(252,212,c),
(226,173,o),
(214,115,o),
(170,95,c),
(163,91,o),
(145,82,o),
(140,87,c)
);
},
{
closed = 1;
nodes = (
(68,195,l),
(79,197,o),
(89,189,o),
(98,186,c),
(133,183,o),
(222,247,o),
(233,245,c),
(233,245,o),
(239,235,o),
(239,231,c),
(235,227,o),
(162,162,o),
(156,157,c),
(136,143,o),
(105,142,o),
(86,150,c)
);
},
{
closed = 1;
nodes = (
(66,277,o),
(82,259,o),
(99,256,c),
(122,251,o),
(224,273,o),
(230,270,c),
(230,270,o),
(231,258,o),
(230,255,c),
(223,247,o),
(132,213,o),
(115,210,c),
(104,212,o),
(67,218,o),
(61,228,c),
(58,232,o),
(54,279,o),
(63,278,c)
);
},
{
closed = 1;
nodes = (
(101,300,o),
(181,311,o),
(229,293,c),
(238,284,o),
(233,278,o),
(221,275,c),
(200,270,o),
(112,270,o),
(92,282,c),
(51,307,o),
(61,322,o),
(78,361,c)
);
},
{
closed = 1;
nodes = (
(124,363,o),
(203,348,o),
(239,316,c),
(251,306,o),
(241,300,o),
(230,302,c),
(206,303,o),
(124,333,o),
(111,351,c),
(80,388,o),
(93,400,o),
(125,427,c)
);
},
{
closed = 1;
nodes = (
(186,475,l),
(191,476,o),
(183,451,o),
(184,445,c),
(186,411,o),
(246,358,o),
(265,326,c),
(263,321,o),
(257,317,o),
(250,319,c),
(245,322,o),
(163,386,o),
(157,396,c),
(153,403,o),
(139,449,o),
(145,452,c)
);
},
{
closed = 1;
nodes = (
(272,229,o),
(255,269,o),
(271,285,c),
(314,325,o),
(356,247,o),
(299,235,c)
);
},
{
closed = 1;
nodes = (
(218,493,o),
(263,504,o),
(265,499,c),
(268,497,o),
(254,480,o),
(253,474,c),
(242,444,o),
(279,368,o),
(289,336,c),
(270,330,l),
(254,369,o),
(213,406,o),
(208,447,c),
(209,451,o),
(213,485,o),
(216,486,c)
);
},
{
closed = 1;
nodes = (
(348,498,l),
(345,486,o),
(331,482,o),
(323,474,c),
(309,453,o),
(315,362,o),
(313,333,c),
(308,331,o),
(298,331,o),
(295,337,c),
(290,345,o),
(275,429,o),
(274,442,c),
(272,467,o),
(285,486,o),
(299,505,c)
);
},
{
closed = 1;
nodes = (
(381,491,o),
(425,468,o),
(425,462,c),
(424,461,o),
(393,452,o),
(383,444,c),
(368,424,o),
(350,355,o),
(334,330,c),
(326,316,o),
(321,330,o),
(321,339,c),
(319,357,o),
(332,446,o),
(344,460,c),
(347,466,o),
(374,487,o),
(377,489,c)
);
},
{
closed = 1;
nodes = (
(487,410,l),
(472,402,o),
(457,411,o),
(444,403,c),
(415,388,o),
(382,334,o),
(355,311,c),
(341,303,o),
(340,315,o),
(343,326,c),
(345,340,o),
(383,405,o),
(390,416,c),
(408,435,o),
(425,439,o),
(447,450,c)
);
},
{
closed = 1;
nodes = (
(55,605,o),
(-101,131,o),
(216,23,c),
(534,-85,o),
(700,415,o),
(370,512,c)
);
},
{
attr = {
strokeWidth = 7;
};
closed = 1;
nodes = (
(613,272,o),
(564,101,o),
(432,25,c),
(298,-52,o),
(129,-7,o),
(52,127,c),
(-24,258,o),
(20,429,o),
(154,506,c),
(286,583,o),
(459,538,o),
(534,407,c)
);
},
{
closed = 1;
nodes = (
(564,94,l),
(582,60,o),
(617,30,o),
(640,30,c),
(640,0,l),
(564,0,l),
(552,94,l)
);
},
{
attr = {
lineCapEnd = 4;
lineCapStart = 4;
strokeWidth = 30;
};
closed = 0;
nodes = (
(339,627,l),
(284,633,o),
(201,635,o),
(128,587,c),
(55,543,o),
(23,479,o),
(9,449,c)
);
},
{
closed = 1;
nodes = (
(317,675,l),
(329,631,l),
(301,591,l),
(407,616,l)
);
}
);
width = 670;
}
);
note = Q;
unicode = 81;
},
{
glyphname = R;
lastChange = "2024-11-10 23:59:53 +0000";
layers = (
{
hints = (
{
horizontal = 1;
place = (562.32,25.08);
type = Stem;
},
{
horizontal = 1;
place = (250.8,25.08);
type = Stem;
},
{
horizontal = 1;
place = (-1.32,21);
target = up;
type = BottomGhost;
},
{
place = (351.12,25.08);
type = Stem;
}
);
layerId = m003;
shapes = (
{
closed = 1;
nodes = (
(183,5,l),
(348,4,l),
(348,43,l),
(298,43,o),
(222,201,o),
(183,316,c),
(158,316,l)
);
},
{
closed = 1;
nodes = (
(269,650,l),
(247,652,o),
(220,633,o),
(211,608,cs),
(0,0,l),
(18,-3,o),
(48,16,o),
(56,40,cs)
);
},
{
attr = {
strokeWidth = 30;
};
closed = 0;
nodes = (
(180,344,l),
(283,282,o),
(368,320,o),
(402,382,c),
(434,437,o),
(422,506,o),
(373,560,c)
);
},
{
closed = 1;
nodes = (
(369,505,l),
(383,550,l),
(425,570,l),
(319,604,l)
);
}
);
width = 449;
},
{
hints = (
{
horizontal = 1;
place = (562.32,25.08);
type = Stem;
},
{
horizontal = 1;
place = (250.8,25.08);
type = Stem;
},
{
horizontal = 1;
place = (-1.32,21);
target = up;
type = BottomGhost;
},
{
place = (351.12,25.08);
type = Stem;
}
);
layerId = m002;
shapes = (
{
closed = 1;
nodes = (
(183,5,l),
(348,4,l),
(348,43,l),
(298,43,o),
(222,201,o),
(183,316,c),
(158,316,l)
);
},
{
closed = 1;
nodes = (
(269,650,l),
(247,652,o),
(220,633,o),
(211,608,cs),
(0,0,l),
(18,-3,o),
(48,16,o),
(56,40,cs)
);
},
{
attr = {
strokeWidth = 30;
};
closed = 0;
nodes = (
(212,327,l),
(330,304,o),
(396,368,o),
(407,438,c),
(418,501,o),
(384,562,o),
(319,596,c)
);
},
{
closed = 1;
nodes = (
(334,542,l),
(332,590,l),
(364,623,l),
(253,618,l)
);
}
);
width = 449;
},
{
hints = (
{
horizontal = 1;
place = (562.32,25.08);
type = Stem;
},
{
horizontal = 1;
place = (250.8,25.08);
type = Stem;
},
{
horizontal = 1;
place = (-1.32,21);
target = up;
type = BottomGhost;
},
{
place = (351.12,25.08);
type = Stem;
}
);
layerId = m004;
shapes = (
{
closed = 1;
nodes = (
(183,5,l),
(348,4,l),
(348,43,l),
(298,43,o),
(222,201,o),
(183,316,c),
(158,316,l)
);
},
{
closed = 1;
nodes = (
(269,650,l),
(247,652,o),
(220,633,o),
(211,608,cs),
(0,0,l),
(18,-3,o),
(48,16,o),
(56,40,cs)
);
},
{
attr = {
strokeWidth = 30;
};
closed = 0;
nodes = (
(255,320,l),
(374,339,o),
(414,421,o),
(400,491,c),
(389,554,o),
(336,600,o),
(263,609,c)
);
},
{
closed = 1;
nodes = (
(296,564,l),
(278,608,l),
(296,650,l),
(194,607,l)
);
}
);
width = 449;
},
{
hints = (
{
horizontal = 1;
place = (562.32,25.08);
type = Stem;
},
{
horizontal = 1;
place = (250.8,25.08);
type = Stem;
},
{
horizontal = 1;
place = (-1.32,21);
target = up;
type = BottomGhost;
},
{
place = (351.12,25.08);
type = Stem;
}
);
layerId = m005;
shapes = (
{
closed = 1;
nodes = (
(183,5,l),
(348,4,l),
(348,43,l),
(298,43,o),
(222,201,o),
(183,316,c),
(158,316,l)
);
},
{
closed = 1;
nodes = (
(269,650,l),
(247,652,o),
(220,633,o),
(211,608,cs),
(0,0,l),
(18,-3,o),
(48,16,o),
(56,40,cs)
);
},
{
attr = {
strokeWidth = 30;
};
closed = 0;
nodes = (
(144,373,l),
(219,280,o),
(312,287,o),
(365,333,c),
(414,374,o),
(427,443,o),
(399,510,c)
);
},
{
closed = 1;
nodes = (
(376,460,l),
(405,498,l),
(451,502,l),
(363,570,l)
);
}
);
width = 449;
},
{
hints = (
{
horizontal = 1;
place = (562.32,25.08);
type = Stem;
},
{
horizontal = 1;
place = (250.8,25.08);
type = Stem;
},
{
horizontal = 1;
place = (-1.32,21);
target = up;
type = BottomGhost;
},
{
place = (351.12,25.08);
type = Stem;
}
);
layerId = m006;
shapes = (
{
closed = 1;
nodes = (
(183,5,l),
(348,4,l),
(348,43,l),
(298,43,o),
(222,201,o),
(183,316,c),
(158,316,l)
);
},
{
closed = 1;
nodes = (
(269,650,l),
(247,652,o),
(220,633,o),
(211,608,cs),
(0,0,l),
(18,-3,o),
(48,16,o),
(56,40,cs)
);
},
{
attr = {
strokeWidth = 30;
};
closed = 0;
nodes = (
(125,409,l),
(164,296,o),
(254,270,o),
(319,295,c),
(380,317,o),
(415,378,o),
(412,450,c)
);
},
{
closed = 1;
nodes = (
(373,411,l),
(413,437,l),
(458,425,l),
(399,519,l)
);
}
);
width = 449;
}
);
note = R;
unicode = 82;
},
{
glyphname = S;
lastChange = "2024-11-11 00:01:41 +0000";
layers = (
{
hints = (
{
horizontal = 1;
place = (559.68,26.4);
type = Stem;
},
{
horizontal = 1;
place = (-6.6,26.4);
type = Stem;
},
{
place = (434.28,26.4);
type = Stem;
},
{
place = (332.64,26.4);
type = Stem;
},
{
place = (114.84,26.4);
type = Stem;
},
{
place = (13.2,26.4);
type = Stem;
}
);
layerId = m003;
shapes = (
{
attr = {
lineCapEnd = 4;
lineCapStart = 4;
strokeWidth = 30;
};
closed = 0;
nodes = (
(328,608,l),
(231,627,o),
(144,598,o),
(101,523,c),
(53,443,o),
(64,316,o),
(205,239,c)
);
},
{
attr = {
lineCapEnd = 4;
lineCapStart = 4;
strokeWidth = 30;
};
closed = 0;
nodes = (
(10,73,l),
(125,-29,o),
(241,2,o),
(299,72,c),
(351,135,o),
(351,223,o),
(300,303,c)
);
},
{
closed = 1;
nodes = (
(314,656,l),
(316,609,l),
(283,576,l),
(394,580,l)
);
},
{
closed = 1;
nodes = (
(281,254,l),
(303,296,l),
(348,308,l),
(250,360,l)
);
}
);
width = 460;
},
{
hints = (
{
horizontal = 1;
place = (559.68,26.4);
type = Stem;
},
{
horizontal = 1;
place = (-6.6,26.4);
type = Stem;
},
{
place = (434.28,26.4);
type = Stem;
},
{
place = (332.64,26.4);
type = Stem;
},
{
place = (114.84,26.4);
type = Stem;
},
{
place = (13.2,26.4);
type = Stem;
}
);
layerId = m002;
shapes = (
{
attr = {
lineCapEnd = 4;
lineCapStart = 4;
strokeWidth = 30;
};
closed = 0;
nodes = (
(355,583,l),
(270,634,o),
(178,636,o),
(112,580,c),
(40,522,o),
(7,398,o),
(113,278,c)
);
},
{
attr = {
lineCapEnd = 4;
lineCapStart = 4;
strokeWidth = 30;
};
closed = 0;
nodes = (
(10,40,l),
(153,-16,o),
(251,53,o),
(282,138,c),
(309,215,o),
(279,298,o),
(204,356,c)
);
},
{
closed = 1;
nodes = (
(358,632,l),
(344,588,l),
(301,568,l),
(407,534,l)
);
},
{
closed = 1;
nodes = (
(203,303,l),
(209,350,l),
(247,377,l),
(137,392,l)
);
}
);
width = 460;
},
{
hints = (
{
horizontal = 1;
place = (559.68,26.4);
type = Stem;
},
{
horizontal = 1;
place = (-6.6,26.4);
type = Stem;
},
{
place = (434.28,26.4);
type = Stem;
},
{
place = (332.64,26.4);
type = Stem;
},
{
place = (114.84,26.4);
type = Stem;
},
{
place = (13.2,26.4);
type = Stem;
}
);
layerId = m004;
shapes = (
{
attr = {
lineCapEnd = 4;
lineCapStart = 4;
strokeWidth = 30;
};
closed = 0;
nodes = (
(378,545,l),
(316,622,o),
(230,655,o),
(149,625,c),
(61,595,o),
(-12,490,o),
(46,341,c)
);
},
{
attr = {
lineCapEnd = 4;
lineCapStart = 4;
strokeWidth = 30;
};
closed = 0;
nodes = (
(39,18,l),
(192,14,o),
(261,112,o),
(261,203,c),
(260,285,o),
(203,352,o),
(113,381,c)
);
},
{
closed = 1;
nodes = (
(398,590,l),
(370,553,l),
(322,549,l),
(410,481,l)
);
},
{
closed = 1;
nodes = (
(130,331,l),
(120,377,l),
(146,416,l),
(38,392,l)
);
}
);
width = 460;
},
{
hints = (
{
horizontal = 1;
place = (559.68,26.4);
type = Stem;
},
{
horizontal = 1;
place = (-6.6,26.4);
type = Stem;
},
{
place = (434.28,26.4);
type = Stem;
},
{
place = (332.64,26.4);
type = Stem;
},
{
place = (114.84,26.4);
type = Stem;
},
{
place = (13.2,26.4);
type = Stem;
}
);
layerId = m005;
shapes = (
{
attr = {
lineCapEnd = 4;
lineCapStart = 4;
strokeWidth = 30;
};
closed = 0;
nodes = (
(305,614,l),
(207,599,o),
(135,542,o),
(121,457,c),
(103,365,o),
(157,249,o),
(315,225,c)
);
},
{
attr = {
lineCapEnd = 4;
lineCapStart = 4;
strokeWidth = 30;
};
closed = 0;
nodes = (
(27,117,l),
(100,-18,o),
(219,-29,o),
(298,17,c),
(368,59,o),
(398,141,o),
(378,234,c)
);
},
{
closed = 1;
nodes = (
(275,654,l),
(293,611,l),
(273,569,l),
(376,610,l)
);
},
{
closed = 1;
nodes = (
(343,194,l),
(378,226,l),
(425,222,l),
(350,304,l)
);
}
);
width = 460;
},
{
hints = (
{
horizontal = 1;
place = (559.68,26.4);
type = Stem;
},
{
horizontal = 1;
place = (-6.6,26.4);
type = Stem;
},
{
place = (434.28,26.4);
type = Stem;
},
{
place = (332.64,26.4);
type = Stem;
},
{
place = (114.84,26.4);
type = Stem;
},
{
place = (13.2,26.4);
type = Stem;
}
);
layerId = m006;
shapes = (
{
attr = {
lineCapEnd = 4;
lineCapStart = 4;
strokeWidth = 30;
};
closed = 0;
nodes = (
(264,606,l),
(177,558,o),
(129,480,o),
(145,395,c),
(160,303,o),
(250,212,o),
(407,244,c)
);
},
{
attr = {
lineCapEnd = 4;
lineCapStart = 4;
strokeWidth = 30;
};
closed = 0;
nodes = (
(25,176,l),
(47,24,o),
(155,-27,o),
(245,-10,c),
(326,5,o),
(382,72,o),
(395,166,c)
);
},
{
closed = 1;
nodes = (
(222,633,l),
(254,599,l),
(250,553,l),
(332,626,l)
);
},
{
closed = 1;
nodes = (
(348,141,l),
(392,159,l),
(435,139,l),
(392,242,l)
);
}
);
width = 460;
}
);
note = S;
unicode = 83;
},
{
glyphname = T;
lastChange = "2024-11-11 00:06:37 +0000";
layers = (
{
hints = (
{
horizontal = 1;
place = (561,25.08);
type = Stem;
},
{
horizontal = 1;
place = (-1.32,21);
target = up;
type = BottomGhost;
}
);
layerId = m003;
shapes = (
{
closed = 1;
nodes = (
(260,560,l),
(238,562,o),
(211,543,o),
(202,517,cs),
(24,0,l),
(42,-3,o),
(72,16,o),
(80,40,c)
);
},
{
attr = {
lineCapEnd = 4;
lineCapStart = 4;
strokeWidth = 30;
};
closed = 0;
nodes = (
(343,610,l),
(290,615,o),
(206,617,o),
(132,569,c),
(60,525,o),
(27,462,o),
(14,432,c)
);
},
{
closed = 1;
nodes = (
(318,657,l),
(330,612,l),
(302,573,l),
(408,598,l)
);
}
);
width = 512;
},
{
hints = (
{
horizontal = 1;
place = (561,25.08);
type = Stem;
},
{
horizontal = 1;
place = (-1.32,21);
target = up;
type = BottomGhost;
}
);
layerId = m002;
shapes = (
{
closed = 1;
nodes = (
(260,560,l),
(238,562,o),
(211,543,o),
(202,517,cs),
(24,0,l),
(42,-3,o),
(72,16,o),
(80,40,c)
);
},
{
attr = {
lineCapEnd = 4;
lineCapStart = 4;
strokeWidth = 30;
};
closed = 0;
nodes = (
(378,598,l),
(326,608,o),
(242,617,o),
(164,576,c),
(89,538,o),
(51,478,o),
(35,450,c)
);
},
{
closed = 1;
nodes = (
(357,647,l),
(365,601,l),
(334,565,l),
(442,581,l)
);
}
);
width = 512;
},
{
hints = (
{
horizontal = 1;
place = (561,25.08);
type = Stem;
},
{
horizontal = 1;
place = (-1.32,21);
target = up;
type = BottomGhost;
}
);
layerId = m004;
shapes = (
{
closed = 1;
nodes = (
(260,560,l),
(238,562,o),
(211,543,o),
(202,517,cs),
(24,0,l),
(42,-3,o),
(72,16,o),
(80,40,c)
);
},
{
attr = {
lineCapEnd = 4;
lineCapStart = 4;
strokeWidth = 30;
};
closed = 0;
nodes = (
(412,586,l),
(361,600,o),
(278,616,o),
(197,582,c),
(119,551,o),
(76,495,o),
(57,468,c)
);
},
{
closed = 1;
nodes = (
(395,636,l),
(399,590,l),
(365,557,l),
(474,563,l)
);
}
);
width = 512;
},
{
hints = (
{
horizontal = 1;
place = (561,25.08);
type = Stem;
},
{
horizontal = 1;
place = (-1.32,21);
target = up;
type = BottomGhost;
}
);
layerId = m005;
shapes = (
{
closed = 1;
nodes = (
(281,560,l),
(259,562,o),
(232,543,o),
(223,517,cs),
(45,0,l),
(63,-3,o),
(93,16,o),
(101,40,c)
);
},
{
attr = {
lineCapEnd = 4;
lineCapStart = 4;
strokeWidth = 30;
};
closed = 0;
nodes = (
(328,621,l),
(275,622,o),
(191,616,o),
(121,562,c),
(53,512,o),
(26,446,o),
(16,415,c)
);
},
{
closed = 1;
nodes = (
(299,666,l),
(315,622,l),
(290,581,l),
(394,615,l)
);
}
);
width = 512;
},
{
hints = (
{
horizontal = 1;
place = (561,25.08);
type = Stem;
},
{
horizontal = 1;
place = (-1.32,21);
target = up;
type = BottomGhost;
}
);
layerId = m006;
shapes = (
{
closed = 1;
nodes = (
(298,560,l),
(276,562,o),
(249,543,o),
(240,517,cs),
(62,0,l),
(80,-3,o),
(110,16,o),
(118,40,c)
);
},
{
attr = {
lineCapEnd = 4;
lineCapStart = 4;
strokeWidth = 30;
};
closed = 0;
nodes = (
(308,611,l),
(255,608,o),
(171,594,o),
(106,535,c),
(43,479,o),
(22,411,o),
(15,379,c)
);
},
{
closed = 1;
nodes = (
(275,654,l),
(294,611,l),
(273,568,l),
(374,611,l)
);
}
);
width = 512;
}
);
note = T;
unicode = 84;
},
{
glyphname = U;
lastChange = "2024-11-10 23:06:03 +0000";
layers = (
{
hints = (
{
horizontal = 1;
place = (76.56,26.4);
type = Stem;
},
{
horizontal = 1;
place = (-1.32,21);
target = up;
type = BottomGhost;
}
);
layerId = m003;
shapes = (
{
closed = 1;
nodes = (
(557,650,l),
(535,652,o),
(508,633,o),
(499,608,cs),
(288,0,l),
(306,-3,o),
(336,16,o),
(344,40,cs)
);
},
{
closed = 1;
nodes = (
(54,642,l),
(72,380,o),
(135,39,o),
(281,39,c),
(281,0,l),
(54,1,l),
(20,642,l)
);
}
);
width = 577;
},
{
hints = (
{
horizontal = 1;
place = (76.56,26.4);
type = Stem;
},
{
horizontal = 1;
place = (-1.32,21);
target = up;
type = BottomGhost;
}
);
layerId = m002;
shapes = (
{
closed = 1;
nodes = (
(557,650,l),
(535,652,o),
(508,633,o),
(499,608,cs),
(288,0,l),
(306,-3,o),
(336,16,o),
(344,40,cs)
);
},
{
closed = 1;
nodes = (
(54,642,l),
(72,380,o),
(135,39,o),
(281,39,c),
(281,0,l),
(54,1,l),
(20,642,l)
);
}
);
width = 577;
},
{
hints = (
{
horizontal = 1;
place = (76.56,26.4);
type = Stem;
},
{
horizontal = 1;
place = (-1.32,21);
target = up;
type = BottomGhost;
}
);
layerId = m004;
shapes = (
{
closed = 1;
nodes = (
(557,650,l),
(535,652,o),
(508,633,o),
(499,608,cs),
(288,0,l),
(306,-3,o),
(336,16,o),
(344,40,cs)
);
},
{
closed = 1;
nodes = (
(54,642,l),
(72,380,o),
(135,39,o),
(281,39,c),
(281,0,l),
(54,1,l),
(20,642,l)
);
}
);
width = 577;
},
{
hints = (
{
horizontal = 1;
place = (76.56,26.4);
type = Stem;
},
{
horizontal = 1;
place = (-1.32,21);
target = up;
type = BottomGhost;
}
);
layerId = m005;
shapes = (
{
closed = 1;
nodes = (
(557,650,l),
(535,652,o),
(508,633,o),
(499,608,cs),
(288,0,l),
(306,-3,o),
(336,16,o),
(344,40,cs)
);
},
{
closed = 1;
nodes = (
(54,642,l),
(72,380,o),
(135,39,o),
(281,39,c),
(281,0,l),
(54,1,l),
(20,642,l)
);
}
);
width = 577;
},
{
hints = (
{
horizontal = 1;
place = (76.56,26.4);
type = Stem;
},
{
horizontal = 1;
place = (-1.32,21);
target = up;
type = BottomGhost;
}
);
layerId = m006;
shapes = (
{
closed = 1;
nodes = (
(557,650,l),
(535,652,o),
(508,633,o),
(499,608,cs),
(288,0,l),
(306,-3,o),
(336,16,o),
(344,40,cs)
);
},
{
closed = 1;
nodes = (
(54,642,l),
(72,380,o),
(135,39,o),
(281,39,c),
(281,0,l),
(54,1,l),
(20,642,l)
);
}
);
width = 577;
}
);
note = U;
unicode = 85;
},
